<?xml version="1.0" encoding="utf-8"?>
<!-- Generator: Adobe Illustrator 24.0.0, SVG Export Plug-In . SVG Version: 6.00 Build 0)  -->
<svg version="1.1" id="_Layer" xmlns="http://www.w3.org/2000/svg" xmlns:xlink="http://www.w3.org/1999/xlink" x="0px" y="0px"
	 viewBox="0 0 309.7 92.2" style="enable-background:new 0 0 309.7 92.2;" xml:space="preserve">
<style type="text/css">
	.st0{fill:#D7D7D7;}
</style>
<image style="display:none;overflow:visible;enable-background:new    ;" width="159" height="219" xlink:href="../8C8D7538.jpeg"  transform="matrix(0.4168 0 0 0.4168 -20 -261.1593)">
</image>
<g>
	<g>
		<path class="st0" d="M87.6,75.2c-1.1-0.6-2.2-1.3-3.2-2c-0.2-0.2-0.3-0.4-0.3-0.7c-0.1-0.6,0.2-1.1,0.7-1.4c0,0,0.4-0.4,1.7-0.4
			c0.7,0,1.3,0.2,1.9,0.6l-0.1-1.2c0,0-2.4-0.6-3.7,0.1c-1,0.4-1.6,1.3-1.6,2.3c0.1,0.9,0.6,1.8,1.4,2.2c1.2,0.6,2.3,1.3,3.4,2.2
			c0.4,0.6,0.4,1.4,0,2c-0.5,0.6-1.3,1-2.1,0.9c-0.9,0-1.8-0.2-2.6-0.6l0.1,1.1c0.8,0.1,1.7,0.2,2.5,0.2c0.9,0,1.8-0.2,2.6-0.6
			c0.7-0.5,1.1-1.3,1.1-2.1C89.2,76.7,88.6,75.7,87.6,75.2"/>
		<path class="st0" d="M92.8,79.6v-4.5h3.3c0.2,0,0.3,0,0.5,0.1v-0.9h-3.8v-3.4h3.4c0.2,0,0.4,0.1,0.5,0.2V70h-5.3
			c0.1,0.2,0.2,0.5,0.2,0.8v9c0,0,0,0.2-0.2,0.7H97l0.2-1c-0.3,0.1-0.7,0.2-1,0.2L92.8,79.6"/>
		<path class="st0" d="M104.4,69.8c-2.9,0-5.3,2.3-5.3,5.2c0,2.9,2.3,5.3,5.2,5.3c2.9,0,5.3-2.3,5.3-5.2l0,0
			C109.6,72.2,107.3,69.9,104.4,69.8L104.4,69.8z M104.4,79.6c-2.4,0.2-4.6-1.6-4.8-4.1s1.6-4.6,4.1-4.8s4.6,1.6,4.8,4.1
			c0,0.1,0,0.3,0,0.4C108.5,77.5,106.7,79.4,104.4,79.6"/>
		<path class="st0" d="M178.4,69.8c-2.9,0-5.3,2.3-5.3,5.2c0,2.9,2.3,5.3,5.2,5.3s5.3-2.3,5.3-5.2c0,0,0,0,0-0.1
			C183.6,72.2,181.2,69.9,178.4,69.8z M178.4,79.6c-2.4,0.2-4.6-1.6-4.8-4.1s1.6-4.6,4.1-4.8s4.6,1.6,4.8,4.1c0,0.1,0,0.3,0,0.4
			C182.5,77.5,180.7,79.4,178.4,79.6"/>
		<path class="st0" d="M120.2,69.9h-1.4c0.2,0.1,0.2,0.5,0.2,0.5v6.4c0,1.6-1.3,2.9-2.9,2.9s-2.9-1.3-2.9-2.9v-0.2v-6.7h-1.1v6.9
			c0,2.2,1.8,4,4,4s4-1.8,4-4l0,0v-6.4C120.1,70.2,120.2,70.1,120.2,69.9"/>
		<path class="st0" d="M124.5,79.6v-9.1c0-0.2,0.1-0.5,0.2-0.7h-1.5c0.1,0.1,0.1,0.3,0.1,0.4v10h5.6l0.3-1c-0.3,0.1-0.6,0.2-0.9,0.2
			L124.5,79.6"/>
		<path class="st0" d="M210.8,79.6v-9.1c0-0.2,0-0.5,0.2-0.7h-1.4c0.1,0.1,0.1,0.3,0.1,0.4v10h5.6l0.3-1c-0.3,0.1-0.6,0.2-0.9,0.2
			L210.8,79.6"/>
		<path class="st0" d="M145.4,70.6V78l-7.3-8.1h-1.2c0.1,0.2,0.2,0.5,0.2,0.8v9c0,0.2-0.1,0.5-0.1,0.7h1.1c-0.1-0.2-0.1-0.5-0.1-0.8
			v-8.3l8.2,8.9v-9.7c0-0.2,0.1-0.5,0.1-0.7h-1.1C145.4,70.1,145.4,70.4,145.4,70.6"/>
		<path class="st0" d="M194.4,70.6V78l-7.3-8.1h-1.2c0.2,0.2,0.2,0.5,0.2,0.8v9c0,0.2-0.1,0.5-0.1,0.7h1.1c-0.1-0.2-0.1-0.5-0.1-0.8
			v-8.3l8.2,8.9v-9.7c0-0.2,0.1-0.5,0.1-0.7h-1.1C194.4,70.1,194.4,70.6,194.4,70.6"/>
		<path class="st0" d="M153.6,69.9h-1.3c0.1,0.3,0.1,0.6,0,0.9l-3.4,8.6c-0.2,0.4-0.4,0.7-0.6,1h1.3c0-0.2,0-0.4,0.1-0.7l1.4-3.4
			h4.3l1.4,3c0.1,0.3,0.2,0.7,0.2,1h1.8c-0.4-0.5-0.7-1-1-1.5L153.6,69.9L153.6,69.9z M151.3,75.6l1.7-4.2l2,4.2H151.3"/>
		<path class="st0" d="M202.7,69.9h-1.3c0.1,0.3,0.1,0.6,0,0.9l-3.4,8.6c-0.2,0.4-0.4,0.7-0.6,1h1.3c0-0.2,0-0.4,0.1-0.7l1.4-3.4
			h4.3l1.4,3c0.1,0.3,0.2,0.7,0.2,1h1.8c-0.4-0.5-0.7-1-1-1.5L202.7,69.9L202.7,69.9z M200.7,75.6l1.7-4.2l2,4.2H200.7"/>
		<path class="st0" d="M158.9,69.9L158.9,69.9l-0.3,0.9c0.2-0.1,0.4-0.1,0.6-0.1h2.9v9.1c0,0.2-0.1,0.4-0.1,0.6h1.5
			c-0.1-0.2-0.1-0.4-0.2-0.6v-9.1h2.2c0.4,0,0.8,0.1,1.2,0.2l-0.2-1H158.9"/>
		<path class="st0" d="M170.6,69.9h-1.4c0.1,0.2,0.2,0.4,0.2,0.6v9.2c0,0.3-0.1,0.5-0.2,0.7h1.4c-0.1-0.2-0.2-0.5-0.2-0.7v-9.2
			C170.4,70.3,170.5,70.1,170.6,69.9"/>
		<path class="st0" d="M284.5,75.2c-1.1-0.6-2.2-1.3-3.2-2c-0.2-0.2-0.3-0.4-0.3-0.7c-0.1-0.6,0.2-1.1,0.7-1.4c0,0,0.3-0.4,1.6-0.4
			c0.7,0,1.3,0.2,1.9,0.6l-0.1-1.2c0,0-2.4-0.6-3.7,0.1c-1,0.4-1.6,1.3-1.6,2.3s0.6,1.8,1.4,2.3c1.2,0.6,2.4,1.3,3.4,2.2
			c0.4,0.6,0.4,1.4,0,2c-0.5,0.6-1.3,1-2.1,0.9c-0.9,0-1.8-0.2-2.6-0.6l0.1,1.1c0.8,0.1,1.7,0.2,2.5,0.2c0.9,0,1.8-0.2,2.6-0.6
			c0.6-0.5,1-1.3,1.1-2.1C286.2,76.7,285.5,75.7,284.5,75.2"/>
		<path class="st0" d="M263.7,79.6V75h3.3c0.2,0,0.4,0,0.5,0.1v-0.9h-3.8v-3.4h3.4c0.2,0,0.4,0.1,0.5,0.2v-1.1h-5.3
			c0.1,0.2,0.2,0.5,0.2,0.8v9c0,0,0,0.2-0.2,0.7h5.7l0.2-1c-0.3,0.1-0.7,0.2-1,0.2L263.7,79.6"/>
		<path class="st0" d="M230,69.8h-1.4c0.1,0.1,0.2,0.5,0.2,0.5v6.3c0,1.6-1.3,2.9-2.9,2.9s-2.9-1.3-2.9-2.9v-0.1v-6.7h-1.1v6.9
			c0,2.2,1.8,4,4,4s4-1.8,4-4l0,0v-6.4C229.9,70.2,230,70,230,69.8"/>
		<path class="st0" d="M242,70.6V78l-7.3-8.1h-1.2c0.2,0.2,0.2,0.5,0.2,0.8v8.9c0,0.3-0.1,0.5-0.1,0.7h1.2c-0.1-0.2-0.1-0.5-0.1-0.8
			v-8.2l8.2,8.9v-9.7c0-0.2,0.1-0.5,0.1-0.7h-1.1C242,70.1,242,70.6,242,70.6"/>
		<path class="st0" d="M292.5,69.9L292.5,69.9l-0.3,0.9c0.2-0.1,0.4-0.1,0.6-0.1h2.8v9.1c0,0.2,0,0.4-0.1,0.6h1.5
			c-0.1-0.2-0.1-0.4-0.2-0.6v-9h2.3c0.4,0,0.8,0.1,1.2,0.2l-0.2-1L292.5,69.9"/>
		<path class="st0" d="M290.1,69.8h-1.5c0.1,0.2,0.2,0.4,0.2,0.6v9.2c0,0.3-0.1,0.5-0.2,0.7h1.4c-0.1-0.2-0.2-0.5-0.2-0.8v-9.2
			C290,70.2,290,70,290.1,69.8"/>
		<path class="st0" d="M248.1,69.8h-1.4c0.1,0.2,0.2,0.4,0.2,0.6v9.2c0,0.3-0.1,0.5-0.2,0.7h1.4c-0.1-0.2-0.2-0.5-0.2-0.8v-9.2
			C248,70.2,248,70,248.1,69.8"/>
		<path class="st0" d="M258.9,70.6l-3.6,7.9l-3.6-7.9c-0.3-0.5-0.1-0.7-0.1-0.7h-1.5c0.3,0.5,0.6,1,0.8,1.6l4.4,9.2l4.5-9.8
			c0.2-0.4,0.4-0.7,0.7-1H259C259.1,69.9,259.3,70.1,258.9,70.6"/>
		<path class="st0" d="M277.2,78.7l-3.3-3.8c0.7-0.1,1.4-0.4,2-0.9c0.5-0.5,0.7-1.1,0.8-1.8c0-0.6-0.3-1.2-0.8-1.6
			c-0.6-0.5-1.3-0.8-2.1-0.8c-1,0-1.9,0-2.9,0.1c0.1,0.1,0.2,0.3,0.2,0.5v9.4c0,0.2,0,0.3-0.1,0.5h1.4c-0.1-0.1-0.1-0.3-0.1-0.5
			v-5.3l0,0V71v-0.1c0,0,0-0.3,1-0.3c0.5,0,1.1,0.2,1.5,0.5s0.6,0.7,0.6,1.2c0,0,0,1.1-0.5,1.5c-0.8,0.6-1.7,0.8-2.6,0.7l4.7,5.8
			h1.6C278.3,80,277.2,78.7,277.2,78.7"/>
		<path class="st0" d="M308.1,70.3l-2.3,3.8l-2.4-3.8c-0.1-0.1-0.1-0.3-0.1-0.5h-1.7c0.2,0.2,0.5,0.5,0.6,0.8l2.8,4.3v4.8
			c0,0.2,0,0.4-0.1,0.6h1.5c-0.1-0.2-0.1-0.3-0.2-0.5V75l2.5-3.9c0.8-1.3,0.8-1.2,0.8-1.2h-1.4C308.3,70,308.2,70.1,308.1,70.3"/>
	</g>
	<g>
		<path class="st0" d="M0,0v59.8c1.3,33.5,33.5,32.3,33.5,32.3c32.1-0.2,32.3-32.3,32.3-32.3V0H0z M51.2,33h-7.5v3.8h7.5v8h-7.5
			v25.7h-6.4l-9.1-9.1L20,69.6l-5.9-5.8l12.5-12.4l1.2-1.2l7.3,7.3V21.8h-15v-7.2h23.5v10.7h7.6V33z"/>
	</g>
	<g>
		<path class="st0" d="M116.6,41.7c0,2,1.3,2.9,4,2.9s4-1,4-2.9v-10c-2.8-0.2-5.5-0.8-8-1.8V41.7z"/>
		<path class="st0" d="M102.5,16.7c-0.8-0.2-1.6-0.3-2.6-0.3c-1.7,0-3.2,0.3-4.4,0.8c-1.2,0.6-2.2,1.3-2.9,2.4v-2.2
			c0-0.4-0.1-0.6-0.3-0.7c-0.2-0.1-0.5-0.1-0.9,0c-1.2,0.3-2.4,0.7-3.8,1s-2.8,0.6-4.3,0.9c-0.5,0.1-0.8,0.3-1.1,0.7
			s-0.3,0.8-0.3,1.3c0.1,0.6,0.3,1,0.6,1.2s0.7,0.4,1.2,0.4c0.6,0,0.9,0.1,1.2,0.3s0.3,0.6,0.3,1.3v18c0,2,1.3,2.9,4,2.9s4-1,4-2.9
			V23.2c0.3-0.6,0.9-1.1,1.7-1.6s1.7-0.7,2.7-0.7c1.2,0,2.1,0.3,2.7,1s0.9,1.7,0.9,3.1v16.6c0,2,1.3,2.9,3.8,2.9s3.8-1,3.8-2.9V25
			C106.1,22.7,104,19.9,102.5,16.7z"/>
		<path class="st0" d="M158.8,17.4h-7.6c-1.1,0-1.6,0.6-1.6,1.8c0,0.6,0.3,1.2,0.9,1.7c0.4,0.3,0.7,0.8,0.8,1.3s0.1,1-0.2,1.6
			l-4.6,10.8l-3.7-8.7c-2.1,1.7-4.4,3.1-7,4.1l6.4,14.5l-0.1,0.4c-0.4,0.8-0.8,1.7-1.3,2.7s-0.9,1.9-1.4,2.7
			c-0.2,0.4-0.4,0.7-0.6,0.8c-0.2,0.2-0.4,0.3-0.7,0.3c-0.5,0-0.9-0.3-1.3-0.8c-0.4-0.6-0.9-1-1.5-1.3s-1.2-0.4-2.1-0.4
			c-1,0-1.9,0.4-2.6,1.1c-0.7,0.7-1.1,1.8-1.1,3.2s0.5,2.4,1.4,3.2s2.1,1.1,3.4,1.1c1.3,0,2.4-0.2,3.4-0.7c1-0.4,1.9-1.1,2.7-1.9
			c0.6-0.6,1.1-1.2,1.6-1.9s1-1.4,1.4-2.2c0.5-0.8,0.9-1.6,1.4-2.6s0.9-1.8,1.2-2.5l10.4-22.9c0.2-0.4,0.5-0.8,0.8-1
			s0.8-0.4,1.5-0.4c1.1,0,1.6-0.7,1.6-2S159.8,17.4,158.8,17.4z"/>
		<path class="st0" d="M174.7,37.1V6.6c0-0.7-0.3-1-1-1h-9.9c-0.4,0-0.7,0.1-1,0.4s-0.5,0.8-0.5,1.4c-0.2,1.3,0.2,2,1.1,2.2
			c1,0.2,1.7,0.5,2.1,0.9s0.5,1.1,0.5,2.1v26c0,1.7,0.5,3,1.5,3.9s2.4,1.3,4.2,1.3h1c0.3-2.3,0.9-4.5,1.9-6.5
			C174.7,37.3,174.7,37.2,174.7,37.1z"/>
		<path class="st0" d="M215.7,43.6c1.9-0.9,3.4-2,4.6-3.3c0.4-0.4,0.5-0.9,0.5-1.4s-0.2-0.9-0.7-1.3c-0.5-0.4-0.9-0.7-1.4-0.7
			s-0.9,0.2-1.4,0.7c-0.8,0.9-1.9,1.6-3.1,2.2c-1.1,0.5-2.1,0.8-3.3,0.8c0.4,1.3,0.6,2.7,0.7,4.1C213.2,44.5,214.5,44.2,215.7,43.6z
			"/>
		<path class="st0" d="M218,20.2c-1.1-1.2-2.5-2.1-4.1-2.8s-3.4-1-5.4-1s-3.9,0.3-5.6,1.1c-1.7,0.7-3.1,1.7-4.3,2.9
			s-2.1,2.8-2.8,4.5c-0.2,0.6-0.4,1.3-0.6,1.9c4.4,0.7,8.3,2.8,11.2,6h12.1c1.1,0,1.8-0.2,2.3-0.7c0.4-0.4,0.7-1.1,0.7-2
			c0-2.1-0.3-3.9-0.9-5.6C220,22.8,219.2,21.3,218,20.2z M203.4,28.7c0.2-2.5,0.7-4.5,1.5-5.9s2-2.1,3.5-2.1s2.6,0.7,3.4,2.1
			s1.2,3.4,1.2,5.9H203.4z"/>
		<path class="st0" d="M251.1,40c-1,0-1.6-1-1.6-3.1V27c0-1.5-0.2-2.8-0.5-4.1c-0.4-1.3-1-2.4-1.9-3.4c-1.1-1.1-2.4-1.8-3.9-2.3
			s-3.2-0.7-5.1-0.7c-1.3,0-2.5,0.1-3.7,0.4s-2.2,0.7-3.2,1.2s-1.7,1.1-2.4,1.8s-1.1,1.4-1.4,2.1c-0.5,1.2-0.4,2.3,0.1,3.2
			s1.4,1.5,2.5,1.8s2.2,0.2,3.1-0.3s1.4-1.2,1.6-2.2c0.1-0.3,0.1-0.5,0-0.7s-0.1-0.4-0.2-0.6c-0.1-0.2-0.1-0.4-0.2-0.6
			c-0.1-0.2-0.1-0.4,0-0.7c0.1-0.4,0.3-0.7,0.8-0.9s1.1-0.4,2-0.4c1.2,0,2.2,0.4,3.1,1.2c0.9,0.8,1.3,1.9,1.3,3.3V27
			c-1.1,0.2-2.2,0.4-3.4,0.7c-1.2,0.3-2.3,0.6-3.2,0.8c-6,1.8-9,5-9,9.5c0,4.6,2.9,6.9,8.6,6.9c2.1,0,3.9-0.4,5.4-1.2
			s2.6-1.9,3.3-3.3c0.3,1.1,0.8,2.1,1.7,2.9c0.9,0.8,2,1.3,3.4,1.3c0.7,0,1.3-0.1,1.9-0.2c0.6-0.1,1.1-0.3,1.5-0.5s0.7-0.5,0.9-0.9
			s0.3-0.9,0.2-1.5s-0.3-1-0.6-1.3S251.6,40,251.1,40z M241.4,36.5c0,1.2-0.4,2.2-1.3,2.9c-0.8,0.7-1.9,1.1-3.1,1.1
			c-1,0-1.8-0.3-2.4-0.9s-0.9-1.4-0.9-2.5s0.3-2,0.9-2.9c0.6-0.9,1.6-1.5,2.8-2c0.6-0.3,1.3-0.5,2-0.7s1.4-0.3,1.9-0.4v5.4
			C241.3,36.5,241.4,36.5,241.4,36.5z"/>
		<path class="st0" d="M260,17.7c-1.4,0.3-2.9,0.6-4.4,0.8c-0.5,0.1-0.8,0.3-1.1,0.7s-0.3,0.8-0.3,1.3c0.1,0.6,0.3,1,0.6,1.2
			s0.7,0.4,1.2,0.4c0.6,0,1,0.1,1.1,0.3s0.3,0.6,0.3,1.3v18c0,2,1.4,2.9,4.1,2.9s4.1-1,4.1-2.9V30.6c-3.2-3.4-5.1-8-5.1-13
			C260.4,17.6,260.2,17.7,260,17.7z"/>
		<path class="st0" d="M307.6,21.7c-0.5-1.2-1.3-2.1-2.3-2.9s-2-1.4-3.3-1.8c-0.8-0.3-1.6-0.4-2.5-0.5c0,0.3,0,0.6,0,0.9
			c0,1.6-0.2,3.1-0.6,4.6c0,0.1,0.1,0.1,0.2,0.1c0.8,0.8,1.1,1.8,1.1,3.1v16.5c0,2,1.4,2.9,4,2.9c2.7,0,4-1,4-2.9V25.8
			C308.5,24.2,308.2,22.8,307.6,21.7z"/>
		<path class="st0" d="M283.4,41.7c0,2,1.4,2.9,4,2.9c2.7,0,4-1,4-2.9v-8.4c-2.4,1.7-5.1,2.9-8.1,3.4L283.4,41.7L283.4,41.7z"/>
		<path class="st0" d="M122,18.6c-1.7-1.4-4.1-2.2-6.9-2.2c-1.9,0-3.6,0.3-4.9,0.9s-2.4,1.5-3.1,2.7c-0.6-1.1-1.5-2-2.8-2.7
			c-0.5-0.3-1.1-0.5-1.8-0.7c1.5,3.2,3.6,5.9,6.1,8.3v-1.8c0.3-0.6,0.9-1.1,1.7-1.6c0.8-0.5,1.7-0.7,2.7-0.7c1.2,0,2.1,0.3,2.7,1
			s0.9,1.7,0.9,3.1V30c2.5,1,5.2,1.6,8,1.8v-6.4C124.6,22.3,123.7,20.1,122,18.6z"/>
		<path class="st0" d="M141.9,23.7c-0.3-0.6-0.3-1.1,0-1.6s0.7-0.8,1.2-1.1c0.5-0.2,0.9-0.5,1.1-0.8s0.3-0.7,0.3-1.1
			c0-0.5-0.1-1-0.4-1.3s-0.7-0.5-1.2-0.5h-12.6c-1.1,0-1.6,0.7-1.6,2s0.5,2,1.6,2c0.7,0,1.3,0.1,1.6,0.3c0.4,0.2,0.6,0.6,0.8,1.1
			l3.2,7.2c2.6-1,4.9-2.4,7-4.1L141.9,23.7z"/>
		<path class="st0" d="M192.2,41.5c0-1.6-0.5-2.4-1.6-2.4h-13.4c-1.6,0-2.4-0.6-2.5-1.7c-1,2-1.7,4.2-1.9,6.5h17.8
			C191.6,43.9,192.2,43.1,192.2,41.5z"/>
		<path class="st0" d="M195.3,26.8c-0.3,1.2-0.4,2.5-0.4,3.9c0,2.1,0.3,4,1,5.8s1.6,3.3,2.8,4.5s2.7,2.2,4.4,2.9s3.6,1.1,5.7,1.1
			c1,0,2-0.1,2.9-0.2c-0.1-1.4-0.3-2.8-0.7-4.1c-0.3,0-0.5,0-0.8,0c-0.9,0-1.7-0.1-2.4-0.4s-1.4-0.7-2.1-1.3s-1.1-1.4-1.5-2.4
			s-0.6-2.3-0.8-3.8h3C203.6,29.7,199.6,27.5,195.3,26.8z"/>
		<path class="st0" d="M267.3,24.8c0.7-0.8,1.4-1.5,2.1-2c0.4-0.3,0.7-0.4,0.9-0.3c0.2,0.1,0.5,0.3,0.7,0.6c0.5,0.6,1.1,1.1,1.7,1.4
			s1.3,0.4,2,0.4c0.9-0.1,1.7-0.5,2.4-1.2s1.1-1.7,1.1-3.1c0-1.3-0.4-2.3-1.2-3.1c-0.8-0.8-1.9-1.2-3.3-1.2c-2,0-3.6,0.6-5,1.8
			c-0.7,0.6-1.4,1.4-2,2.4c-0.6,0.9-1.2,1.9-1.6,2.9v-5.9c0-0.4-0.1-0.6-0.3-0.7c-0.2-0.1-0.5-0.1-0.9,0c-1.1,0.3-2.3,0.6-3.5,0.9
			c0,5,2,9.6,5.1,13v-3.2C266.1,26.6,266.6,25.7,267.3,24.8z"/>
		<path class="st0" d="M299.6,16.5c-0.5-0.1-1-0.1-1.5-0.1c-1.6,0-3,0.3-4.2,0.8s-2.2,1.2-3,2.2v-1.9c0-0.4-0.1-0.6-0.3-0.7
			c-0.2-0.1-0.5-0.1-0.9,0c-1.3,0.4-2.6,0.7-4,1s-2.8,0.6-4.3,0.8c-0.5,0.1-0.8,0.3-1.1,0.7s-0.3,0.8-0.3,1.3c0.1,0.6,0.3,1,0.6,1.2
			c0.3,0.3,0.7,0.4,1.2,0.4c0.6,0,1,0.1,1.1,0.3s0.3,0.6,0.3,1.3v12.9c3-0.5,5.7-1.7,8.1-3.4V23.2c0.5-0.7,1.2-1.2,2-1.6
			s1.7-0.6,2.6-0.6c1.2,0,2.2,0.3,3,1c0.4-1.5,0.6-3,0.6-4.6C299.6,17.1,299.6,16.8,299.6,16.5z"/>
	</g>
</g>
</svg>
