<?xml version="1.0" encoding="utf-8"?>
<!-- Generator: Adobe Illustrator 24.0.0, SVG Export Plug-In . SVG Version: 6.00 Build 0)  -->
<svg version="1.1" id="Layer_1" xmlns="http://www.w3.org/2000/svg" xmlns:xlink="http://www.w3.org/1999/xlink" x="0px" y="0px"
	 viewBox="0 0 267.1 48.9" style="enable-background:new 0 0 267.1 48.9;" xml:space="preserve">
<style type="text/css">
	.st0{fill:#C51065;}
	.st1{fill:#666766;}
</style>
<title>postech_logo_admin</title>
<g id="Layer_1_1_">
	<path class="st0" d="M181.8,8.9h-7l-1.3,4.7h14.1c4.7,0,7.5-3.3,8.5-7S195.3,0,190.7,0h-28.1l-5,18.5c-0.5,1.4,0.2,3,1.6,3.5
		c0.3,0.1,0.7,0.2,1.1,0.2h27.9l1.3-4.7h-19.9c-0.2,0-0.5-0.2-0.5-0.4c0-0.1,0-0.1,0-0.2l3.3-12.1h11.4c0.8,0,1.4,0.6,1.4,1.4
		c0,0.2,0,0.4-0.1,0.5C184.7,8.1,183.3,9,181.8,8.9z"/>
	<path class="st0" d="M209.6,5.3c0.1-0.3,0.4-0.6,0.8-0.6h19.4L231,0h-31l-4.9,18.3c-0.5,1.5,0.3,3.2,1.8,3.7
		c0.4,0.1,0.7,0.2,1.1,0.1h27.1l1.3-4.7h-19c-0.4,0-0.8-0.3-0.8-0.7c0-0.1,0-0.2,0.1-0.3L209.6,5.3z"/>
	<polygon class="st0" points="256.1,0 254,8 243.1,8 245.2,0 234.2,0 228.3,22.1 239.3,22.1 241.8,12.7 252.7,12.7 250.2,22.1 
		261.2,22.1 267.1,0 	"/>
	<path class="st0" d="M43.7,1.1c-1.3-0.8-2.8-1.2-4.3-1.1H11.6L5.6,22.1h11l4.7-17.4h10.5c2,0,2.5,1.3,2.1,2.9
		c-0.5,1.6-2,2.8-3.7,2.9h-7.1l-1.3,4.7h13.4c4.6,0,8.5-3.2,9.6-7.6C45.7,4.8,45.5,2.4,43.7,1.1z"/>
	<path class="st0" d="M79.6,0H55.3c-3.5-0.2-6.7,2.1-7.5,5.6L45,16.3c-0.9,3.3,1.1,5.9,4.3,5.9h24.3c4.4,0,6.7-2.7,7.5-5.9l2.8-10.3
		C84.8,2.7,83.9,0,79.6,0z M72.8,6.7l-2.4,8.8c-0.3,1.1-1.3,1.9-2.5,2H57.6c-0.8,0-1.5-0.6-1.5-1.4c0-0.2,0-0.4,0.1-0.6l2.4-8.8
		c0.3-1.1,1.3-1.9,2.5-2h10.3C72.8,4.7,73,5.6,72.8,6.7z"/>
	<polygon class="st0" points="159.9,0 123.9,0 122.7,4.7 135.4,4.7 130.7,22.2 141.9,22.2 146.6,4.7 158.6,4.7 	"/>
	<path class="st0" d="M86.4,6.6c-1,3.6,1.2,6.6,4.8,6.6h15c0.9,0,1.6,0.6,1.7,1.5c0,0.2,0,0.4-0.1,0.6c-0.3,1.3-1.4,2.2-2.7,2.1
		H84.7l-1.3,4.7h26.7c5,0,7.7-3.1,8.7-6.8s0-6.8-5-6.8h-15c-0.8,0-1.4-0.6-1.5-1.4c0-0.2,0-0.4,0.1-0.6l0.5-1.9h22.3l1.3-4.7H88.2
		L86.4,6.6z"/>
	<path class="st1" d="M15.9,45.1L15.2,47H0l0.7-1.9H7l1.1-3H3l0.7-1.9h2.2l1.7-4.8H5.4l0.7-1.9h12.8l-0.7,1.9h-2.3l-1.7,4.8h2.2
		l-0.7,1.9h-5.1l-1.1,3L15.9,45.1z M8.3,40.2h3.4l1.7-4.8H10L8.3,40.2z"/>
	<path class="st1" d="M33.6,44.9l-0.7,2H17.7l0.7-2H33.6z M33.1,42c-2.7-0.6-4.3-2.2-4.6-4.3c-2,2.3-4.7,3.8-7.7,4.3l-0.3-2
		c4-0.7,7.1-3.3,8-5.7l0.5-1.2h2.6l-0.4,1.2c-0.9,2.5,0.2,5.1,3.8,5.7L33.1,42z"/>
	<path class="st1" d="M39.5,43.3c1.6,0,3.1-0.1,4.7-0.3l-0.5,1.9c-2,0.3-4,0.4-6,0.3h-1.2L40.6,34h6.2l-0.7,1.9h-3.9l-1,2.6h3.3
		l-0.7,1.9h-3.3L39.5,43.3z M49.3,32.4h2.2l-5.7,15.7h-2.3l2.9-8h-1.8l0.7-2h1.8L49.3,32.4z M55.2,32.1l-6.1,16.8h-2.3l6.1-16.8
		H55.2z"/>
	<path class="st1" d="M67,33.7c-1.9,5.2-4.9,9.6-12.3,12.7L54,44.5c2.7-1,5.2-2.7,7.2-4.8l-5.2,0.5l0.4-2l6.2-0.3
		c0.4-0.7,0.8-1.5,1.2-2.2h-5.6l0.7-1.9H67z M72.5,32.1l-6.2,16.8h-2.4L70,32.1L72.5,32.1z"/>
	<path class="st1" d="M77.3,41.7c-2.6,0-3.9-1.8-3-4.3c1-2.5,3.4-4.2,6.1-4.3c2.6,0,3.9,1.8,3,4.3C82.4,40,80,41.6,77.3,41.7z
		 M75.6,46.7h9l-0.7,1.9H72.5l2-5.5h2.4L75.6,46.7z M78.1,39.7c1.4,0,2.6-0.9,3-2.2c0.5-1.4-0.2-2.2-1.4-2.2c-1.4,0-2.6,0.9-3,2.2
		C76.2,38.8,76.8,39.6,78.1,39.7L78.1,39.7z M89.8,37l-0.7,2h-2.2l-2,5.4h-2.4L87,32.2h2.4L87.6,37L89.8,37z"/>
	<path class="st1" d="M100.9,41.2c-3.5,0.5-7,0.7-10.5,0.7l0.4-1.6c1.2,0,2.6,0,4,0l0.3-0.8c-1.7-0.2-2.5-1-2.1-2.1
		c0.5-1.4,2.4-2.2,4.9-2.2s3.8,0.8,3.3,2.2c-0.4,1.2-1.8,1.9-3.7,2.1l-0.2,0.7c1.4-0.1,2.8-0.2,4.1-0.3L100.9,41.2z M102.6,34.8
		h-9.5l0.6-1.6h3.6l0.4-1.2h2.4l-0.4,1.2h3.6L102.6,34.8z M92.8,47.2h9.5l-0.6,1.6H89.8l1.4-3.9h8.9l0.3-0.7h-8.9l0.6-1.6h11.3
		l-1.4,3.8H93L92.8,47.2z M96.7,38c1.2,0,1.9-0.3,2.1-0.8s-0.4-0.7-1.6-0.7s-1.9,0.2-2.1,0.7S95.5,38,96.7,38z M107.8,36l-0.7,2H105
		l-1.4,4h-2.5l3.6-9.9h2.4l-1.4,4L107.8,36z"/>
	<path class="st1" d="M123.8,40l-0.7,1.9H108l0.7-1.9h6.4l0.5-1.4H111l2.1-5.8h11.5l-0.7,1.9h-9.1l-0.7,2h9.2l-0.7,1.9h-4.7
		l-0.5,1.4H123.8z M119.9,45.8c-0.7,2-3.3,3.1-7,3.1s-5.4-1.1-4.7-3.1s3.3-3.1,7-3.1S120.6,43.9,119.9,45.8z M117.4,45.8
		c0.3-0.9-0.7-1.3-2.9-1.3s-3.5,0.4-3.8,1.3s0.7,1.3,2.9,1.3S117.1,46.7,117.4,45.8z"/>
	<path class="st1" d="M147.2,40.8l-0.7,1.9h-15.2l0.7-1.9h6.4l0.4-1h-4.5l2.6-7.2h11.6l-0.7,1.8h-9.2l-0.3,0.9h8.8l-0.6,1.8h-8.8
		l-0.3,0.9h9.3l-0.6,1.7h-4.8l-0.4,1L147.2,40.8z M143.5,46.2c-0.6,1.8-3.1,2.8-6.8,2.8s-5.5-1-4.8-2.8s3.1-2.8,6.8-2.8
		S144.1,44.3,143.5,46.2z M141.1,46.2c0.3-0.7-0.7-1-3.1-1s-3.5,0.3-3.8,1s0.7,1,3,1S140.8,46.8,141.1,46.2L141.1,46.2z"/>
	<path class="st1" d="M161.6,35.5h-9.9l0.7-1.9h3.7l0.6-1.6h2.4l-0.6,1.6h3.8L161.6,35.5z M154.3,41.9c-2.4,0-3.7-1.2-3-3
		s2.8-3,5.2-3s3.7,1.2,3,3S156.7,41.9,154.3,41.9z M159.9,42.6h2.4l-2.3,6.1h-10.9l2.2-6.2h2.4l-0.5,1.3h6.1L159.9,42.6z
		 M154.9,40.1c0.9,0.1,1.8-0.4,2.3-1.2c0.3-0.8-0.3-1.2-1.4-1.2c-0.9-0.1-1.8,0.4-2.3,1.2C153.3,39.7,153.8,40.1,154.9,40.1
		L154.9,40.1z M158.8,45.7h-6.1l-0.4,1.2h6.1L158.8,45.7z M166.1,38.1h-2.2l-1.4,3.8h-2.4l3.6-9.8h2.4l-1.5,4h2.2L166.1,38.1z"/>
	<path class="st1" d="M177.3,41.7c-3.5,0.5-7,0.8-10.5,0.7l0.5-1.9h3.1l1.2-3.3h2.4l-1.2,3.2c1.7-0.1,3.4-0.2,5.1-0.4L177.3,41.7z
		 M174.7,39c0.7-1.2,1.2-2.5,1.7-3.8h-6.3l0.7-1.9h8.6l-0.4,1c-0.6,1.7-1.3,3.4-2.2,4.9L174.7,39z M169.9,46.7h9.3l-0.7,1.9h-11.7
		l1.8-5h2.4L169.9,46.7z M184.1,37.2l-0.7,2h-2l-2,5.5H177l4.6-12.6h2.4l-1.9,5.1L184.1,37.2z"/>
	<path class="st1" d="M187.6,43.1c2.4,0,4.8-0.2,7.2-0.5l-0.4,2c-2.8,0.4-5.6,0.6-8.5,0.6h-1.5l2.5-6.9h5.4l1-2.7h-5.5l0.7-1.9h7.9
		l-2.4,6.5h-5.5L187.6,43.1z M202.2,32.1l-6.1,16.8h-2.4l6.1-16.8H202.2z"/>
	<path class="st1" d="M217.1,35.9c-1.1,3.1-0.9,6.2,1.5,7.4l-2.1,2c-1.6-0.9-2.3-2.5-2.3-4.6c-1.5,2.2-3.5,3.9-5.9,5l-0.7-2
		c3.4-1.3,6-4.5,7.1-7.8l0.9-2.5h2.5L217.1,35.9z M225.9,32.1L219.7,49h-2.4l6.1-16.8L225.9,32.1z"/>
	<path class="st1" d="M240.2,44.9l-0.7,2h-15.2l0.7-2H240.2z M239.7,42c-2.7-0.6-4.3-2.2-4.6-4.3c-2,2.3-4.7,3.8-7.7,4.3l-0.3-2
		c4-0.7,7.1-3.3,7.9-5.7l0.4-1.2h2.6l-0.4,1.2c-0.9,2.5,0.2,5.1,3.8,5.7L239.7,42z"/>
	<path class="st1" d="M251.8,41.1c-2,0.3-4.1,0.4-6.1,0.4h-1.1l3-8.4h6.3l-0.7,1.9h-4l-0.5,1.3h3.4l-0.7,1.8H248l-0.5,1.4
		c1.6,0,3.2-0.1,4.7-0.4L251.8,41.1z M246.4,42.8h11.4l-2.1,5.9h-11.4L246.4,42.8z M247.3,46.8h6.7l0.8-2.2H248L247.3,46.8z
		 M253.9,38h-1.6l0.7-1.9h1.6l1.4-3.8h2.3l-3.5,9.7h-2.3L253.9,38z M261.6,32.1l-3.6,10h-2.3l3.6-10H261.6z"/>
</g>
</svg>
