<svg id="Layer_1" data-name="Layer 1" xmlns="http://www.w3.org/2000/svg" viewBox="0 0 302.44 66.61"><defs><style>.cls-1{opacity:0.5;}.cls-2{fill:#666;}.cls-3{fill:#121212;}</style></defs><title>footer_logo</title><g class="cls-1"><path class="cls-2" d="M114.06,11.34v8.42h-3.88V11.34h-6.75V29.61H89.81a.85.85,0,0,1-.84-.84V15h11.35v-3.7H82.23V28.78h0c0,.15,0,.3,0,.45a4.12,4.12,0,0,0,4.11,4.12c.16,0,.31,0,.47,0h16.58v10h6.81V23.82h3.88V43.35h6.81v-32Z"/><path class="cls-2" d="M201.83,11.34v8.42H198V11.34H191.2V29.61H177.58a.85.85,0,0,1-.85-.84V15h11.35v-3.7H170V28.78h0a3.4,3.4,0,0,0,0,.45,4.12,4.12,0,0,0,4.11,4.12c.16,0,.32,0,.47,0h16.59v10H198V23.82h3.88V43.35h6.81v-32Z"/><path class="cls-2" d="M297.79,35.3V15.64a4.1,4.1,0,0,0-3.87-4.09V11.5h-30.4v3.67h26.66A.84.84,0,0,1,291,16h0V35.3H286v-11h-6.75v11h-4.71v-11h-6.75v11h-6.93V39h41.6V35.3Z"/><path class="cls-2" d="M253.82,33.78a4.12,4.12,0,0,0-3.86-4.1v0H219.5v3.67h26.72a.84.84,0,0,1,.84.84h0v9.27h6.75V33.79"/><polygon class="cls-2" points="258.24 18.53 253.63 18.53 253.63 11.31 246.88 11.31 246.88 28.44 253.63 28.44 253.63 22.24 258.24 22.24 258.24 18.53"/><path class="cls-2" d="M236.87,15h5.74V11.31H231.5V8.45h-6.75v2.86H213.62V15h6.76"/><path class="cls-2" d="M228.19,11.78c-7.56,0-13.69,3.68-13.69,8.22s6.13,8.22,13.69,8.22,13.68-3.68,13.68-8.22S235.75,11.78,228.19,11.78Zm0,12.45c-3.67,0-6.65-1.9-6.65-4.23s3-4.22,6.65-4.22,6.64,1.89,6.64,4.22S231.86,24.23,228.19,24.23Z"/><path class="cls-2" d="M157.27,11.24v27H137.36a.84.84,0,0,1-.85-.84h0v-7.9h-6.75v8.26h0a4.12,4.12,0,0,0,3.87,4.1v0h23.65v0H164V11.24Z"/><polyline class="cls-2" points="142.78 14.92 151.28 14.92 151.28 11.22 126.73 11.22 126.73 14.92 135.19 14.92"/><path class="cls-2" d="M135.2,14.14c-.7,4.47-5.24,8-9.71,8.66l0,4.72c7.68,0,15-5.86,15.69-13.35"/><path class="cls-2" d="M142.62,14.14c.69,4.47,5.24,8,9.71,8.66l0,4.72c-7.68,0-15-5.86-15.69-13.35"/></g><g class="cls-1"><path class="cls-2" d="M84.2,51.67h2.08c.92,0,2.38.19,2.38,2.64,0,1.37-.59,2.79-2.35,2.79H84.2Zm-2.12,6.86h4.49a4,4,0,0,0,4.31-4.34c0-1.57-.73-3.95-4.22-3.95H82.08Z"/><path class="cls-2" d="M100.86,52.11h0l1.29,3.28H99.53ZM99,56.82h3.82l.67,1.71h2.35l-3.65-8.29h-2.5L96,58.53h2.29Z"/><path class="cls-2" d="M119.64,51.71h-5.5v1.74h5v1.47h-5v2.14h5.74v1.47H112V50.24h7.62Z"/><path class="cls-2" d="M132.38,56.13c0,1.75-1.14,2.6-3.22,2.6-3.45,0-3.45-1.74-3.45-3.33h2c0,1.31.12,1.94,1.27,1.94s1.22-.57,1.22-1.21V50.24h2.16Z"/><path class="cls-2" d="M141.33,58.53h-2.17V50.24h2.17Z"/><path class="cls-2" d="M154.51,50.24h2v8.29h-2.17l-4.23-5.91h0v5.91h-2V50.24h2.28L154.49,56h0Z"/><path class="cls-2" d="M178.77,55.62c0,2.18-1.65,3.11-4.26,3.11a5.12,5.12,0,0,1-3.29-1,2.67,2.67,0,0,1-.81-2V50.24h2.22v5.37a1.62,1.62,0,0,0,1.84,1.66c1.48,0,2.09-.58,2.09-1.58V50.24h2.21Z"/><path class="cls-2" d="M192.06,50.24h2v8.29h-2.17l-4.23-5.91h0v5.91h-2V50.24h2.28L192,56h0Z"/><path class="cls-2" d="M203,58.53h-2.16V50.24H203Z"/><path class="cls-2" d="M215.84,50.24h2.25l-3.52,8.29H212.5L209,50.24h2.32l2.23,6.28h0Z"/><path class="cls-2" d="M231.9,51.71h-5.5v1.74h5v1.47h-5v2.14h5.75v1.47h-7.87V50.24h7.62Z"/><path class="cls-2" d="M240.86,53.89V51.67h2.71c1.28,0,1.52.64,1.52,1.08,0,.82-.55,1.14-1.68,1.14Zm-2.12,4.64h2.12V55.28h2.24c1.6,0,1.69.44,1.69,1.57a4.67,4.67,0,0,0,.23,1.68h2.39V58.3c-.46-.14-.46-.44-.46-1.65,0-1.55-.46-1.8-1.31-2.1a2,2,0,0,0,1.61-2c0-.72-.5-2.34-3.26-2.34h-5.25Z"/><path class="cls-2" d="M255.55,56c0,.46.3,1.34,2.19,1.34,1,0,2.16-.2,2.16-1.07,0-.65-.78-.82-1.87-1L256.92,55c-1.68-.31-3.3-.61-3.3-2.42,0-.92.62-2.55,4-2.55,3.18,0,4,1.66,4.05,2.67h-2.08c-.06-.36-.23-1.24-2.13-1.24-.82,0-1.8.24-1.8,1s.66.78,1.09.86l2.52.5c1.42.27,2.72.73,2.72,2.22,0,2.49-3.18,2.7-4.08,2.7-3.78,0-4.43-1.73-4.43-2.76Z"/><path class="cls-2" d="M270.45,58.53h-2.16V50.24h2.16Z"/><path class="cls-2" d="M281.72,58.53h-2.16V51.71h-3.14V50.24h8.43v1.47h-3.13Z"/><path class="cls-2" d="M295.82,58.53h-2.16V55.4l-3.58-5.16h2.55l2.15,3.6,2.05-3.6h2.45l-3.46,5.18Z"/></g><g class="cls-1"><path class="cls-3" d="M58,26.46l.05-.26c-3-.23-6.3-2.68-6.3-2.68l.17,0,.13-.22L52,23.18s-6.28,1.23-18.82,1.23-18.83-1.23-18.83-1.23l-.08.09.13.22.17,0S11.26,26,8.29,26.2l.05.26-.53.09.2.33a35.86,35.86,0,0,0,6.3.35H52.06a35.86,35.86,0,0,0,6.3-.35l.2-.33Z"/><path class="cls-3" d="M33.19,28.09l-22.25,0a5.58,5.58,0,0,0,3,2.07H52.46a5.58,5.58,0,0,0,3-2.07Z"/><rect class="cls-3" x="13.51" y="30.98" width="39.29" height="1.26"/><rect class="cls-3" x="11.04" y="42.1" width="44.12" height="1.11"/><path class="cls-3" d="M16.39,40.26h-.14l0-.17a30.38,30.38,0,0,0,.1-7.15l0-.2H15l0,.19a30,30,0,0,0,0,7.15l0,.18h-.13l-.06.14a1.94,1.94,0,0,0,0,1.15l.05.17h1.58l.06-.14a1.55,1.55,0,0,0,0-1.2Z"/><path class="cls-3" d="M51.63,40.39l-.07-.13h-.12l0-.18a30,30,0,0,0,0-7.15l0-.19H50.07l0,.2a30.38,30.38,0,0,0,.1,7.15l0,.17H50l0,.16a1.72,1.72,0,0,0,0,1.17l.06.13h1.54l.06-.13A1.53,1.53,0,0,0,51.63,40.39Z"/><path class="cls-3" d="M20.46,33.41h-.73V41h.71c1.06,0,1.44-2.33,1.44-3.9C21.88,34.93,21.29,33.41,20.46,33.41Zm0,.69c.33.12.66,1.18.66,3.07s-.33,3.08-.66,3.15Z"/><path class="cls-3" d="M26.6,33.47l0-.1h-.85l0,.1-1,7.37,0,.13h.72l0-.1.27-1.94h.85l.25,1.94,0,.1h.74v-.13Zm-.46,1.88.36,3h-.74Z"/><polygon class="cls-3" points="31.45 40.23 31.45 37.4 32.22 37.4 32.33 37.4 32.33 37.28 32.33 36.9 32.33 36.79 32.22 36.79 31.45 36.79 31.45 34.06 32.34 34.06 32.46 34.06 32.46 33.95 32.46 33.47 32.46 33.35 32.34 33.35 30.83 33.35 30.71 33.35 30.71 33.47 30.71 40.83 30.71 40.94 30.83 40.94 32.37 40.94 32.49 40.94 32.49 40.83 32.49 40.35 32.49 40.23 32.37 40.23 31.45 40.23"/><path class="cls-3" d="M36.46,33.31h-.12v5.55c0,1-.16,1.49-.33,1.49s-.3-.42-.3-1.42V38.3H35v.84a2.4,2.4,0,0,0,.47,1.74.72.72,0,0,0,.58.22c.8,0,.91-.59,1-2.3V33.31h-.62Z"/><polygon class="cls-3" points="40.56 33.39 40.44 33.39 40.44 33.51 40.44 40.87 40.44 40.98 40.56 40.98 41.19 40.98 41.31 40.98 41.31 40.87 41.31 33.51 41.31 33.39 41.19 33.39 40.56 33.39"/><polygon class="cls-3" points="46.57 33.36 46.07 33.36 45.96 33.36 45.96 33.47 45.96 37.58 45.17 33.45 45.15 33.36 45.06 33.36 44.61 33.36 44.49 33.36 44.49 33.47 44.49 40.84 44.49 40.95 44.61 40.95 45.1 40.95 45.22 40.95 45.22 40.84 45.22 36.7 46.03 40.86 46.05 40.95 46.14 40.95 46.57 40.95 46.68 40.95 46.68 40.84 46.68 33.47 46.68 33.36 46.57 33.36"/><path class="cls-3" d="M1.88,40.74,1.6,39.41c-.13-.59-.2-1.55,1.37-1.88a1.57,1.57,0,0,1,2.1,1.13L5.35,40Zm4.67.43L6,38.3a2.64,2.64,0,0,0-3.36-2.17,2.45,2.45,0,0,0-2,3.23l.62,2.93Z"/><path class="cls-3" d="M1.26,31.22h0l2.19-.73-.09,1.73Zm3,1.41.14-2.49,1.14-.37.08-1.54L.09,30.32,0,32l5.28,2.7.08-1.48Z"/><path class="cls-3" d="M3.33,20.54,2.21,24l1.09.35,1-3.14.91.3-1,3.14,1.33.44,1.17-3.57.91.3L6,26.66.87,25l1.55-4.74Z"/><path class="cls-3" d="M9.19,16c1,.6,1.06,1.53.35,2.68-1.19,1.92-2.17,1.32-3,.77l.7-1.12c.72.45,1.12.6,1.51,0s.1-.87-.25-1.09l-3.28-2L5.92,14Z"/><path class="cls-3" d="M12.82,14.15l-.94,1.06L7.83,11.6l.94-1.06Z"/><path class="cls-3" d="M14.33,5.74,15.39,5l3.24,4.34-1.13.85L13,8.7h0l2.32,3.1-1.06.79L11,8.26l1.2-.9,4.41,1.42h0Z"/><path class="cls-3" d="M28.51,3.78C28.85,5.17,28,6,26.29,6.43A3.39,3.39,0,0,1,24,6.3a1.75,1.75,0,0,1-.82-1.15l-.86-3.49,1.4-.34.84,3.41A1.06,1.06,0,0,0,26,5.5c.95-.23,1.24-.69,1.09-1.33L26.27.7l1.4-.34Z"/><path class="cls-3" d="M35.35.14l1.32,0L36.48,5.6l-1.41,0-2.63-4h0l-.13,3.86L31,5.42,31.15,0l1.49.05L35.2,3.91h0Z"/><path class="cls-3" d="M39.85,6.4l-1.38-.32L39.72.8l1.37.33Z"/><path class="cls-3" d="M47.75,3.63l1.34.6-4.34,4-1.23-.56.17-5.88,1.38.63L44.7,6.75h0Z"/><path class="cls-3" d="M54.86,9.75,52.07,7.49l-.72.88,2.57,2.09-.61.74L50.75,9.12l-.89,1.09,2.92,2.36-.61.75-4-3.24L51.6,5.87,55.47,9Z"/><path class="cls-3" d="M56.72,14l1.17-.84,1,1.43c.49.67.24,1.05,0,1.21-.43.32-.81.15-1.24-.45Zm-3.28.66.82,1.12L56,14.55l.85,1.18c.62.85.42,1.07-.18,1.5a2.93,2.93,0,0,0-.8.76l.92,1.27.11-.08c-.1-.3.06-.41.7-.88.82-.59.78-.93.61-1.5a1.32,1.32,0,0,0,1.66.09c.38-.27,1-1.16,0-2.62l-2-2.78Z"/><path class="cls-3" d="M59.49,21.26c-.28.12-.75.5-.31,1.65.24.63.63,1.28,1.16,1.08s.32-.67.19-1.39l-.13-.73c-.2-1.09-.39-2.15.73-2.57.56-.22,1.7-.22,2.48,1.84s-.08,2.84-.7,3.09L62.43,23c.21-.12.71-.43.27-1.59-.19-.5-.57-1-1-.87s-.32.59-.27.87L61.68,23c.16.93.18,1.83-.73,2.18-1.52.58-2.39-1.31-2.61-1.87-.87-2.31,0-3.11.67-3.35Z"/><path class="cls-3" d="M59.94,28.92l-.24-1.39L65,26.6l.24,1.4Z"/><path class="cls-3" d="M60.2,33.94l0-1.42,4.46.06,0-2h1l-.08,5.51h-1l0-2Z"/><path class="cls-3" d="M59.11,40.62l.36-1.37,2,.52,3.86-1.4L64.88,40l-2.63.77,1.94,1.89-.41,1.55-2.7-3Z"/><path class="cls-3" d="M6.49,48.48a.68.68,0,0,0,.69-.68.69.69,0,0,0-.69-.69.68.68,0,0,0-.68.69A.67.67,0,0,0,6.49,48.48Z"/><path class="cls-3" d="M59.13,48.48a.68.68,0,0,0,.69-.68.69.69,0,0,0-.69-.69.68.68,0,0,0-.68.69A.67.67,0,0,0,59.13,48.48Z"/><path class="cls-3" d="M16.5,55.32l-1,1.26-.58-.47,1-1.26-1-.82-2.22,2.73-2-1.65a.17.17,0,0,1,0-.23l0,0,1.65-2L14,54.21l.44-.56-2.7-2.19L9.63,54.07h0l-.06.06a.78.78,0,0,0,.11,1.11l.08.06,2.48,2L11,58.81l1,.82,2.36-2.92.58.47L12.62,60.1l1,.83,3.89-4.79Z"/><path class="cls-3" d="M34.9,60.45v1.62h-.75V60.45h-1.3V64H30.23a.16.16,0,0,1-.16-.16V61.16h2.18v-.71H28.77v3.36h0v.09a.79.79,0,0,0,.79.79h3.28v1.93h1.31V62.85h.75v3.76h1.31V60.45Z"/><path class="cls-3" d="M55.78,55.52l-2.46-2.87h0a.79.79,0,0,0-1.08-.11h0l-4.45,3.8.46.54,3.9-3.33a.17.17,0,0,1,.23,0h0l2.41,2.82-.74.63-1.37-1.6-1,.84,1.37,1.61-.69.59L51,56.82l-1,.84,1.38,1.61-1,.87.47.54,6.08-5.2-.46-.54Z"/><path class="cls-3" d="M47.07,61.53a.79.79,0,0,0-1-.46h0l-5.45,2.17.26.65L45.68,62a.16.16,0,0,1,.21.1h0l.66,1.66,1.21-.48-.69-1.72"/><polygon class="cls-3" points="46.73 58.47 45.91 58.8 45.45 57.52 44.24 58 45.45 61.07 46.66 60.59 46.17 59.46 47 59.13 46.73 58.47"/><path class="cls-3" d="M42.71,59.37l1-.4-.27-.66-2,.79-.21-.52-1.2.48.2.52h0l-2,.79.26.65,1.21-.48"/><path class="cls-3" d="M40.93,59.41c-1.35.54-2.19,1.63-1.87,2.45s1.68,1,3,.5,2.18-1.63,1.86-2.45S42.28,58.88,40.93,59.41Zm.88,2.23c-.66.26-1.32.13-1.49-.28s.24-1,.89-1.23,1.32-.13,1.49.28S42.47,61.38,41.81,61.64Z"/><path class="cls-3" d="M25,59.54l-1.74,4.89-3.61-1.28a.17.17,0,0,1-.1-.21h0l.51-1.43-1.23-.43-.53,1.49,0,0h0a.79.79,0,0,0,.44,1h0L23,65.1h0l1.23.44,2-5.56Z"/><polyline class="cls-3" points="22.13 59.28 23.67 59.82 23.91 59.15 19.46 57.57 19.22 58.24 20.76 58.79"/><path class="cls-3" d="M20.81,58.65a2.23,2.23,0,0,1-2.32.94l-.31.86A3,3,0,0,0,21.89,59"/><path class="cls-3" d="M22.15,59.13a2.22,2.22,0,0,0,1.21,2.19l-.3.86a3,3,0,0,1-2-3.43"/><path class="cls-3" d="M22.81,48.43h-.36V46.69h1.23V47h-.87v.39h.77v.31h-.77Z"/><path class="cls-3" d="M24.33,47.56c0-.49.28-.61.47-.61s.48.12.48.61-.28.61-.48.61S24.33,48.05,24.33,47.56Zm-.36,0a.84.84,0,1,0,1.67,0,.84.84,0,1,0-1.67,0Z"/><path class="cls-3" d="M27.44,47.82c0,.46-.27.65-.71.65a.7.7,0,0,1-.55-.21.56.56,0,0,1-.14-.42V46.69h.37v1.13a.31.31,0,0,0,.31.35c.25,0,.35-.12.35-.33V46.69h.37Z"/><path class="cls-3" d="M29,46.69h.34v1.74H29l-.71-1.24h0v1.24H27.9V46.69h.38L29,47.9h0Z"/><path class="cls-3" d="M30.14,47h.35c.15,0,.4,0,.4.55,0,.29-.1.59-.4.59h-.35Zm-.35,1.44h.75c.57,0,.72-.54.72-.91s-.12-.83-.71-.83h-.76Z"/><path class="cls-3" d="M32.93,47H32v.37h.85v.3H32v.45h1v.31H31.65V46.69h1.28Z"/><path class="cls-3" d="M33.75,47h.34c.16,0,.4,0,.4.55,0,.29-.1.59-.39.59h-.35Zm-.36,1.44h.75c.57,0,.72-.54.72-.91s-.12-.83-.71-.83h-.76Z"/><path class="cls-3" d="M36.38,48.43H36V46.69h.36Z"/><path class="cls-3" d="M37.9,46.69h.34v1.74h-.36l-.71-1.24h0v1.24h-.34V46.69h.38l.69,1.21h0Z"/><path class="cls-3" d="M39.49,47h0c.32,0,.41-.17.42-.3h.28v1.72H39.9V47.25h-.41Z"/><path class="cls-3" d="M41.2,47.28c0-.25.16-.29.24-.29s.26.12.26.32a.25.25,0,0,1-.25.28C41.32,47.59,41.2,47.54,41.2,47.28Zm-.31.75a.5.5,0,0,0,.54.44c.31,0,.62-.21.62-.88,0-.24,0-.88-.6-.88a.56.56,0,0,0-.59.62.5.5,0,0,0,.52.53.36.36,0,0,0,.33-.14h0c0,.36-.14.48-.28.48a.18.18,0,0,1-.2-.17h-.34Z"/><path class="cls-3" d="M42.67,47.28c0-.25.15-.29.24-.29s.26.12.26.32a.25.25,0,0,1-.25.28C42.79,47.59,42.67,47.54,42.67,47.28Zm-.31.75a.49.49,0,0,0,.53.44c.31,0,.63-.21.63-.88,0-.24,0-.88-.61-.88a.55.55,0,0,0-.58.62.5.5,0,0,0,.52.53.35.35,0,0,0,.32-.14h0c0,.36-.14.48-.29.48A.18.18,0,0,1,42.7,48h-.34Z"/><path class="cls-3" d="M43.89,47h0c.33,0,.42-.17.43-.3h.27v1.72h-.34V47.25h-.4Z"/></g></svg>