<svg id="Layer_1" data-name="Layer 1" xmlns="http://www.w3.org/2000/svg" viewBox="0 0 399.38 113.45"><defs><style>.cls-1,.cls-4{fill:#fff;}.cls-1{stroke:#978e8c;stroke-width:1.95px;}.cls-2{fill:#92234e;stroke:#92234e;stroke-width:1.11px;}.cls-3{fill:none;stroke:#fff;stroke-width:1.11px;}.cls-5{fill:#978e8c;}</style></defs><title>header_logo</title><path class="cls-1" d="M1,56.7a55.8,55.8,0,1,1,55.8,55.8A55.74,55.74,0,0,1,1,56.7Z" transform="translate(-0.05 -0.02)"/><path class="cls-2" d="M17.32,56.7a39.4,39.4,0,1,1,39.4,39.4A39.35,39.35,0,0,1,17.32,56.7Z" transform="translate(-0.05 -0.02)"/><path class="cls-3" d="M69.62,36.4v4a3.18,3.18,0,0,1-.8,2,2.79,2.79,0,0,1-2,.8h-3.7V36.4H50v6.8h-3.5a3.18,3.18,0,0,1-2-.8,2.79,2.79,0,0,1-.8-2v-4H31.12V55.7c0,16.1,9.9,30.4,24.6,35.6l.1.1.8.3.8-.3.1-.1c14.7-5.2,24.6-19.5,24.6-35.6V36.4Z" transform="translate(-0.05 -0.02)"/><path class="cls-4" d="M72.12,38.9v1.5a5.34,5.34,0,0,1-5.3,5.3h-6.2V38.9h-8.1v6.8h-6a5.34,5.34,0,0,1-5.3-5.3V38.9h-7.6V55.7c0,15,9.2,28.4,22.9,33.3h.2c13.7-4.9,22.9-18.2,22.9-33.3V38.9ZM42.22,62.7a27.43,27.43,0,0,1-.9-7V52.8a10.47,10.47,0,0,0,3,.5h6.9A18,18,0,0,1,42.22,62.7Zm14.5,17.9a26.87,26.87,0,0,1-11.6-10.8,26.56,26.56,0,0,0,11.6-10.4,26.56,26.56,0,0,0,11.6,10.4A26.87,26.87,0,0,1,56.72,80.6Zm15.4-24.9a27.43,27.43,0,0,1-.9,7,18.33,18.33,0,0,1-9.1-9.3H69a10.47,10.47,0,0,0,3-.5v2.8Z" transform="translate(-0.05 -0.02)"/><path class="cls-4" d="M38.72,28.1h1v5.1h-1L38,31.4a9.33,9.33,0,0,1-.7-2h0c0,.4.1.9.1,1.5v2.4h-1V28.2h1l.7,1.9c.2.6.4,1.2.7,2h0c0-.5-.1-1-.1-1.4V28.1Z" transform="translate(-0.05 -0.02)"/><path class="cls-4" d="M41,30.2c0-1.3.1-2.3,1.7-2.3s1.6,1,1.7,2.3v.7c0,1.4-.1,2.4-1.7,2.4s-1.7-1-1.7-2.4Zm1,1.2c0,.4,0,1.1.7,1.1s.7-.7.7-1.2V30c0-.4,0-1.3-.7-1.3s-.7.9-.7,1.3Z" transform="translate(-0.05 -0.02)"/><path class="cls-4" d="M47.92,28.1h1l-1.1,5.1h-1.3l-1.1-5.1h1l.6,3.3a2.77,2.77,0,0,1,.1.9v.4h0v-.4c0-.3.1-.6.1-.9Z" transform="translate(-0.05 -0.02)"/><path class="cls-4" d="M49.62,33.2l1.2-5.1h1.3l1.2,5.1h-1L52,31.9h-1.1l-.3,1.3ZM51,31.1h.8l-.3-1.4c0-.2-.1-.5-.1-.7v-.3h0V29a1.7,1.7,0,0,1-.1.7Z" transform="translate(-0.05 -0.02)"/><path class="cls-4" d="M53.92,33.2l1.2-5.1h1.3l1.2,5.1h-1l-.3-1.3h-1.1l-.3,1.3Zm1.4-2.1h.8l-.3-1.4c0-.2-.1-.5-.1-.7v-.3h0V29a1.7,1.7,0,0,1-.1.7Z" transform="translate(-0.05 -0.02)"/><path class="cls-4" d="M58.62,33.2V28.1h1.9c.9,0,1.2.7,1.2,1.4a1.46,1.46,0,0,1-.5,1.2,2,2,0,0,1-1.1.3h-.6v2.1h-.9Zm.9-2.9H60c.4,0,.7-.2.7-.8s-.2-.7-.8-.7h-.4Z" transform="translate(-0.05 -0.02)"/><path class="cls-4" d="M62.82,33.2V28.1h2.7v.7h-1.7v1.3h1.6v.7h-1.6v1.6h1.7v.7l-2.7.1Z" transform="translate(-0.05 -0.02)"/><path class="cls-4" d="M67.72,31v2.2h-1V28.1h1.8c.8,0,1.5.3,1.5,1.2,0,.6-.1,1.1-.8,1.2h0c.6.1.7.4.7.9,0,.2,0,1.5.2,1.6v.1h-1a5.7,5.7,0,0,1-.1-1.3c0-.3,0-.7-.3-.8a2.2,2.2,0,0,0-.8-.1l-.2.1Zm0-.8h.7c.3,0,.6-.2.6-.7s-.2-.7-.6-.7h-.7Z" transform="translate(-0.05 -0.02)"/><path class="cls-4" d="M71.42,33.2V28.1h1v5.1Z" transform="translate(-0.05 -0.02)"/><path class="cls-4" d="M73.82,30.2c0-1.3.1-2.3,1.7-2.3s1.6,1,1.7,2.3v.7c0,1.4-.1,2.4-1.7,2.4s-1.7-1-1.7-2.4Zm.9,1.2c0,.4,0,1.1.7,1.1s.7-.7.7-1.2V30c0-.4,0-1.3-.7-1.3s-.7.9-.7,1.3Z" transform="translate(-0.05 -0.02)"/><path class="cls-4" d="M51.42,70.7h-.7v-.5c.4,0,.8-.1.9-.5h.5V73h-.7Z" transform="translate(-0.05 -0.02)"/><path class="cls-4" d="M54.82,72.2c0,.2,0,.3.2.3s.2-.4.2-.6v-.2c-.2.1-.3.2-.5.2-.6,0-.7-.5-.7-1,0-.8.2-1.2,1-1.2s1,.5,1,1.2v.9c0,.7-.1,1.4-.9,1.4-.6,0-1-.2-1-.9l.7-.1Zm0-1.4c0,.2,0,.5.3.5s.2-.3.2-.5.1-.6-.3-.6C54.82,70.2,54.82,70.6,54.82,70.8Z" transform="translate(-0.05 -0.02)"/><path class="cls-4" d="M57.52,71.5l.1-1.8h1.7v.6h-1.2v.6c.2-.1.3-.2.5-.2.7,0,.8.6.8,1.2s-.2,1.2-1,1.2c-.6,0-.8-.3-.9-.8V72h.7c0,.2,0,.5.2.5s.3-.4.3-.6,0-.7-.3-.7-.2.1-.3.2l-.6.1Z" transform="translate(-0.05 -0.02)"/><path class="cls-4" d="M61.52,70.7h-.7v-.5c.4,0,.8-.1.9-.5h.5V73h-.7Z" transform="translate(-0.05 -0.02)"/><path class="cls-5" d="M10.92,55.4c1,0,1.8-.2,1.9-1.4.1-1.6-2.1-1.7-3.2-1.8s-3.6-.3-3.7,1.4c-.1,1.1.8,1.4,1.7,1.5.2,0,.4.1.6.1l-.1.9a.9.9,0,0,1-.5-.1,3.16,3.16,0,0,1-1.7-.6,1.84,1.84,0,0,1-.8-1.8c.2-2.5,2.6-2.4,4.5-2.3s4.1.5,4,2.8a2.27,2.27,0,0,1-2.8,2.1Z" transform="translate(-0.05 -0.02)"/><path class="cls-5" d="M5.12,58.1l8.2-.6.1.9-3.4.2.2,3.1,3.4-.2.1.9-8.2.6-.1-.9,3.9-.3-.2-3.1-3.9.3Z" transform="translate(-0.05 -0.02)"/><path class="cls-5" d="M13.82,63.7l.2.9-5.7,1.3A1.45,1.45,0,0,0,7,67.8c.3,1.4,1.3,1.3,2,1.2l5.7-1.3.2.9-6.1,1.3c-1.4.3-2.3-.5-2.6-1.9a2.22,2.22,0,0,1,1.6-2.9Z" transform="translate(-0.05 -0.02)"/><path class="cls-5" d="M16.72,73.6l.3.8-7.6,2.9-.5-1.4,5.3-4.5a3.59,3.59,0,0,1,1-.7h0c-.4.2-.8.3-1.2.5l-6.1,2.3-.3-.8,7.6-2.9.5,1.4-5.4,4.5c-.2.2-.4.3-.7.6h0a6.89,6.89,0,0,0,.8-.3Z" transform="translate(-0.05 -0.02)"/><path class="cls-5" d="M12.82,83.9l-.3-.6,1.1-.6h0a1.82,1.82,0,0,1-2.1-1c-1.2-2.1.8-3.5,2.5-4.4s3.8-1.7,5,.3A2.33,2.33,0,0,1,18,81l-.4-.8c.9-.5,1.3-1.2.8-2.1-.8-1.6-2.6-.6-3.9.1-1.1.6-3,1.6-2.3,3s2.2.9,3.3.3l-.9-1.6.7-.4,1.3,2.4Z" transform="translate(-0.05 -0.02)"/><path class="cls-5" d="M14.22,85.9l6.5-4.9,1.4,1.9a1.84,1.84,0,0,1-.4,2.9,1.56,1.56,0,0,1-2.2.1h0a1.7,1.7,0,0,1-.7,2.3,2.12,2.12,0,0,1-3.4-.5Zm2,1.4c.6.8,1.2.8,2,.1,1.3-1,.6-1.7,0-2.5l-.5-.6-2.4,1.8Zm2.3-3.5.5.6c.6.9,1.2,1.3,2.2.5.8-.6.8-1.1,0-2.2l-.5-.6Z" transform="translate(-0.05 -0.02)"/><path class="cls-5" d="M24.22,85.5l.6.6-4.2,4.1a1.42,1.42,0,0,0-.1,2.3,1.43,1.43,0,0,0,2.3-.1L27,88.3l.6.6-4.4,4.4c-1,1-2.2.8-3.3-.2s-1.2-2.2-.2-3.3Z" transform="translate(-0.05 -0.02)"/><path class="cls-5" d="M23.72,96.4l5-6.5.7.5-2.6,3.3h0l4.9-1.5.9.7L28.52,94l-.8,5.4-.9-.7.6-4.5-1.4.4-1.7,2.3Z" transform="translate(-0.05 -0.02)"/><path class="cls-5" d="M39,96.4l.8.4-3.6,7.3-1.3-.7.8-6.9a2.66,2.66,0,0,1,.3-1.2h0a9.74,9.74,0,0,0-.5,1.1l-2.9,5.8-.8-.4,3.6-7.3,1.3.7-.9,7c0,.3-.1.5-.1.9h0a5.94,5.94,0,0,1,.4-.8Z" transform="translate(-0.05 -0.02)"/><path class="cls-5" d="M42.52,97.7l1.1.4-.4,8.5-1-.3.1-2.4-2.5-.8-1.3,2-1-.3Zm.3.8h0l-2.4,3.8,2.1.7Z" transform="translate(-0.05 -0.02)"/><path class="cls-5" d="M45.82,98.8l5,1-.2.8-2.1-.4-1.4,7.2-.9-.2,1.4-7.2-2.1-.4Z" transform="translate(-0.05 -0.02)"/><path class="cls-5" d="M50.92,108l.8-8.1.9.1-.8,8.1Z" transform="translate(-0.05 -0.02)"/><path class="cls-5" d="M56.72,100c2.4,0,2.7,2.2,2.7,4.1,0,2.3-.3,4.5-2.7,4.5s-2.7-2.2-2.7-4.5C54,102.2,54.32,100,56.72,100Zm-.1.8c-1.4,0-1.7,1.5-1.7,3.3,0,2.4.2,3.6,1.8,3.6s1.7-1.3,1.8-3.6C58.42,102.2,58.12,100.8,56.62,100.8Z" transform="translate(-0.05 -0.02)"/><path class="cls-5" d="M64.52,99.5l.9-.1,1.2,8.1-1.5.2-3.2-6.1a7.26,7.26,0,0,1-.5-1.2h0c.1.4.1.8.2,1.2l.9,6.5-.9.1-1.2-8.1,1.5-.2,3.2,6.3a5.9,5.9,0,0,0,.4.8h0c-.1-.3-.1-.6-.2-.9Z" transform="translate(-0.05 -0.02)"/><path class="cls-5" d="M68.22,98.6l1.2-.3,4.5,7.2-1,.3-1.3-2.1-2.5.7.1,2.4-1,.3Zm.7.5h0l.1,4.5,2.1-.6Z" transform="translate(-0.05 -0.02)"/><path class="cls-5" d="M75.42,104.9l-3.2-7.5L73,97l2.9,6.8,3.1-1.3.3.8Z" transform="translate(-0.05 -0.02)"/><path class="cls-5" d="M78.92,94.1l.8-.5L83,98.5c.4.5,1,1.3,2.2.5s.7-1.7.3-2.3l-3.3-4.9.7-.5,3.5,5.1c.8,1.2.4,2.3-.8,3.2s-2.4.8-3.2-.4Z" transform="translate(-0.05 -0.02)"/><path class="cls-5" d="M87,87.8l.7-.6,5.5,6.1-1.1,1L86,91c-.3-.2-.7-.4-1.1-.7h0l.9.9,4.4,4.8-.7.6L84,90.5l1.1-1,6.2,3.4a9.22,9.22,0,0,1,.8.5h0a4.35,4.35,0,0,1-.6-.7Z" transform="translate(-0.05 -0.02)"/><path class="cls-5" d="M94.82,91.5,88.72,86l.6-.7,6.1,5.5Z" transform="translate(-0.05 -0.02)"/><path class="cls-5" d="M92.82,80.9l.6-.8,5.2,6.7-.7.9-8-2.9.6-.8,7.2,2.9h0Z" transform="translate(-0.05 -0.02)"/><path class="cls-5" d="M100.82,83.5l-7.1-4,2-3.6.7.4-1.5,2.8,2.4,1.3,1.5-2.6.7.4L98,80.8l2.6,1.5,1.6-2.8.7.4Z" transform="translate(-0.05 -0.02)"/><path class="cls-5" d="M104.12,77.1l-.3.8-7.6-3,.8-2c.6-1.6,1.4-2.4,3.2-1.7a1.78,1.78,0,0,1,1.1,2.1h0c.5-.9.9-1.1,2-.8a12.09,12.09,0,0,0,1.8.5c.2,0,.5.1.6-.1l.2.1-.4,1a6.53,6.53,0,0,1-2-.5c-.8-.3-1.5-.3-1.9.7l-.6,1.5ZM100,75.5l.5-1.3a1.42,1.42,0,0,0-.8-2c-1.3-.5-1.8.5-2,1.1l-.5,1.2Z" transform="translate(-0.05 -0.02)"/><path class="cls-5" d="M101.32,66.3a1.28,1.28,0,0,0-1.8.9c-.3,1.3.5,1.6,1.1,1.8a1.14,1.14,0,0,0,1.3-.5,10.47,10.47,0,0,1,.8-1.1c.9-1.4,1.5-1.5,2.6-1.3a2.27,2.27,0,0,1,1.8,3,2.21,2.21,0,0,1-1.8,1.9,3.89,3.89,0,0,1-1.5-.2l.2-.9c1.2.3,2,.3,2.3-1a1.46,1.46,0,0,0-1-1.9c-1.2-.3-1.3.2-1.8.9-.3.4-.7,1-1,1.4a1.71,1.71,0,0,1-2,.5,2.09,2.09,0,0,1-1.6-2.7c.4-1.4,1.3-2.2,2.8-1.7Z" transform="translate(-0.05 -0.02)"/><path class="cls-5" d="M107.72,64.5l-8.1-1.1.1-.9,8.1,1.1Z" transform="translate(-0.05 -0.02)"/><path class="cls-5" d="M99.92,61.5l.3-5.1h.8l-.1,2.1,7.3.4v.9l-7.3-.4-.1,2.1Z" transform="translate(-0.05 -0.02)"/><path class="cls-5" d="M104.12,53.3l-4.2-1.6-.1-1,5.2,2.1,3.2-.2.1.9-3.2.2-4.8,2.8-.1-1Z" transform="translate(-0.05 -0.02)"/><path class="cls-5" d="M11.32,44A1.3,1.3,0,1,0,10,42.7,1.32,1.32,0,0,0,11.32,44Z" transform="translate(-0.05 -0.02)"/><path class="cls-5" d="M102.22,44a1.3,1.3,0,1,0-1.3-1.3A1.21,1.21,0,0,0,102.22,44Z" transform="translate(-0.05 -0.02)"/><path class="cls-5" d="M17.52,25.8a1.87,1.87,0,0,1-1.4.8l1.7-2.4-1-.7-1.9,2.6-.6-.4-.9,1.2.6.4-1.9,2.6,1,.7,1.7-2.4a1.61,1.61,0,0,1-.3,1.6l-.9,1.3,1,.7.9-1.3a3.45,3.45,0,0,0,.7-2.5,3.47,3.47,0,0,0,2.1-1.5l.9-1.3-1-.7Z" transform="translate(-0.05 -0.02)"/><path class="cls-5" d="M20.92,26.1l-1-.7-4.8,6.8,1,.7,2-2.8.4.3a2.53,2.53,0,0,0,.6,3.1,2.62,2.62,0,0,0,3.6-1,2.63,2.63,0,0,0-.3-3.7,2.6,2.6,0,0,0-3.1.4l-.4-.3Zm.6,3.8a1.26,1.26,0,0,1,.1,1.8,1.34,1.34,0,0,1-1.7.5,1.26,1.26,0,0,1-.1-1.8A1.16,1.16,0,0,1,21.52,29.9Z" transform="translate(-0.05 -0.02)"/><polygon class="cls-5" points="57.27 5.08 57.27 10.88 54.08 10.88 54.08 6.28 56.17 6.28 56.17 5.08 52.67 5.08 52.67 12.07 57.27 12.07 57.27 14.18 58.67 14.18 58.67 6.28 59.27 6.28 59.27 14.18 60.77 14.18 60.77 5.08 60.77 5.08 57.27 5.08"/><polygon class="cls-5" points="39.17 13.78 38.67 12.78 31.38 16.38 31.88 17.48 34.98 15.97 35.17 16.57 32.38 17.98 32.98 19.07 38.67 16.18 39.48 17.77 40.67 17.18 39.38 14.47 36.48 15.88 36.17 15.28 39.17 13.78"/><path class="cls-5" d="M38.22,12.2h0l-6.9,3.6h0l-1.7-3.4,1.3-.6.4.7,4.4-2.2-.4-.7,1.3-.6Zm-2.1-1-4.4,2.2.3.7,4.4-2.2Z" transform="translate(-0.05 -0.02)"/><polygon class="cls-5" points="84.78 13.18 82.67 12.07 80.47 16.27 81.78 16.98 83.38 13.78 84.28 14.18 84.78 13.18"/><polygon class="cls-5" points="74.28 13.88 73.78 14.97 79.58 17.98 78.47 20.18 79.78 20.77 81.38 17.57 74.28 13.88"/><path class="cls-5" d="M82,11.7l-2-1,.4-.7L79,9.3l-.4.7-1.9-1-.6,1.1.6.3a2,2,0,0,0-.9.9A2.58,2.58,0,0,0,77,14.7a2.51,2.51,0,0,0,3.4-.9,1.91,1.91,0,0,0,.2-1.3l.6.3Zm-4.3,1.9a1.19,1.19,0,1,1,1.6-.5A1.26,1.26,0,0,1,77.72,13.6Z" transform="translate(-0.05 -0.02)"/><polygon class="cls-5" points="92.97 31.48 95.97 29.38 95.17 28.18 92.17 30.27 91.38 29.18 94.38 26.98 93.58 25.88 89.58 28.68 93.97 34.88 94.97 34.17 92.97 31.48"/><polygon class="cls-5" points="95.58 31.57 96.38 32.77 100.88 29.57 96.67 23.57 95.67 24.18 99.08 29.07 95.58 31.57"/><polygon points="268.48 22.77 268.48 53.77 251.57 53.77 251.57 29.07 262.48 29.07 262.48 22.77 244.07 22.77 244.07 60.08 268.48 60.08 268.48 71.28 275.77 71.28 275.77 29.07 279.27 29.07 279.27 71.28 286.77 71.28 286.77 22.77 286.77 22.77 268.48 22.77"/><polygon points="381.48 62.77 381.48 43.58 373.98 43.58 373.98 62.77 366.57 62.77 366.57 43.17 359.07 43.17 359.07 69.17 399.18 69.17 399.18 62.77 381.48 62.77"/><polygon points="390.07 52.17 397.57 52.17 397.57 22.77 358.38 22.77 358.38 29.07 390.07 29.07 390.07 52.17"/><polygon points="232.97 51.77 232.97 45.38 189.57 45.38 189.57 51.77 207.38 51.77 207.38 55.27 190.57 55.27 190.57 61.58 224.47 61.58 224.47 71.28 231.97 71.28 231.97 55.27 215.07 55.27 215.07 51.77 232.97 51.77"/><path d="M232,41.7v.2h-41.4V21.8h7.5v4.4h26.4V21.8H232Zm-7.5-9.6h-26.4V36h26.4Z" transform="translate(-0.05 -0.02)"/><polygon points="346.98 22.77 334.27 22.77 334.27 48.08 341.77 48.08 341.77 29.07 346.98 29.07 346.98 22.77"/><polygon points="299.38 51.77 299.38 58.08 334.27 58.08 334.27 71.28 341.77 71.28 341.77 51.77 299.38 51.77"/><path d="M330,22.8H318V18.6h-8.1v4.1h-11.2v6.4h3.8a11,11,0,0,0-2.1,6.5c0,7.1,6.2,12.8,14,12.8s14-5.7,14-12.8a11,11,0,0,0-2.1-6.5h3.8l-.1-6.3ZM314.32,42a6.5,6.5,0,1,1,6.5-6.5A6.49,6.49,0,0,1,314.32,42Z" transform="translate(-0.05 -0.02)"/><path d="M169.82,32.7a9.44,9.44,0,0,1-7.6-3.6H178V22.7H161v-4h-8.1v4h-17.1v6.4h15.9a9,9,0,0,1-7.6,3.6h-8.6v6.2h8.6A19.22,19.22,0,0,0,157,34.2a18.77,18.77,0,0,0,12.8,4.7H178V32.7Z" transform="translate(-0.05 -0.02)"/><path d="M179,48.2V42h-44.2v6.2h18.3v2.3c-6.5,1.4-11.3,6.3-11.3,12.1,0,6.9,6.8,12.6,15.2,12.6s15.2-5.6,15.2-12.6c0-5.8-4.8-10.7-11.3-12.1V48.2Zm-14.7,14.5c0,3.3-3.3,6-7.4,6s-7.4-2.7-7.4-6,3.3-6,7.4-6S164.32,59.3,164.32,62.7Z" transform="translate(-0.05 -0.02)"/><path d="M143.12,89.2a1.7,1.7,0,0,1-.1.7c-.1,2.3-.9,4.1-3.6,4.1-3.9,0-4.2-2.5-4.2-5.9V86.3c.1-3.3.4-5.7,4.2-5.7,2.1,0,3.3,1.1,3.5,3.3,0,.3.1.6.1,1h-2.4c-.1-.8,0-2.3-1.2-2.3-1.9,0-1.7,2.2-1.7,3.2v3.5c0,1.1.1,2.8,1.7,2.8,1.3,0,1.2-2.1,1.2-2.9Z" transform="translate(-0.05 -0.02)"/><path d="M145.72,93.8V81h2.4v5.1h3.3V81h2.4V93.8h-2.4V88h-3.3v5.8Z" transform="translate(-0.05 -0.02)"/><path d="M162.52,81h2.4v8.9c0,2.8-.9,4.2-4,4.2s-4.1-1.3-4.1-4.2V81h2.4v8.7c0,1.2.1,2.5,1.7,2.5s1.6-1.2,1.6-2.5Z" transform="translate(-0.05 -0.02)"/><path d="M173.62,81H176V93.8h-2.5l-1.8-4.6c-.6-1.5-1.1-3.1-1.7-5.1h0q.15,1.65.3,3.6c.1,1.3.1,2.5.1,3.6v2.4H168V80.9h2.5l1.9,4.6a50.49,50.49,0,0,1,1.7,5.1h0c-.1-1.2-.2-2.4-.2-3.6s-.1-2.5-.1-3.6V81Z" transform="translate(-0.05 -0.02)"/><path d="M178.72,86.4c.1-3.3.4-5.7,4.2-5.7,2,0,3.5.5,4,2.8A7.57,7.57,0,0,1,187,85h-2.4c0-1.3-.1-2.3-1.7-2.4-1.9,0-1.7,2.2-1.7,3.2v3.5c0,1.1.1,2.8,1.7,2.8,1.4,0,1.8-1.5,1.8-3.4H183V86.8h4v6.9h-1.8V92.2h0A2.58,2.58,0,0,1,183,94c-3.9,0-4.2-2.5-4.2-5.9l-.1-1.7Z" transform="translate(-0.05 -0.02)"/><path d="M190,93.8V81h3.8a3.32,3.32,0,0,1,2.7.9,3.62,3.62,0,0,1,.6,2.3,2.49,2.49,0,0,1-1.5,2.7h0c1.3.2,1.9,1.3,1.9,3a4.4,4.4,0,0,1-.2,1.6,2.86,2.86,0,0,1-3.1,2.3Zm2.9-1.9a3.21,3.21,0,0,0,1.4-.1c.6-.3.7-1.1.7-1.8,0-1.4-.3-2-1.8-2h-.9v3.9Zm-.1-5.7a2.41,2.41,0,0,0,1.7-.4,2.65,2.65,0,0,0,.3-1.4c0-.9-.2-1.4-1.3-1.5h-1.1v3.3Z" transform="translate(-0.05 -0.02)"/><path d="M205.92,81h2.4v8.9c0,2.8-.9,4.2-4,4.2s-4.1-1.3-4.1-4.2V81h2.4v8.7c0,1.2.1,2.5,1.7,2.5s1.6-1.2,1.6-2.5Z" transform="translate(-0.05 -0.02)"/><path d="M211.32,93.8V81h2.4v5.7h0c.4-1,1-2.1,1.5-3.1l1.4-2.6h2.7l-3.1,5.5,3.3,7.3h-2.7l-2.2-5-.8,1.4v3.7h-2.5v-.1Z" transform="translate(-0.05 -0.02)"/><path d="M232,81h2.4V93.8h-2.5L230,89.2c-.6-1.5-1.1-3.1-1.7-5.1h0q.15,1.65.3,3.6c.1,1.3.1,2.5.1,3.6v2.4h-2.4V80.9h2.5l1.9,4.6a50.49,50.49,0,0,1,1.7,5.1h0c-.1-1.2-.2-2.4-.2-3.6s-.1-2.5-.1-3.6L232,81Z" transform="translate(-0.05 -0.02)"/><path d="M236.42,93.8l3.1-12.8h3.2l2.9,12.8H243l-.6-3.2h-2.8l-.6,3.2Zm3.6-5.1h2l-.6-3.6a11,11,0,0,1-.2-1.8c0-.3-.1-.6-.1-.9h0c0,.3-.1.6-.1.9-.1.6-.1,1.2-.2,1.8Z" transform="translate(-0.05 -0.02)"/><path d="M246.72,81h8v1.9h-2.8V93.8h-2.4V82.9h-2.8Z" transform="translate(-0.05 -0.02)"/><path d="M256.82,93.8V81h2.4V93.8Z" transform="translate(-0.05 -0.02)"/><path d="M262.12,86.4c.1-3.3.4-5.7,4.2-5.7s4.1,2.4,4.2,5.7v1.8c0,3.4-.2,5.9-4.2,5.9s-4.2-2.5-4.2-5.9Zm2.4,3c0,1.1.1,2.8,1.7,2.8s1.7-1.8,1.7-3V85.9c0-1,.1-3.3-1.7-3.3s-1.7,2.2-1.7,3.2Z" transform="translate(-0.05 -0.02)"/><path d="M279,81h2.4V93.8h-2.5L277,89.2c-.6-1.5-1.1-3.1-1.7-5.1h0q.15,1.65.3,3.6c.1,1.3.1,2.5.1,3.6v2.4h-2.4V80.9h2.5l1.9,4.6a50.49,50.49,0,0,1,1.7,5.1h0c-.1-1.2-.2-2.4-.2-3.6s-.1-2.5-.1-3.6L279,81Z" transform="translate(-0.05 -0.02)"/><path d="M283.32,93.8l3-12.8h3.2l2.9,12.8h-2.6l-.6-3.2h-2.7l-.6,3.2Zm3.6-5.1h2l-.6-3.6a11,11,0,0,1-.2-1.8c0-.3-.1-.6-.1-.9h0c0,.3-.1.6-.1.9-.1.6-.1,1.2-.2,1.8Z" transform="translate(-0.05 -0.02)"/><path d="M294.52,93.8V81h2.4V91.9h4.4v1.9Z" transform="translate(-0.05 -0.02)"/><path d="M314.32,81h2.4v8.9c0,2.8-.9,4.2-4,4.2s-4.1-1.3-4.1-4.2V81H311v8.7c0,1.2.1,2.5,1.7,2.5s1.6-1.2,1.6-2.5Z" transform="translate(-0.05 -0.02)"/><path d="M325.42,81h2.4V93.8h-2.5l-1.8-4.6c-.6-1.5-1.1-3.1-1.7-5.1h0q.15,1.65.3,3.6c.1,1.3.1,2.5.1,3.6v2.4h-2.4V80.9h2.5l1.8,4.6a50.49,50.49,0,0,1,1.7,5.1h0c-.1-1.2-.2-2.4-.2-3.6s-.1-2.5-.1-3.6l-.1-2.4Z" transform="translate(-0.05 -0.02)"/><path d="M330.82,93.8V81h2.4V93.8Z" transform="translate(-0.05 -0.02)"/><path d="M341.62,81h2.5l-2.8,12.8h-3.2L335.32,81h2.6l1.5,8.2c.1.7.2,1.4.3,2.2,0,.3.1.7.1,1.1h0c0-.4.1-.7.1-1.1.1-.7.2-1.5.3-2.2Z" transform="translate(-0.05 -0.02)"/><path d="M346.32,93.8V81H353v1.9h-4.3v3.2h4V88h-4v3.9H353v1.9Z" transform="translate(-0.05 -0.02)"/><path d="M357.92,88.3v5.5h-2.4V81H360c2.1,0,3.6.7,3.6,3.1,0,1.4-.4,2.9-2,3.1h0c1.4.2,1.8,1.1,1.8,2.3,0,.5-.1,3.7.5,4v.2h-2.6a17.33,17.33,0,0,1-.3-3.2c0-.8,0-1.9-.8-2.1a6.48,6.48,0,0,0-2-.2h-.3v.1Zm0-1.9h1.9c.8,0,1.4-.6,1.4-1.8,0-1.4-.6-1.7-1.5-1.7h-1.8Z" transform="translate(-0.05 -0.02)"/><path d="M371.52,84.9c0-1.1-.1-2.3-1.4-2.3-.8,0-1.3.3-1.3,1.2s.6,1.3,1.4,1.8a30.63,30.63,0,0,1,2.9,2.1,3.48,3.48,0,0,1,1.1,2.7c0,2.4-1.6,3.7-3.9,3.7-2.9,0-3.9-1.6-3.9-3.9v-.9h2.4V90c-.1,1.2.3,2.1,1.5,2.1a1.33,1.33,0,0,0,1.5-1.5,1.76,1.76,0,0,0-1-1.7c-1.2-1-2.8-1.7-3.8-3a3.61,3.61,0,0,1-.6-2c0-2.2,1.2-3.4,3.7-3.4,3.8,0,3.7,2.9,3.7,4.2h-2.3Z" transform="translate(-0.05 -0.02)"/><path d="M376.82,93.8V81h2.4V93.8Z" transform="translate(-0.05 -0.02)"/><path d="M381.32,81h7.9v1.9h-2.7V93.8h-2.4V82.9h-2.8V81Z" transform="translate(-0.05 -0.02)"/><path d="M394.32,84.4a6.64,6.64,0,0,1,.6,2h0a11.22,11.22,0,0,1,.8-2.4l1.1-2.9h2.6L396,88.4v5.4h-2.4V88.4l-3.3-7.3h2.6Z" transform="translate(-0.05 -0.02)"/></svg>