<?xml version="1.0" encoding="utf-8"?>
<!-- Generator: Adobe Illustrator 23.0.3, SVG Export Plug-In . SVG Version: 6.00 Build 0)  -->
<svg version="1.1" id="레이어_1" xmlns="http://www.w3.org/2000/svg" xmlns:xlink="http://www.w3.org/1999/xlink" x="0px"
	 y="0px" viewBox="0 0 272.8 13" style="enable-background:new 0 0 272.8 13;" xml:space="preserve">
<style type="text/css">
	.st0{clip-path:url(#SVGID_2_);fill:#001970;}
</style>
<g>
	<defs>
		<rect id="SVGID_1_" y="0" width="272.8" height="13"/>
	</defs>
	<clipPath id="SVGID_2_">
		<use xlink:href="#SVGID_1_"  style="overflow:visible;"/>
	</clipPath>
	<path class="st0" d="M5.7,6.5c0,0-3.7-2.1-3.9-2.4c0,0-0.4-0.3-0.4-0.8c0,0-0.1-1.2,0.8-1.7c0,0,0.4-0.5,2-0.5c0,0,1.2,0,2.2,0.7
		L6.4,0.4c0,0-2.9-0.7-4.5,0.1c-1.6,0.8-2,2-2,2.8c0,0.8,0.5,2,1.7,2.7c0,0,3.3,1.6,4.1,2.6c0,0,0.8,1.1,0,2.4c0,0-0.8,1.1-2.6,1.1
		c0,0-1.9,0-3.1-0.7l0.1,1.3c0,0,1.7,0.3,3,0.3c0,0,2.1,0.1,3.1-0.7c0,0,1.3-1,1.3-2.6C7.7,9.7,8,7.9,5.7,6.5"/>
	<path class="st0" d="M16.2,11.8h-4.1V6.4h4c0.4,0,0.6,0.2,0.6,0.2V5.4h-4.6V1.3h4.1c0.4,0,0.6,0.2,0.6,0.2l0-1.3h-6.3
		c0,0,0.2,0.4,0.2,0.9V12c0,0,0,0.2-0.2,0.8h6.8l0.2-1.2C17.1,11.8,16.2,11.8,16.2,11.8"/>
	<path class="st0" d="M25.9,0.1c-3.5,0-6.3,2.8-6.3,6.3c0,3.5,2.8,6.3,6.3,6.3c3.5,0,6.3-2.8,6.3-6.3C32.2,2.9,29.4,0.1,25.9,0.1
		 M25.9,11.8c-2.7,0-4.9-2.4-4.9-5.3c0-3,2.2-5.3,4.9-5.3c2.7,0,4.9,2.4,4.9,5.3C30.8,9.4,28.7,11.8,25.9,11.8"/>
	<path class="st0" d="M114.9,0.1c-3.5,0-6.3,2.8-6.3,6.3c0,3.5,2.8,6.3,6.3,6.3c3.5,0,6.3-2.8,6.3-6.3
		C121.1,2.9,118.3,0.1,114.9,0.1 M114.9,11.8c-2.7,0-4.9-2.4-4.9-5.3c0-3,2.2-5.3,4.9-5.3c2.7,0,4.9,2.4,4.9,5.3
		C119.8,9.4,117.6,11.8,114.9,11.8"/>
	<path class="st0" d="M44.9,0.2h-1.7c0.2,0.1,0.2,0.6,0.2,0.6v7.7c0,1.9-1.5,3.4-3.4,3.4c-1.9,0-3.4-1.5-3.4-3.4l0-0.2l0-8.1l-1.4,0
		v8.3c0,2.4,2.2,4.4,4.8,4.4c2.7,0,4.8-2,4.8-4.5h0V0.8C44.8,0.5,44.9,0.2,44.9,0.2"/>
	<path class="st0" d="M54.8,11.9h-4.7V1c0-0.5,0.2-0.8,0.2-0.8h-1.8c0.2,0.3,0.1,0.5,0.1,0.5v12.1h6.7l0.4-1.1
		C55.4,11.9,54.8,11.9,54.8,11.9"/>
	<path class="st0" d="M158.6,11.9h-4.7V1c0-0.5,0.2-0.8,0.2-0.8h-1.8c0.2,0.3,0.1,0.5,0.1,0.5v12.1h6.7l0.4-1.1
		C159.2,11.9,158.6,11.9,158.6,11.9"/>
	<path class="st0" d="M75.3,1.1v8.8l-8.8-9.7h-1.4c0,0,0.2,0.3,0.2,1v10.8c0,0,0,0.5-0.2,0.9v0h1.4c-0.2-0.3-0.2-0.9-0.2-0.9V1.9
		l9.9,10.7V1c0-0.4,0.2-0.8,0.2-0.8h-1.3C75.3,0.4,75.3,1.1,75.3,1.1"/>
	<path class="st0" d="M134.2,1.1v8.8l-8.8-9.7h-1.4c0,0,0.3,0.3,0.3,1v10.8c0,0,0,0.5-0.2,0.9v0h1.4c-0.2-0.3-0.2-0.9-0.2-0.9V1.9
		l9.9,10.7V1c0-0.4,0.2-0.8,0.2-0.8H134C134.2,0.4,134.2,1.1,134.2,1.1"/>
	<path class="st0" d="M85.1,0.2h-1.6c0,0,0.2,0.5,0,1l-4.1,10.4c0,0-0.5,1-0.8,1.2h1.5c-0.1-0.4,0.1-0.8,0.1-0.8L82,7.9h5.2l1.7,3.6
		c0.3,0.7,0.2,1.3,0.2,1.3h2.2c-0.8-1.1-1.1-1.8-1.1-1.8L85.1,0.2z M82.3,7l2-5.1L86.7,7H82.3"/>
	<path class="st0" d="M144.2,0.2h-1.6c0,0,0.2,0.5,0.1,1l-4.1,10.4c0,0-0.5,1-0.8,1.2h1.5c-0.1-0.4,0.1-0.8,0.1-0.8l1.7-4.1h5.1
		l1.7,3.6c0.3,0.7,0.2,1.3,0.2,1.3h2.2c-0.8-1.1-1.2-1.8-1.2-1.8L144.2,0.2z M141.7,7l2-5.1l2.4,5.1H141.7"/>
	<path class="st0" d="M91.5,0.2l-0.1,0l-0.3,1.1c0,0,0.3-0.1,0.8-0.1h3.4v10.9c0,0-0.1,0.6-0.1,0.7H97c0,0-0.2-0.4-0.2-0.8V1.2h2.6
		c0,0,1,0,1.4,0.3l-0.2-1.3H91.5"/>
	<path class="st0" d="M105.6,0.2h-1.7c0,0,0.2,0.4,0.2,0.7v11.1c0,0,0,0.5-0.2,0.9h1.7c0,0-0.2-0.4-0.2-0.9V0.8
		C105.4,0.8,105.4,0.3,105.6,0.2"/>
	<path class="st0" d="M242.6,6.5c0,0-3.7-2.1-3.9-2.4c0,0-0.4-0.3-0.4-0.9c0,0-0.1-1.1,0.8-1.6c0,0,0.4-0.5,2-0.5c0,0,1.2,0,2.2,0.7
		l-0.1-1.4c0,0-2.9-0.7-4.5,0.1c-1.6,0.8-2,2-2,2.8c0,0.8,0.5,2,1.7,2.8c0,0,3.3,1.6,4.1,2.6c0,0,0.8,1,0,2.4c0,0-0.8,1.1-2.6,1.1
		c0,0-1.9,0-3.1-0.7l0.1,1.3c0,0,1.7,0.3,3,0.3c0,0,2.1,0.1,3.1-0.7c0,0,1.3-1,1.3-2.6C244.6,9.7,244.8,7.8,242.6,6.5"/>
	<path class="st0" d="M221.6,11.8h-4.1V6.3h4c0.4,0,0.6,0.2,0.6,0.2V5.4h-4.6V1.3h4.1c0.4,0,0.7,0.2,0.7,0.2l-0.1-1.3h-6.3
		c0,0,0.2,0.4,0.2,0.9v10.9c0,0,0,0.2-0.2,0.8h6.8l0.2-1.2C222.6,11.8,221.6,11.8,221.6,11.8"/>
	<path class="st0" d="M177,0.1h-1.7c0.2,0.1,0.2,0.6,0.2,0.6v7.7c0,1.9-1.5,3.4-3.4,3.4c-1.9,0-3.4-1.5-3.4-3.4l0-0.2l0-8.1l-1.4,0
		v8.3c0,2.4,2.2,4.4,4.8,4.4c2.7,0,4.8-2,4.8-4.5h0V0.7C176.8,0.4,177,0.1,177,0.1"/>
	<path class="st0" d="M191.4,1v8.8l-8.8-9.7h-1.4c0,0,0.2,0.3,0.2,1v10.8c0,0,0,0.5-0.2,0.9v0h1.4c-0.2-0.3-0.2-0.9-0.2-0.9V1.9
		l9.9,10.7V1c0-0.4,0.2-0.8,0.2-0.8h-1.3C191.4,0.4,191.4,1,191.4,1"/>
	<path class="st0" d="M252.1,0.1l-0.1,0l-0.3,1.1c0,0,0.3-0.1,0.8-0.1h3.4v11c0,0-0.1,0.6-0.1,0.7h1.8c0,0-0.2-0.4-0.2-0.8V1.1h2.6
		c0,0,1,0,1.4,0.3l-0.2-1.3H252.1"/>
	<path class="st0" d="M249.3,0.1h-1.7c0,0,0.2,0.4,0.2,0.7v11.1c0,0,0,0.5-0.2,0.9h1.7c0,0-0.2-0.4-0.2-0.9V0.8
		C249.1,0.8,249.1,0.3,249.3,0.1"/>
	<path class="st0" d="M198.7,0.1H197c0,0,0.2,0.4,0.2,0.7v11.1c0,0,0,0.5-0.2,0.9h1.7c0,0-0.2-0.4-0.2-0.9V0.8
		C198.5,0.8,198.6,0.3,198.7,0.1"/>
	<path class="st0" d="M211.8,1l-4.3,9.5L203.2,1c-0.3-0.6-0.2-0.9-0.2-0.9h-1.8c0,0,0.5,0.8,1,1.9l5.3,11l5.5-11.7
		c0,0,0.5-0.9,0.9-1.2H212C212,0.1,212.1,0.4,211.8,1"/>
	<path class="st0" d="M233.7,10.8l-3.9-4.6c1.2,0,2.4-1,2.4-1c0.9-0.8,0.9-2.2,0.9-2.2c-0.1-1.3-0.9-2-0.9-2c-1-1-2.5-0.9-2.5-0.9
		c-2.4,0-3.4,0.1-3.4,0.1s0.2,0.2,0.2,0.6v11.3c0,0.3-0.2,0.6-0.2,0.6h1.7c-0.2-0.3-0.2-0.6-0.2-0.6V5.7h0l0,0V1.5l0-0.1
		c0,0,0-0.3,1.2-0.3c0,0,1.3,0,1.8,0.6c0,0,0.8,0.6,0.8,1.4c0,0,0.1,1.3-0.6,1.8c0,0-0.8,0.8-3.1,0.9l5.7,7h2
		C235,12.3,233.7,10.8,233.7,10.8"/>
	<path class="st0" d="M271.1,0.1c0,0.3-0.1,0.5-0.1,0.5l-2.7,4.6l-2.9-4.5c-0.2-0.4-0.1-0.6-0.1-0.6h-2c0,0,0.4,0.4,0.7,0.9l3.3,5.2
		v5.8c0,0,0,0.4-0.1,0.7h1.8c-0.1-0.1-0.2-0.6-0.2-0.6V6.3l3-4.7c0.9-1.5,1-1.5,1-1.5H271.1"/>
</g>
</svg>
