<?xml version="1.0" encoding="utf-8"?>
<!-- Generator: Adobe Illustrator 23.0.3, SVG Export Plug-In . SVG Version: 6.00 Build 0)  -->
<svg version="1.1" id="레이어_1" xmlns="http://www.w3.org/2000/svg" xmlns:xlink="http://www.w3.org/1999/xlink" x="0px"
	 y="0px" viewBox="0 0 319.6 72.7" style="enable-background:new 0 0 319.6 72.7;" xml:space="preserve">
<style type="text/css">
	.st0{clip-path:url(#SVGID_2_);fill:#001970;}
</style>
<g>
	<defs>
		<rect id="SVGID_1_" y="0" width="319.6" height="72.7"/>
	</defs>
	<clipPath id="SVGID_2_">
		<use xlink:href="#SVGID_1_"  style="overflow:visible;"/>
	</clipPath>
	<path class="st0" d="M96.5,59.5c0,0-3-1.7-3.2-2c0,0-0.3-0.3-0.3-0.7c0,0-0.1-1,0.7-1.4c0,0,0.3-0.4,1.6-0.4c0,0,1,0,1.9,0.6
		L97,54.3c0,0-2.4-0.6-3.7,0.1c-1.3,0.7-1.6,1.6-1.6,2.3c0,0.7,0.4,1.7,1.4,2.3c0,0,2.7,1.4,3.4,2.2c0,0,0.6,0.9,0,2
		c0,0-0.7,0.9-2.1,0.9c0,0-1.6,0-2.6-0.6l0.1,1.1c0,0,1.4,0.2,2.5,0.2c0,0,1.7,0.1,2.6-0.6c0,0,1.1-0.8,1.1-2.1
		C98.1,62.1,98.4,60.6,96.5,59.5"/>
	<path class="st0" d="M101.7,63.8v-4.5h3.3c0.3,0,0.5,0.1,0.5,0.1v-0.9h-3.8v-3.4h3.4c0.3,0,0.5,0.2,0.5,0.2l0-1.1h-5.3
		c0,0,0.2,0.3,0.2,0.8v9c0,0,0,0.2-0.2,0.7h5.7l0.2-1c-0.2,0.2-1,0.2-1,0.2H101.7"/>
	<path class="st0" d="M113.3,54.1c-2.9,0-5.2,2.4-5.2,5.3c0,2.9,2.3,5.3,5.2,5.3c2.9,0,5.2-2.4,5.2-5.3
		C118.5,56.5,116.1,54.1,113.3,54.1 M113.3,63.8c-2.3,0-4.1-2-4.1-4.4c0-2.5,1.8-4.4,4.1-4.4c2.3,0,4.1,2,4.1,4.4
		C117.3,61.8,115.5,63.8,113.3,63.8"/>
	<path class="st0" d="M187.2,54.1c-2.9,0-5.2,2.4-5.2,5.3c0,2.9,2.3,5.3,5.2,5.3c2.9,0,5.2-2.4,5.2-5.3
		C192.4,56.5,190.1,54.1,187.2,54.1 M187.2,63.8c-2.3,0-4.1-2-4.1-4.4c0-2.5,1.8-4.4,4.1-4.4c2.3,0,4.1,2,4.1,4.4
		C191.3,61.8,189.5,63.8,187.2,63.8"/>
	<path class="st0" d="M129.1,54.2h-1.4c0.2,0.1,0.2,0.5,0.2,0.5v6.4c0,1.6-1.3,2.9-2.9,2.9c-1.6,0-2.9-1.3-2.9-2.9l0-0.1l0-6.7
		l-1.1,0v6.9c0,2,1.8,3.7,4,3.7c2.2,0,4-1.7,4-3.7h0v-6.4C129,54.5,129.1,54.2,129.1,54.2"/>
	<path class="st0" d="M133.4,63.9v-9.1c0-0.4,0.2-0.7,0.2-0.7h-1.5c0.2,0.2,0.1,0.5,0.1,0.5v10h5.6l0.3-1c-0.3,0.2-0.9,0.2-0.9,0.2
		H133.4"/>
	<path class="st0" d="M219.7,63.9v-9.1c0-0.4,0.2-0.7,0.2-0.7h-1.5c0.2,0.2,0.1,0.5,0.1,0.5v10h5.6l0.3-1c-0.3,0.2-0.9,0.2-0.9,0.2
		H219.7"/>
	<path class="st0" d="M154.3,54.9v7.4l-7.3-8.1h-1.2c0,0,0.2,0.3,0.2,0.8v8.9c0,0,0,0.4-0.2,0.7v0h1.2c-0.1-0.3-0.1-0.8-0.1-0.8
		v-8.2l8.2,8.9v-9.7c0-0.3,0.1-0.7,0.1-0.7h-1.1C154.3,54.4,154.3,54.9,154.3,54.9"/>
	<path class="st0" d="M203.3,54.9v7.4l-7.3-8.1h-1.2c0,0,0.2,0.3,0.2,0.8v8.9c0,0,0,0.4-0.2,0.7v0h1.2c-0.1-0.3-0.1-0.8-0.1-0.8
		v-8.2l8.2,8.9v-9.7c0-0.3,0.2-0.7,0.2-0.7h-1.1C203.3,54.4,203.3,54.9,203.3,54.9"/>
	<path class="st0" d="M162.5,54.2h-1.3c0,0,0.2,0.4,0,0.9l-3.4,8.6c0,0-0.4,0.8-0.7,1h1.3c-0.1-0.3,0.1-0.6,0.1-0.6l1.4-3.4h4.3
		l1.4,3c0.2,0.6,0.2,1,0.2,1h1.8c-0.7-0.9-1-1.5-1-1.5L162.5,54.2z M160.1,59.9l1.7-4.2l2,4.2H160.1"/>
	<path class="st0" d="M211.6,54.2h-1.3c0,0,0.2,0.4,0,0.9l-3.4,8.6c0,0-0.4,0.8-0.6,1h1.3c-0.1-0.3,0.1-0.6,0.1-0.6l1.4-3.4h4.3
		l1.4,3c0.2,0.6,0.2,1,0.2,1h1.8c-0.7-0.9-1-1.5-1-1.5L211.6,54.2z M209.6,59.9l1.7-4.2l2,4.2H209.6"/>
	<path class="st0" d="M167.8,54.2L167.8,54.2l-0.3,0.9c0,0,0.2-0.1,0.6-0.1h2.8v9.1c0,0,0,0.5-0.1,0.6h1.5c0,0-0.2-0.3-0.2-0.6V55
		h2.2c0,0,0.8,0,1.2,0.2l-0.2-1H167.8"/>
	<path class="st0" d="M179.5,54.2H178c0,0,0.2,0.3,0.2,0.6V64c0,0,0,0.4-0.2,0.7h1.4c0,0-0.2-0.3-0.2-0.7v-9.2
		C179.3,54.7,179.4,54.3,179.5,54.2"/>
	<path class="st0" d="M293.4,59.4c0,0-3-1.7-3.2-2c0,0-0.3-0.3-0.3-0.7c0,0-0.1-1,0.7-1.4c0,0,0.3-0.4,1.7-0.4c0,0,1,0,1.9,0.6
		l-0.1-1.2c0,0-2.4-0.6-3.7,0.1c-1.3,0.6-1.6,1.6-1.6,2.3c0,0.7,0.4,1.7,1.4,2.3c0,0,2.7,1.4,3.4,2.2c0,0,0.6,0.9,0,2
		c0,0-0.7,1-2.1,1c0,0-1.6,0-2.6-0.6l0.1,1.1c0,0,1.4,0.2,2.5,0.2c0,0,1.7,0.1,2.6-0.6c0,0,1.1-0.8,1.1-2.1
		C295.1,62.1,295.3,60.5,293.4,59.4"/>
	<path class="st0" d="M272.6,63.8v-4.5h3.3c0.3,0,0.5,0.1,0.5,0.1v-0.9h-3.8v-3.4h3.4c0.3,0,0.5,0.2,0.5,0.2l0-1.1h-5.3
		c0,0,0.2,0.3,0.2,0.8v9c0,0,0,0.2-0.2,0.7h5.7l0.2-1c-0.2,0.2-1,0.2-1,0.2H272.6"/>
	<path class="st0" d="M238.9,54.1h-1.4c0.2,0.1,0.2,0.5,0.2,0.5V61c0,1.6-1.3,2.9-2.9,2.9c-1.6,0-2.9-1.3-2.9-2.9l0-0.1l0-6.7
		l-1.1,0V61c0,2,1.8,3.7,4,3.7c2.2,0,4-1.7,4-3.7h0v-6.4C238.8,54.4,238.9,54.1,238.9,54.1"/>
	<path class="st0" d="M250.9,54.9v7.4l-7.3-8.1h-1.2c0,0,0.2,0.2,0.2,0.8v8.9c0,0,0,0.5-0.2,0.7v0h1.2c-0.1-0.3-0.1-0.8-0.1-0.8
		v-8.2l8.2,8.9v-9.7c0-0.3,0.1-0.7,0.1-0.7h-1.1C250.9,54.4,250.9,54.9,250.9,54.9"/>
	<path class="st0" d="M301.4,54.2L301.4,54.2l-0.3,0.9c0,0,0.2-0.1,0.6-0.1h2.8v9.1c0,0,0,0.5-0.1,0.6h1.5c0,0-0.2-0.3-0.2-0.6V55
		h2.2c0,0,0.8,0,1.2,0.2l-0.2-1H301.4"/>
	<path class="st0" d="M299,54.1h-1.4c0,0,0.2,0.3,0.2,0.6v9.2c0,0,0,0.4-0.2,0.7h1.4c0,0-0.2-0.3-0.2-0.7v-9.2
		C298.8,54.7,298.9,54.3,299,54.1"/>
	<path class="st0" d="M257,54.1h-1.4c0,0,0.2,0.3,0.2,0.6v9.2c0,0,0,0.4-0.2,0.7h1.4c0,0-0.2-0.3-0.2-0.7v-9.2
		C256.8,54.7,256.8,54.3,257,54.1"/>
	<path class="st0" d="M267.8,54.9l-3.6,7.9l-3.6-7.9c-0.3-0.5-0.1-0.7-0.1-0.7H259c0,0,0.4,0.6,0.8,1.6l4.4,9.2l4.5-9.7
		c0,0,0.4-0.8,0.7-1H268C268,54.1,268.1,54.4,267.8,54.9"/>
	<path class="st0" d="M286.1,63l-3.3-3.8c1,0,2-0.9,2-0.9c0.8-0.6,0.8-1.8,0.8-1.8c-0.1-1.1-0.8-1.6-0.8-1.6
		c-0.8-0.8-2.1-0.8-2.1-0.8c-2,0-2.9,0.1-2.9,0.1s0.2,0.2,0.2,0.5v9.4c0,0.3-0.1,0.5-0.1,0.5h1.4c-0.2-0.3-0.2-0.5-0.2-0.5v-5.4h0
		l0,0v-3.5l0-0.1c0,0,0-0.3,1-0.3c0,0,1.1,0,1.5,0.5c0,0,0.6,0.5,0.6,1.2c0,0,0,1.1-0.5,1.5c0,0-0.7,0.7-2.6,0.7l4.7,5.8h1.7
		C287.2,64.3,286.1,63,286.1,63"/>
	<path class="st0" d="M317,54.6l-2.3,3.8l-2.4-3.8c-0.2-0.3-0.1-0.5-0.1-0.5h-1.7c0,0,0.4,0.3,0.6,0.8l2.8,4.3v4.8
		c0,0,0,0.4-0.1,0.6h1.5c-0.1-0.1-0.2-0.5-0.2-0.5v-4.9l2.5-3.9c0.8-1.3,0.8-1.2,0.8-1.2h-1.4C317.1,54.3,317,54.6,317,54.6"/>
	<path class="st0" d="M100.9,16c-0.1-1.3,0-3.8,0-3.8h-1.8h-1.8c0,0,0.1,2.5,0,3.8c-0.3,4.1-1.9,10.6-8.1,14.9l1.8,2.7
		c0,0,5.3-2.9,8.1-10.1c2.8,7.3,8.1,10.1,8.1,10.1l1.8-2.7C102.8,26.6,101.2,20.1,100.9,16"/>
	<path class="st0" d="M154.2,20.4c3.6,0,6.4-2.9,6.4-6.4c0-3.6-2.9-6.5-6.4-6.5c-3.6,0-6.5,2.9-6.5,6.5
		C147.7,17.5,150.6,20.4,154.2,20.4 M154.2,10.6c1.9,0,3.4,1.5,3.4,3.4c0,1.9-1.5,3.4-3.4,3.4c-1.9,0-3.4-1.5-3.4-3.4
		C150.8,12.1,152.3,10.6,154.2,10.6"/>
	<path class="st0" d="M242.2,23.2c0,3.5,2.8,6.3,6.3,6.3s6.3-2.8,6.3-6.3c0-3.5-2.8-6.3-6.3-6.3S242.2,19.7,242.2,23.2 M251.7,23.2
		c0,1.8-1.4,3.2-3.2,3.2c-1.8,0-3.2-1.4-3.2-3.2c0-1.8,1.4-3.2,3.2-3.2C250.3,20,251.7,21.5,251.7,23.2"/>
	<path class="st0" d="M313.8,29.5c0,0-0.4,6.1-2,9.7h3.4c1.6-4.2,1.8-9.8,1.8-9.8V13.1h-2h-1.2h-19.4v3h19.4V29.5"/>
	<polygon class="st0" points="114,43.7 117.5,43.7 117.5,10.6 114,10.6 114,20.2 107.6,20.2 107.6,23.5 114,23.5 	"/>
	<polygon class="st0" points="209.6,24.3 212.2,24.3 212.2,43.7 215.8,43.7 215.8,10.6 212.2,10.6 212.2,21.1 209.6,21.1 
		209.6,10.6 206,10.6 206,43.7 209.6,43.7 	"/>
	<polygon class="st0" points="262.2,43.7 265.8,43.7 265.8,33.7 265.8,30.7 264.5,30.7 264.5,19.6 269.2,19.6 269.2,16.7 
		264.5,16.7 264.5,10.6 260.9,10.6 260.9,30.7 241,30.7 241,33.7 262.2,33.7 	"/>
	<polygon class="st0" points="165.8,40.4 145.5,40.4 145.5,37.9 165.8,37.9 165.8,35.8 165.8,34.8 165.8,32 165.8,28.9 162.6,28.9 
		155.8,28.9 155.8,24.7 167.5,24.7 167.5,21.6 140.6,21.6 140.6,24.7 152.3,24.7 152.3,28.9 142.3,28.9 142.3,32 162.6,32 
		162.6,34.8 142.3,34.8 142.3,36.6 142.2,36.6 142.2,43.5 142.3,43.5 145.5,43.5 165.8,43.5 	"/>
	<polygon class="st0" points="308.3,39.2 308.3,24.4 304.9,24.4 304.9,39.2 301,39.2 301,24.4 297.6,24.4 297.6,39.2 293.1,39.2 
		293.1,42.2 319.6,42.2 319.6,39.2 	"/>
	<polygon class="st0" points="256.6,13.2 249.9,13.2 249.9,10.2 246.4,10.2 246.4,13.2 239.7,13.2 239.7,16.1 256.6,16.1 	"/>
	<polygon class="st0" points="202.6,33.4 202.6,30.3 193,30.3 193,16.5 202.2,16.5 202.2,13.4 193,13.4 189.9,13.4 189.5,13.4 
		189.5,33.5 193,33.5 193,33.4 	"/>
	<path class="st0" d="M16.4,36.9h-2.3v2.9h2.3V36.9z M6.4,58.8c3.3,4.4,9.1,3.4,9.1,3.4c0.7-6.2-1.8-8.2-1.8-8.2
		c-1.6,3.3,0.8,7.2,0.8,7.2C10.9,58,6.4,58.8,6.4,58.8 M12.4,25l-1.1-1C8.6,24.6,6.6,27,6.6,27c1.3-3,0.6-5.8,0-7.3L5.8,19
		c-2.3,4.4,0.3,9.3,0.3,9.3C9.7,27.4,11.5,26,12.4,25 M19.9,65.2c-0.1-1.9-0.5-3.3-0.9-4.4l-2.2,0c0.6,2.1,2,3.7,2,3.7
		c-4-2.6-8.4-1-8.4-1C14.3,67.2,19.9,65.2,19.9,65.2 M28,39.4v1.1h-1.2v1.3h1.1v1.1h-1.1v1.3H28v1.1h-2.4v-6l-1.7,6h-1l-1.7-6h1.3
		l0.7,2.9c0.1,0.3,0.1,0.7,0.2,1h0c0.1-0.3,0.1-0.7,0.2-1l0.7-2.9H28z M29.5,52.7h-1.3l-0.2-1h-1.2l-0.2,1h-1.2l1.4-6h1.2L29.5,52.7
		z M28.3,39.4h1.2c0.8,0,2.1,0.1,2.1,1.7c0,0.7-0.3,1.2-0.8,1.5l1,2.7h-1.2l-1-2.8h0v2.8h-1.2V39.4z M32,39.4h1.2v6H32V39.4z
		 M31.1,52.8c-0.3,0-0.7-0.1-1-0.3v-1.1c0.3,0.2,0.5,0.3,0.9,0.3c0.4,0,0.7-0.3,0.7-0.7c0-0.5-0.4-0.6-0.7-0.9
		c-0.7-0.5-1.1-0.9-1.1-1.8c0-0.9,0.5-1.8,1.6-1.8c0.4,0,0.7,0.1,1,0.3V48c-0.2-0.2-0.5-0.4-0.9-0.4c-0.4,0-0.6,0.2-0.6,0.6
		c0,1,1.8,1,1.8,2.7C32.8,52,32.2,52.8,31.1,52.8 M25.2,47.8h-0.9v4.9h-1.2v-4.9h-0.9v-1.1h3V47.8z M19.3,32.5v25.1h12.4
		c1.4,0,2.9,1.1,2.9,1.1V38.7c-7.5-0.2-9.1-6.2-9.1-6.2H19.3z M48.2,19.5l-3.7,4.1l0,6.5c0,0-0.1,1.1-0.3,1.6h2.4l6.9-6.9L48.2,19.5
		z M16.4,50.6h-2.3v2.9h2.3V50.6z M20.2,22.5l4.8,4.7v-3.7l-4.8-4.8V22.5z M16.4,63c0.3,0,0.5-0.2,0.5-0.5c0-0.3-0.2-0.5-0.5-0.5
		s-0.5,0.2-0.5,0.5C15.8,62.8,16.1,63,16.4,63 M7.7,24.3c0,0.3,0.2,0.5,0.5,0.5c0.3,0,0.5-0.2,0.5-0.5c0-0.3-0.2-0.5-0.5-0.5
		C7.9,23.8,7.7,24,7.7,24.3 M16.4,59C16.4,59.3,16.5,59,16.4,59l0.1-3.6l-0.6,0.6C16.2,57,16.3,58.3,16.4,59 M25,29.1v-0.7l-3.5-3.5
		h-8.3l4.7,4.3H25z M7,19c0,0-0.3-1.9,1.7-4.8H1.8C1.8,14.2,2.1,15,7,19 M1,29.6c-1.2,5.3,3.3,9.1,3.3,9.1c5.2-3.4,5.1-6.6,5.1-6.6
		c-3.5,0.9-5,5.3-5,5.3C4.6,32.6,1,29.6,1,29.6 M5.1,32.1c1.1-4.7-2-8.2-2-8.2c-2.1,5,1.6,9.6,1.6,9.6c5.7-2.5,6.2-5.6,6.2-5.6
		C7.3,28.1,5.1,32.1,5.1,32.1 M5.5,34.3c0-0.3-0.2-0.5-0.5-0.5c-0.3,0-0.5,0.2-0.5,0.5c0,0.3,0.2,0.5,0.5,0.5
		C5.3,34.9,5.5,34.6,5.5,34.3 M33.3,61.8h3.6c0,0,0.2-1.6,1.2-1.6H53V34.1l-1.5-1.6v25.9H38.2c0,0-1.8,0.2-3.2,1.9
		c0,0-1.1-1.6-3.4-1.8h-13V32.8L17,34.4v25.8h14.5C31.5,60.2,33.3,60.3,33.3,61.8 M10.1,13.8c-3.7,4-1.7,9.6-1.7,9.6
		c6.2-0.4,7.7-3.2,7.7-3.2c-3.5-1-7,2-7,2C11.7,18.2,10.1,13.8,10.1,13.8 M27.5,49.1l-0.1-0.9h0l-0.1,0.9L27,50.7h0.8L27.5,49.1z
		 M61.8,60.4c0.9-0.6,1.8-1.3,2.5-2.4c0,0-2-0.3-4.3,0.5L61.8,60.4z M65.6,36.7c0,0-1.6-4.3-5.1-5.1c0,0,0,3.2,5.3,6.5
		c0,0,4.4-3.9,3.1-9.2C68.8,28.8,65.3,31.9,65.6,36.7 M59,49.5c0,0-2.1,2.5-0.2,8.4c0,0,5.9-0.2,8.3-5.1c0,0-4.6,0.1-7.5,4
		C59.6,56.8,61.2,52.4,59,49.5 M65.4,42c0,0-0.9-4.5-4.2-6c0,0-0.6,3.2,4,7.3c0,0,5-3.1,4.6-8.5C69.9,34.8,66,37.2,65.4,42
		 M61.3,40.7c0,0-1.1,3,2.7,7.9c0,0,5.5-2.2,6-7.6c0,0-4.3,1.7-5.7,6.3C64.4,47.2,64.3,42.6,61.3,40.7 M64.8,44.7
		c0.3,0,0.5-0.2,0.5-0.5s-0.2-0.5-0.5-0.5c-0.3,0-0.5,0.2-0.5,0.5S64.5,44.7,64.8,44.7 M61.6,54c0-0.3-0.2-0.5-0.5-0.5
		c-0.3,0-0.5,0.2-0.5,0.5c0,0.3,0.2,0.5,0.5,0.5C61.4,54.5,61.6,54.3,61.6,54 M15.7,21.7L15.7,21.7c-0.2,0.2-1.7,1.5-4,1.8l0.8,0.7
		l8.2,0l-2.6-2.6h0l-1.3-1.3C16.9,20.3,16,21.5,15.7,21.7 M47.5,48.3L47.5,48.3l-0.1,0.9l-0.3,1.6H48l-0.3-1.6L47.5,48.3z
		 M30.4,41.1c0-0.4-0.2-0.8-0.8-0.7h-0.2V42l0.2,0C30.2,42,30.4,41.6,30.4,41.1 M42.1,44.5c0.6,0,0.6-0.4,0.6-0.9v-4.1h1.2v4.4
		c0,0.6-0.1,1.7-1.8,1.7c-1.1,0-1.8-0.5-1.8-1.6v-4.4h1.2v3.9C41.5,43.8,41.4,44.5,42.1,44.5 M45.1,46.7v1.1h-1.2v1.3H45v1.1h-1.1
		v1.3h1.2v1.1h-2.4v-6H45.1z M44.8,39.5h1.3l0.3,0.8c0.1,0.3,0.2,0.6,0.3,0.9h0c0.1-0.3,0.2-0.6,0.3-0.9l0.4-0.8h1.3l-1.3,2.9
		l1.4,3.1h-1.4L47,44.5c-0.1-0.3-0.2-0.6-0.3-0.9h0c-0.1,0.3-0.2,0.6-0.3,0.9l-0.4,0.9h-1.3l1.3-3.1L44.8,39.5z M48.4,52.7l-0.2-1
		H47l-0.2,1h-1.2l1.4-6h1.2l1.4,6H48.4z M40.8,52.7l-0.3-4.3h0l-0.2,1.5l-0.5,2.8h-0.9l-0.6-2.9l-0.2-1.3v-0.1h0l-0.2,4.3h-1.3
		l0.5-6h1.6l0.6,3.5h0l0.5-3.5h1.6l0.6,6H40.8z M37,39.5h1.2v4.9h1.2v1.1H37V39.5z M35.5,38.5v20.3c0,0,1.1-1.1,2.7-1.1h12.6V32.5
		H44C44,32.5,42.1,38.4,35.5,38.5 M19.4,18.1c0,0-0.5,0.8-2.6,1.2l2.6,2.4V18.1z M30.2,15.8v-2.7h8.3v3.8h2.7v2.7h-2.7v1.2h2.7v3
		h-2.7v8.9h-2.3l-3.2-3.2l-2.9,2.9l-2.1-2.1l4.8-4.8l2.5,2.5V15.8H30.2z M25.9,28.5c0,6.3,4,9.2,8.9,9.2c4.9,0,8.9-2.9,8.9-9.2v-18
		H25.9C25.9,10.5,25.9,22.2,25.9,28.5 M18.4,29.7l2.1,1.9h4.8c-0.2-0.4-0.2-1.8-0.2-1.8L18.4,29.7z M56.8,53.6c0,0-0.4,0.4-0.5,1
		l1.1,1.2C57.3,55,57.1,54.3,56.8,53.6 M11.6,58.4c1.8-6-0.4-8.4-0.4-8.4c-2.1,3-0.5,7.3-0.5,7.3c-2.9-3.8-7.6-3.8-7.6-3.8
		C5.8,58.4,11.6,58.4,11.6,58.4 M11.4,19c6.2,0.7,8.2-1.8,8.2-1.8c-3.3-1.6-7.2,0.8-7.2,0.8c3.3-3.5,2.4-8.1,2.4-8.1
		C10.4,13.2,11.4,19,11.4,19 M24.3,62.6c0.3,3.6,4.3,5.9,4.3,5.9c-4.7-1.1-8.2,2-8.2,2c5,2.1,9.6-1.6,9.6-1.6
		C27.4,63.1,24.3,62.6,24.3,62.6 M8.5,54.1c2.8-5.6,1.1-8.3,1.1-8.3c-2.6,2.5-1.7,7.1-1.7,7.1c-2.2-4.3-6.8-5.1-6.8-5.1
		C2.8,53,8.5,54.1,8.5,54.1 M21,60.8l-0.8,0c0,3.4,3.2,6.1,3.2,6.1C19,65.1,15,67.4,15,67.4c4.6,3,9.7,0.1,9.7,0.1
		C23.7,63.3,22,61.5,21,60.8 M9.6,63.4c0,0,0.8-0.5,2.1-0.7l-1.4-0.3l-0.1,0.2c0.1-0.1,0.1-0.2,0.1-0.2l-6,6.3c0,0-0.7,1,0,1.6
		c0,0,0.6,0.5,1.4-0.1l5.9-5.1C10.9,64.8,9.6,63.8,9.6,63.4 M6.2,49.2c3.7-5,2.5-8,2.5-8c-3,2.1-2.9,6.7-2.9,6.7
		C4.4,43.3,0,41.8,0,41.8C0.7,47.2,6.2,49.2,6.2,49.2 M9.3,13.5L2.2,6.4c0,0-3,2.1-0.7,7.1H9.3z M12.6,10.9L8.4,6.7
		C5.8,4.1,2.7,5.8,2.7,5.8L11,14C11.5,11.9,12.6,10.9,12.6,10.9 M4.8,44.8c0,0.3,0.2,0.5,0.5,0.5c0.3,0,0.5-0.2,0.5-0.5
		c0-0.3-0.2-0.5-0.5-0.5C5.1,44.3,4.8,44.5,4.8,44.8 M4.8,44.1c4.5-4.3,3.9-7.4,3.9-7.4c-3.3,1.5-4,6-4,6C4.1,38,0,35.7,0,35.7
		C-0.3,41.1,4.8,44.1,4.8,44.1 M8.8,54.6c0,0.3,0.2,0.5,0.5,0.5c0.3,0,0.5-0.2,0.5-0.5c0-0.3-0.2-0.5-0.5-0.5
		C9,54.1,8.8,54.3,8.8,54.6 M54.2,62.5c0.3,0,0.5-0.2,0.5-0.5c0-0.3-0.2-0.5-0.5-0.5c-0.3,0-0.5,0.2-0.5,0.5
		C53.7,62.3,53.9,62.5,54.2,62.5 M57.1,61.8l-1.9-1.6c0,0.5,0.1,1,0.2,1.6C55.4,61.8,56.1,61.9,57.1,61.8 M62.4,52.2
		c0,0,0.7-4.5-1.9-7c0,0-1.6,2.8,1.3,8.3c0,0,5.8-1.2,7.3-6.5C69.1,47,64.5,47.9,62.4,52.2 M26.2,67.4c0-0.3-0.2-0.5-0.5-0.5
		c-0.3,0-0.5,0.2-0.5,0.5c0,0.3,0.2,0.5,0.5,0.5C26,67.9,26.2,67.7,26.2,67.4 M51.9,64.1c0,0,1.2-1.4,1.8-3.4l-2.2,0
		c-0.3,1.1-0.6,2.5-0.7,4.2c0,0,4.8,1.6,8.6-1.2l-1.5-1.2C56.3,62.4,54,62.7,51.9,64.1 M53.5,55.3v2.9l12.9,10.7h2.6L55.9,55.3H53.5
		z M34.6,67.8v1.4c-0.6-1-3.1-4.6-5.8-4.7c0,0,0.9,3.2,5.1,5.1c0,0-5.2,0.3-7.3,3.2c0,0,4.5,0.4,8-3.1v2.2h1.4v-2.4v-1.6H34.6z
		 M36.8,69.5c4.1-1.9,5-5.1,5-5.1c-3.2,0.2-5.9,5-5.9,5c3.6,3.7,8.2,3.2,8.2,3.2C42,69.8,36.8,69.5,36.8,69.5 M42.2,68.3
		c0,0,4-2.3,4.2-6c0,0-3.1,0.6-5.5,6.3c0,0,4.6,3.7,9.6,1.4C50.4,70.1,46.8,67.2,42.2,68.3 M47.2,66.6c0,0,3.1-2.6,3.1-5.9l-1.1,0
		c-1,0.9-2.4,2.7-3.3,6.5c0,0,5.2,2.8,9.7-0.3C55.7,66.9,51.6,64.7,47.2,66.6 M44.5,67.2c0,0.3,0.2,0.5,0.5,0.5
		c0.3,0,0.5-0.2,0.5-0.5c0-0.3-0.2-0.5-0.5-0.5C44.7,66.6,44.5,66.9,44.5,67.2 M63.7,27.6c0,0,2.8-5.2-0.3-9.7c0,0-2.3,4.1-0.3,8.5
		c0,0-3-3.5-6.6-3.1C56.5,23.3,57.6,26.3,63.7,27.6 M50.5,15.5l1.6-1.7c-1.4-0.3-4-0.8-6.2,0.8C46,14.6,47.1,15.8,50.5,15.5
		 M61.4,24.2c0.3,0,0.5-0.2,0.5-0.5c0-0.3-0.2-0.5-0.5-0.5c-0.3,0-0.5,0.2-0.5,0.5C60.9,24,61.1,24.2,61.4,24.2 M65.2,32.7
		c0,0,3.7-4.6,1.4-9.6c0,0-2.9,3.6-1.8,8.3c0,0-2.3-4-6-4.2C58.8,27.2,59.4,30.4,65.2,32.7 M57.2,6.7c1.7,0.8,3.1,0,3.1,0
		C62.2,5.7,63.6,7,63.6,7c1.3,1,1.1,2.4,1.1,2.4c0,1-0.3,1.1-0.3,1.1C63.8,11,64,10.3,64,10.3c0,0,0.1-0.5,0.1-0.5
		C64.3,7.4,62.2,7,62.2,7c-2.2-0.4-2.8,1.7-2.8,1.7c-0.1,0.6-0.2,1.1-0.1,1.5l-2.8-2.8l0.1,2.4l6.3,6.3h2.2l-2.3-2.3
		c1.2,0.4,2.3,0.4,2.3,0.4c3.2-0.2,3.5-3.3,3.5-3.3c0.8-3.2-2.2-5.8-2.2-5.8c-2-1.7-5.1-1.9-5.1-1.9C57.1,2.8,55.5,0,55.5,0
		c-0.5,1.3-0.4,3.1-0.4,3.1C55.4,6,57.2,6.7,57.2,6.7 M64.4,33.6c0,0.3,0.2,0.5,0.5,0.5c0.3,0,0.5-0.2,0.5-0.5
		c0-0.3-0.2-0.5-0.5-0.5C64.6,33.1,64.4,33.3,64.4,33.6 M52.5,13.3l1.3-1.3c-0.6-1.9-1.7-4.2-4.5-5.6C49.3,6.4,49.2,10.5,52.5,13.3
		 M55.8,50.9h-2.3v2.9h2.3V50.9z M57.6,22.2c1,0.3,2.2,0.5,3.8,0.6c0,0,0.7-2,0.4-4.5l-2,1.9c0.2,0.5,0.5,1,0.8,1.5
		c0,0-0.5-0.5-1.4-0.9L57.6,22.2z M14.2,16c0,0.3,0.2,0.5,0.5,0.5s0.5-0.2,0.5-0.5c0-0.3-0.2-0.5-0.5-0.5S14.2,15.7,14.2,16
		 M62,16.7l-5.9-5.9l-5.3,5.7l5.6,5.6L62,16.7z M49.5,16.9l-1.2,1.4l6.4,6.4l1.3-1.3L49.5,16.9z M55.7,36.7h-2.3v2.9h2.3V36.7z
		 M28.3,9.1c0,0,1.8,1.2,5-1C33.3,8.1,29.4,6.5,28.3,9.1 M48.7,11.1c0,0-1.8-0.5-4,0.2l0,2c1.4,0,2.8-0.4,5.3-1.7
		c0,0-1.2-5.8-6.4-7.3C43.5,4.5,44.4,9,48.7,11.1 M25.1,13.7l0-2c-2.2-0.7-4.5-0.2-4.5-0.2c4.3-2.2,5-6.8,5-6.8
		c-5.2,1.6-6.3,7.4-6.3,7.4C21.9,13.3,23.8,13.6,25.1,13.7 M23.5,14.8c-3-2.1-7.3-0.5-7.3-0.5C20,11.4,20,6.8,20,6.8
		c-4.9,2.5-4.9,8.4-4.9,8.4C21.1,16.9,23.5,14.8,23.5,14.8 M23.1,10.4c0,0.3,0.2,0.5,0.5,0.5c0.3,0,0.5-0.2,0.5-0.5S24,9.9,23.7,9.9
		C23.4,9.9,23.1,10.2,23.1,10.4 M24.4,9.9l4.1-0.1c-1.3-0.8-2.7-0.7-2.7-0.7c4.6-1.4,5.9-5.5,5.9-5.5c-5.4,0.7-7.5,6.2-7.5,6.2
		C24.4,9.8,24.4,9.8,24.4,9.9 M46.3,10.2c0-0.3-0.2-0.5-0.5-0.5c-0.3,0-0.5,0.2-0.5,0.5c0,0.3,0.2,0.5,0.5,0.5
		C46.1,10.7,46.3,10.5,46.3,10.2 M43.4,9.1c0,0-1.4,0-2.7,0.7l4.1,0.1c0.1-0.1,0.1-0.1,0.1-0.1c0,0-2-5.5-7.5-6.2
		C37.5,3.6,38.9,7.7,43.4,9.1 M34.6,8.5c0.4,0,0.7-0.3,0.7-0.7C35.4,7.3,35,7,34.6,7c-0.4,0-0.7,0.3-0.7,0.7
		C33.9,8.1,34.2,8.5,34.6,8.5 M41,8.8C39.8,6.3,36,8,36,8C39.2,10.1,41,8.8,41,8.8"/>
</g>
</svg>
