<?xml version="1.0" encoding="utf-8"?>
<!-- Generator: Adobe Illustrator 25.2.3, SVG Export Plug-In . SVG Version: 6.00 Build 0)  -->
<svg version="1.1" id="Layer_1" xmlns="http://www.w3.org/2000/svg" xmlns:xlink="http://www.w3.org/1999/xlink" x="0px" y="0px"
	 viewBox="0 0 319.62 72.66" style="enable-background:new 0 0 319.62 72.66;" xml:space="preserve">
<style type="text/css">
	.st0{fill:#FFFFFF;}
</style>
<g>
	<path class="st0" d="M96.46,59.49c0,0-3.04-1.75-3.2-2.03c0,0-0.32-0.28-0.32-0.71c0,0-0.11-0.96,0.68-1.37
		c0,0,0.34-0.41,1.65-0.41c0,0,1.02,0.01,1.86,0.57l-0.08-1.19c0,0-2.42-0.58-3.73,0.06c-1.32,0.66-1.63,1.64-1.63,2.34
		c0,0.69,0.39,1.71,1.44,2.28c0,0,2.71,1.35,3.38,2.17c0,0,0.63,0.87,0.02,1.97c0,0-0.66,0.95-2.12,0.95c0,0-1.59,0-2.59-0.57
		l0.1,1.11c0,0,1.44,0.22,2.51,0.22c0,0,1.75,0.06,2.61-0.62c0,0,1.11-0.84,1.11-2.14C98.13,62.13,98.36,60.59,96.46,59.49"/>
	<path class="st0" d="M101.73,63.84v-4.51h3.3c0.32,0,0.48,0.13,0.48,0.13v-0.93h-3.78V55.1h3.41c0.3,0,0.54,0.19,0.54,0.19
		l-0.04-1.11h-5.27c0,0,0.19,0.35,0.19,0.78V64c0,0,0.04,0.15-0.2,0.68h5.68l0.15-1.02c-0.25,0.2-1.02,0.19-1.02,0.19L101.73,63.84"
		/>
	<path class="st0" d="M113.26,54.12c-2.88,0-5.2,2.36-5.2,5.26c0,2.9,2.33,5.25,5.2,5.25c2.88,0,5.21-2.35,5.21-5.25
		C118.47,56.48,116.14,54.12,113.26,54.12L113.26,54.12z M113.26,63.83c-2.26,0-4.09-1.99-4.09-4.44c0-2.46,1.83-4.45,4.09-4.45
		c2.26,0,4.09,1.99,4.09,4.45C117.34,61.84,115.52,63.83,113.26,63.83"/>
	<path class="st0" d="M187.24,54.12c-2.87,0-5.21,2.36-5.21,5.26c0,2.9,2.33,5.25,5.21,5.25s5.21-2.35,5.21-5.25
		C192.44,56.48,190.11,54.12,187.24,54.12L187.24,54.12z M187.24,63.83c-2.26,0-4.09-1.99-4.09-4.44c0-2.46,1.83-4.45,4.09-4.45
		s4.09,1.99,4.09,4.45C191.32,61.84,189.49,63.83,187.24,63.83"/>
	<path class="st0" d="M129.08,54.19h-1.4c0.15,0.1,0.17,0.52,0.17,0.52v6.37c0,1.58-1.28,2.86-2.86,2.86s-2.86-1.28-2.86-2.86
		l0.01-0.15l-0.02-6.71l-1.13-0.02v6.92c0.03,2.03,1.81,3.67,3.99,3.67c2.21,0,4-1.67,4-3.72h-0.01V54.7
		C128.96,54.47,129.08,54.19,129.08,54.19"/>
	<path class="st0" d="M133.37,63.91v-9.05c0-0.45,0.18-0.66,0.18-0.66h-1.46c0.15,0.21,0.12,0.45,0.12,0.45v10.03h5.61l0.33-0.95
		c-0.35,0.2-0.89,0.18-0.89,0.18H133.37"/>
	<path class="st0" d="M219.7,63.91v-9.05c0-0.45,0.18-0.66,0.18-0.66h-1.46c0.15,0.21,0.12,0.45,0.12,0.45v10.03h5.6l0.34-0.95
		c-0.35,0.2-0.9,0.18-0.9,0.18H219.7"/>
	<path class="st0" d="M154.33,54.92v7.35L147,54.18h-1.19c0,0,0.21,0.25,0.21,0.8v8.95c0,0-0.02,0.45-0.15,0.71v0.01h1.16
		c-0.13-0.28-0.13-0.76-0.13-0.76v-8.23l8.23,8.94v-9.71c0-0.3,0.14-0.7,0.14-0.7h-1.12C154.34,54.38,154.33,54.92,154.33,54.92"/>
	<path class="st0" d="M203.3,54.92v7.35l-7.33-8.09h-1.19c0,0,0.21,0.25,0.21,0.8v8.95c0,0-0.02,0.45-0.15,0.71v0.01H196
		c-0.13-0.28-0.13-0.76-0.13-0.76v-8.23l8.23,8.94v-9.71c0-0.3,0.15-0.7,0.15-0.7h-1.13C203.32,54.38,203.3,54.92,203.3,54.92"/>
	<path class="st0" d="M162.45,54.18h-1.34c0,0,0.17,0.44,0.04,0.87l-3.4,8.64c0,0-0.41,0.81-0.66,0.99h1.27
		c-0.07-0.33,0.12-0.65,0.12-0.65l1.39-3.38h4.29l1.45,2.98c0.24,0.61,0.18,1.04,0.18,1.04h1.79c-0.67-0.88-0.95-1.52-0.95-1.52
		L162.45,54.18L162.45,54.18z M160.14,59.86l1.67-4.24l2.02,4.24H160.14"/>
	<path class="st0" d="M211.61,54.18h-1.33c0,0,0.17,0.44,0.04,0.87l-3.39,8.64c0,0-0.41,0.81-0.65,0.99h1.26
		c-0.07-0.33,0.12-0.65,0.12-0.65l1.38-3.38h4.28l1.44,2.98c0.24,0.61,0.18,1.04,0.18,1.04h1.79c-0.68-0.88-0.96-1.52-0.96-1.52
		L211.61,54.18L211.61,54.18z M209.56,59.86l1.67-4.24l2.01,4.24H209.56"/>
	<path class="st0" d="M167.82,54.2l-0.08,0.02l-0.25,0.9c0,0,0.22-0.13,0.64-0.13h2.82v9.11c0,0-0.04,0.47-0.1,0.6h1.51
		c0,0-0.16-0.35-0.16-0.63v-9.05h2.2c0,0,0.83,0,1.18,0.22l-0.21-1.04H167.82"/>
	<path class="st0" d="M179.49,54.18h-1.45c0,0,0.18,0.29,0.18,0.58v9.22c0,0-0.02,0.43-0.18,0.72h1.44c0,0-0.18-0.29-0.18-0.75
		v-9.21C179.31,54.74,179.37,54.3,179.49,54.18"/>
	<path class="st0" d="M293.41,59.43c0,0-3.04-1.74-3.2-2.02c0,0-0.32-0.28-0.32-0.71c0,0-0.11-0.96,0.68-1.37
		c0,0,0.33-0.41,1.65-0.41c0,0,1.02,0.01,1.87,0.57l-0.09-1.2c0,0-2.43-0.58-3.74,0.08c-1.31,0.65-1.63,1.63-1.63,2.32
		s0.4,1.7,1.45,2.29c0,0,2.71,1.36,3.38,2.17c0,0,0.63,0.87,0.02,1.97c0,0-0.66,0.95-2.13,0.95c0,0-1.59,0-2.59-0.57l0.09,1.11
		c0,0,1.45,0.22,2.51,0.22c0,0,1.74,0.06,2.6-0.62c0,0,1.12-0.84,1.12-2.13C295.08,62.08,295.3,60.54,293.41,59.43"/>
	<path class="st0" d="M272.57,63.83v-4.51h3.3c0.32,0,0.49,0.13,0.49,0.13v-0.93h-3.79V55.1h3.41c0.29,0,0.54,0.18,0.54,0.18
		l-0.05-1.11h-5.27c0,0,0.2,0.34,0.2,0.78v9.04c0,0,0.04,0.16-0.2,0.68h5.68l0.15-1.04c-0.24,0.21-1.03,0.2-1.03,0.2L272.57,63.83"
		/>
	<path class="st0" d="M238.87,54.12h-1.4c0.15,0.09,0.17,0.53,0.17,0.53v6.36c0,1.59-1.28,2.86-2.86,2.86s-2.86-1.27-2.86-2.86
		l0.01-0.14l-0.02-6.72l-1.12-0.02v6.92c0.03,2.03,1.8,3.67,3.99,3.67c2.21,0,4-1.67,4-3.73h-0.01v-6.36
		C238.76,54.41,238.87,54.12,238.87,54.12"/>
	<path class="st0" d="M250.86,54.91v7.35l-7.34-8.09h-1.19c0,0,0.21,0.24,0.21,0.8v8.95c0,0-0.02,0.46-0.15,0.72v0.01h1.16
		c-0.13-0.28-0.13-0.75-0.13-0.75v-8.24l8.24,8.94v-9.72c0-0.29,0.14-0.69,0.14-0.69h-1.12C250.88,54.37,250.86,54.91,250.86,54.91"
		/>
	<path class="st0" d="M301.37,54.17l-0.09,0.01l-0.25,0.9c0,0,0.22-0.12,0.64-0.12h2.83v9.11c0,0-0.05,0.46-0.1,0.59h1.51
		c0,0-0.16-0.35-0.16-0.63v-9.05h2.2c0,0,0.83,0,1.18,0.22l-0.2-1.04L301.37,54.17"/>
	<path class="st0" d="M299.01,54.13h-1.45c0,0,0.19,0.3,0.19,0.59v9.21c0,0-0.03,0.43-0.18,0.73H299c0,0-0.17-0.3-0.17-0.75V54.7
		C298.83,54.7,298.89,54.26,299.01,54.13"/>
	<path class="st0" d="M256.98,54.13h-1.45c0,0,0.18,0.3,0.18,0.59v9.21c0,0-0.03,0.43-0.18,0.73h1.44c0,0-0.18-0.3-0.18-0.75V54.7
		C256.79,54.7,256.85,54.26,256.98,54.13"/>
	<path class="st0" d="M267.83,54.88l-3.56,7.86l-3.62-7.86c-0.28-0.51-0.14-0.73-0.14-0.73h-1.53c0,0,0.39,0.63,0.82,1.56l4.38,9.18
		l4.54-9.75c0,0,0.41-0.77,0.74-0.99h-1.49C267.97,54.15,268.12,54.37,267.83,54.88"/>
	<path class="st0" d="M286.08,63.03l-3.28-3.84c0.97,0,1.99-0.86,1.99-0.86c0.75-0.64,0.75-1.8,0.75-1.8
		c-0.07-1.09-0.77-1.63-0.77-1.63c-0.81-0.82-2.1-0.76-2.1-0.76c-2.03,0-2.86,0.1-2.86,0.1s0.17,0.19,0.17,0.49v9.39
		c0,0.26-0.12,0.51-0.12,0.51h1.44c-0.17-0.25-0.16-0.49-0.16-0.49v-5.37h0.01l-0.01-0.01v-3.48l0.02-0.11c0,0,0.02-0.26,0.98-0.26
		c0,0,1.07-0.02,1.52,0.5c0,0,0.64,0.53,0.64,1.18c0,0,0.04,1.08-0.53,1.47c0,0-0.69,0.7-2.61,0.71l4.71,5.84h1.65
		C287.15,64.32,286.08,63.03,286.08,63.03"/>
	<path class="st0" d="M317.03,54.56l-2.26,3.85l-2.39-3.75c-0.17-0.32-0.1-0.49-0.1-0.49h-1.7c0,0,0.37,0.32,0.62,0.77l2.77,4.32
		v4.84c0,0,0.01,0.36-0.1,0.55h1.49c-0.12-0.12-0.16-0.51-0.16-0.51v-4.86l2.52-3.9c0.77-1.27,0.84-1.24,0.84-1.24h-1.44
		C317.13,54.35,317.03,54.56,317.03,54.56"/>
	<path class="st0" d="M100.92,16c-0.09-1.32-0.04-3.78-0.04-3.78h-1.8h-1.8c0,0,0.05,2.46-0.03,3.78
		c-0.26,4.08-1.92,10.57-8.09,14.89l1.8,2.66c0,0,5.31-2.9,8.12-10.15c2.82,7.25,8.12,10.15,8.12,10.15l1.8-2.66
		C102.84,26.57,101.18,20.08,100.92,16"/>
	<path class="st0" d="M154.16,20.43c3.57,0,6.45-2.89,6.45-6.45c0-3.57-2.88-6.46-6.45-6.46c-3.56,0-6.46,2.89-6.46,6.46
		C147.7,17.54,150.59,20.43,154.16,20.43L154.16,20.43z M154.16,10.59c1.87,0,3.37,1.53,3.37,3.39s-1.51,3.37-3.37,3.37
		c-1.87,0-3.38-1.51-3.38-3.37S152.29,10.59,154.16,10.59"/>
	<path class="st0" d="M242.21,23.22c0,3.49,2.82,6.32,6.32,6.32s6.32-2.83,6.32-6.32s-2.83-6.32-6.32-6.32
		S242.21,19.73,242.21,23.22L242.21,23.22z M251.74,23.22c0,1.77-1.44,3.21-3.21,3.21s-3.21-1.44-3.21-3.21s1.44-3.21,3.21-3.21
		C250.31,20.01,251.74,21.45,251.74,23.22"/>
	<path class="st0" d="M313.81,29.47c0,0-0.39,6.15-1.98,9.67h3.41c1.55-4.24,1.8-9.77,1.8-9.77V13.12h-2.03h-1.2h-19.38v3.02h19.38
		L313.81,29.47"/>
	<polyline class="st0" points="114,43.7 117.55,43.7 117.55,10.61 114,10.61 114,20.22 107.56,20.22 107.56,23.46 114,23.46 
		114,43.7 	"/>
	<polyline class="st0" points="209.57,24.34 212.23,24.34 212.23,43.7 215.77,43.7 215.77,10.61 212.23,10.61 212.23,21.09 
		209.57,21.09 209.57,10.61 206.03,10.61 206.03,43.7 209.57,43.7 209.57,24.34 	"/>
	<polyline class="st0" points="262.22,43.71 265.76,43.71 265.76,33.69 265.76,30.66 264.48,30.66 264.48,19.59 269.23,19.59 
		269.23,16.69 264.48,16.69 264.48,10.61 260.93,10.61 260.93,30.66 240.98,30.66 240.98,33.69 262.22,33.69 262.22,43.71 	"/>
	<polyline class="st0" points="165.84,40.4 145.49,40.4 145.49,37.9 165.84,37.9 165.84,35.77 165.84,34.76 165.84,32.02 
		165.84,28.87 162.6,28.87 155.79,28.87 155.79,24.73 167.5,24.73 167.5,21.58 140.64,21.58 140.64,24.73 152.29,24.73 
		152.29,28.87 142.31,28.87 142.31,32.02 162.6,32.02 162.6,34.76 142.31,34.76 142.31,36.65 142.25,36.65 142.25,43.54 
		142.31,43.54 145.49,43.54 165.84,43.54 165.84,40.4 	"/>
	<polyline class="st0" points="308.34,39.18 308.34,24.44 304.92,24.44 304.92,39.18 300.99,39.18 300.99,24.44 297.56,24.44 
		297.56,39.18 293.13,39.18 293.13,42.21 319.62,42.21 319.62,39.18 308.34,39.18 	"/>
	<polyline class="st0" points="256.58,13.24 249.87,13.24 249.87,10.22 246.39,10.22 246.39,13.24 239.68,13.24 239.68,16.14 
		256.58,16.14 256.58,13.24 	"/>
	<polyline class="st0" points="202.6,33.45 202.6,30.3 193.04,30.3 193.04,16.5 202.16,16.5 202.16,13.36 193.04,13.36 
		189.92,13.36 189.55,13.36 189.55,33.46 193.04,33.46 193.04,33.45 202.6,33.45 	"/>
	<path class="st0" d="M16.35,36.93h-2.29v2.89h2.29V36.93L16.35,36.93z M6.35,58.83c3.3,4.36,9.1,3.37,9.1,3.37
		c0.7-6.17-1.79-8.17-1.79-8.17c-1.55,3.27,0.79,7.23,0.79,7.23C10.93,57.99,6.35,58.83,6.35,58.83L6.35,58.83z M12.37,24.96
		l-1.11-1.04c-2.68,0.68-4.63,3.06-4.63,3.06c1.26-3.02,0.58-5.83,0.02-7.33L5.84,19c-2.33,4.41,0.25,9.25,0.25,9.25
		C9.67,27.39,11.49,25.97,12.37,24.96L12.37,24.96z M19.86,65.23c-0.12-1.92-0.46-3.31-0.89-4.43h-2.21
		c0.59,2.1,1.95,3.67,1.95,3.67c-4.04-2.6-8.4-0.98-8.4-0.98C14.32,67.21,19.86,65.23,19.86,65.23L19.86,65.23z M28.01,39.41v1.11
		h-1.19v1.3h1.05v1.11h-1.05v1.35h1.21v1.11h-2.39v-5.96l-1.65,5.96h-0.96l-1.73-5.97h1.27l0.71,2.87c0.11,0.34,0.14,0.68,0.21,1.02
		h0.02c0.06-0.35,0.09-0.69,0.18-1.04l0.72-2.85L28.01,39.41L28.01,39.41z M29.5,52.66h-1.26l-0.22-1h-1.2l-0.22,1h-1.17l1.39-5.97
		h1.24L29.5,52.66L29.5,52.66z M28.25,39.41h1.19c0.75,0,2.1,0.08,2.1,1.71c0,0.66-0.26,1.22-0.85,1.54l1.04,2.72h-1.24l-1.04-2.76
		h-0.02v2.76h-1.18V39.41L28.25,39.41z M31.96,39.41h1.18v5.97h-1.18V39.41L31.96,39.41z M31.09,52.76c-0.34,0-0.75-0.1-1.02-0.3
		v-1.12c0.28,0.19,0.55,0.32,0.9,0.32c0.38,0,0.68-0.25,0.68-0.65c0-0.46-0.36-0.63-0.7-0.87c-0.68-0.46-1.1-0.9-1.1-1.77
		c0-0.94,0.54-1.76,1.56-1.76c0.38,0,0.72,0.1,1.04,0.29v1.15c-0.24-0.21-0.53-0.38-0.85-0.38c-0.37,0-0.6,0.22-0.6,0.59
		c0,0.98,1.8,1.04,1.8,2.65C32.81,51.96,32.2,52.76,31.09,52.76L31.09,52.76z M25.22,47.8h-0.93v4.86H23.1V47.8h-0.92v-1.11h3.04
		L25.22,47.8L25.22,47.8z M19.32,32.52v25.14h12.45c1.41,0.04,2.86,1.14,2.86,1.14V38.68c-7.54-0.16-9.06-6.17-9.06-6.17
		L19.32,32.52L19.32,32.52z M48.23,19.53l-3.73,4.06l0.04,6.49c0,0-0.11,1.07-0.34,1.6h2.4l6.85-6.85L48.23,19.53L48.23,19.53z
		 M16.42,50.61h-2.28v2.89h2.28V50.61L16.42,50.61z M20.16,22.54l4.8,4.72v-3.65l-4.8-4.8V22.54L20.16,22.54z M16.37,63
		c0.3,0,0.54-0.24,0.54-0.54s-0.24-0.54-0.54-0.54c-0.3,0-0.54,0.24-0.54,0.54C15.83,62.75,16.08,63,16.37,63L16.37,63z M7.68,24.32
		c0,0.3,0.25,0.54,0.54,0.54c0.3,0,0.54-0.24,0.54-0.54c0-0.3-0.24-0.54-0.54-0.54C7.93,23.78,7.68,24.03,7.68,24.32L7.68,24.32z
		 M16.4,59.04c0.02,0.25,0.07-0.05,0.07-0.05v-3.53l-0.58,0.64C16.22,56.99,16.34,58.27,16.4,59.04L16.4,59.04z M24.96,29.07v-0.74
		l-3.54-3.54h-8.3l4.69,4.28L24.96,29.07L24.96,29.07z M6.95,18.99c0,0-0.31-1.94,1.71-4.83H1.84C1.84,14.16,2.13,14.95,6.95,18.99
		L6.95,18.99z M1.04,29.62c-1.22,5.33,3.28,9.14,3.28,9.14c5.18-3.43,5.1-6.63,5.1-6.63c-3.5,0.92-5.02,5.26-5.02,5.26
		C4.62,32.59,1.04,29.62,1.04,29.62L1.04,29.62z M5.06,32.09c1.06-4.68-1.95-8.23-1.95-8.23c-2.13,5.04,1.64,9.57,1.64,9.57
		c5.69-2.47,6.17-5.64,6.17-5.64C7.31,28.08,5.06,32.09,5.06,32.09L5.06,32.09z M5.53,34.33c0-0.3-0.24-0.54-0.54-0.54
		s-0.54,0.24-0.54,0.54s0.24,0.54,0.54,0.54C5.29,34.87,5.53,34.63,5.53,34.33L5.53,34.33z M33.3,61.8h3.57c0,0,0.24-1.55,1.25-1.55
		h14.84v-26.1l-1.47-1.55v25.87h-13.3c0,0-1.78,0.16-3.18,1.86c0,0-1.09-1.63-3.42-1.79H18.62V32.83l-1.59,1.59v25.83h14.49
		C31.51,60.25,33.3,60.33,33.3,61.8L33.3,61.8z M10.05,13.83c-3.72,4.01-1.73,9.55-1.73,9.55c6.2-0.38,7.73-3.18,7.73-3.18
		c-3.49-0.96-6.98,2.04-6.98,2.04C11.66,18.19,10.05,13.83,10.05,13.83L10.05,13.83z M27.54,49.13l-0.13-0.91H27.4l-0.13,0.91
		l-0.25,1.59h0.83L27.54,49.13L27.54,49.13z M61.82,60.36c0.9-0.56,1.76-1.32,2.47-2.37c0,0-1.96-0.25-4.26,0.52L61.82,60.36
		L61.82,60.36z M65.59,36.67c0,0-1.62-4.3-5.15-5.13c0,0,0,3.2,5.26,6.51c0,0,4.4-3.91,3.06-9.22
		C68.76,28.83,65.25,31.88,65.59,36.67L65.59,36.67z M58.99,49.52c0,0-2.05,2.45-0.15,8.36c0,0,5.89-0.17,8.27-5.09
		c0,0-4.65,0.08-7.47,3.97C59.63,56.77,61.15,52.43,58.99,49.52L58.99,49.52z M65.45,42.01c0,0-0.85-4.52-4.17-5.95
		c0,0-0.56,3.15,4.05,7.32c0,0,5.02-3.09,4.61-8.54C69.93,34.84,65.95,37.24,65.45,42.01L65.45,42.01z M61.3,40.66
		c0,0-1.09,3.01,2.71,7.91c0,0,5.48-2.17,6.03-7.61c0,0-4.34,1.67-5.66,6.29C64.39,47.24,64.33,42.64,61.3,40.66L61.3,40.66z
		 M64.79,44.7c0.3,0,0.54-0.24,0.54-0.54s-0.24-0.55-0.54-0.55s-0.54,0.25-0.54,0.55C64.25,44.45,64.49,44.7,64.79,44.7L64.79,44.7z
		 M61.61,53.98c0-0.3-0.24-0.54-0.54-0.54s-0.54,0.24-0.54,0.54s0.24,0.54,0.54,0.54S61.61,54.28,61.61,53.98L61.61,53.98z
		 M15.74,21.65L15.74,21.65c-0.21,0.17-1.72,1.55-4.02,1.83l0.79,0.73l8.22-0.04l-2.55-2.55l0,0l-1.29-1.29
		C16.88,20.33,15.97,21.5,15.74,21.65L15.74,21.65z M47.54,48.26L47.54,48.26l-0.14,0.9l-0.25,1.59h0.83l-0.3-1.59L47.54,48.26
		L47.54,48.26z M30.39,41.13c0-0.43-0.2-0.78-0.8-0.75h-0.16v1.59l0.21,0.01C30.18,41.99,30.39,41.63,30.39,41.13L30.39,41.13z
		 M42.06,44.45c0.58,0,0.58-0.44,0.58-0.88v-4.12h1.18v4.36c0,0.64-0.07,1.71-1.78,1.71c-1.1,0-1.76-0.51-1.76-1.63v-4.44h1.18v3.87
		C41.47,43.77,41.42,44.45,42.06,44.45L42.06,44.45z M45.1,46.73v1.11h-1.2v1.3h1.05v1.11H43.9v1.35h1.21v1.11h-2.39v-5.97
		L45.1,46.73L45.1,46.73z M44.77,39.45h1.33l0.34,0.83c0.1,0.29,0.22,0.6,0.29,0.91h0.02c0.06-0.31,0.16-0.61,0.27-0.91l0.35-0.83
		h1.28l-1.28,2.89l1.37,3.08h-1.37l-0.38-0.95c-0.11-0.3-0.18-0.6-0.26-0.9h-0.02c-0.09,0.3-0.16,0.59-0.26,0.9l-0.35,0.95h-1.33
		l1.26-3.08L44.77,39.45L44.77,39.45z M48.37,52.7l-0.22-1.01h-1.2l-0.22,1.01h-1.17l1.39-5.97h1.25l1.43,5.97H48.37L48.37,52.7z
		 M40.81,52.7l-0.29-4.31H40.5l-0.19,1.47l-0.5,2.83H38.9l-0.58-2.87l-0.2-1.33V48.4h-0.01l-0.18,4.31h-1.27l0.52-5.97h1.56
		l0.58,3.52h0.01l0.48-3.52h1.58l0.63,5.97h-1.21V52.7z M36.98,39.45h1.18v4.87h1.23v1.1h-2.41V39.45L36.98,39.45z M35.47,38.54
		V58.8c0,0,1.14-1.14,2.74-1.14h12.57V32.52H44C44,32.52,42.07,38.45,35.47,38.54L35.47,38.54z M19.42,18.14
		c0,0-0.54,0.78-2.57,1.22l2.57,2.38V18.14L19.42,18.14z M30.21,15.77v-2.66h8.3v3.81h2.74v2.74h-2.66v1.22h2.66v2.97h-2.66v8.91
		H36.3l-3.16-3.16l-2.89,2.9l-2.1-2.09l4.8-4.8l2.47,2.48v-12.3h-5.21V15.77z M25.94,28.54c0,6.33,3.96,9.24,8.85,9.24
		s8.86-2.91,8.86-9.24s0-18.02,0-18.02h-17.7C25.95,10.52,25.94,22.22,25.94,28.54L25.94,28.54z M18.38,29.74l2.11,1.86h4.77
		c-0.23-0.38-0.15-1.82-0.15-1.82L18.38,29.74L18.38,29.74z M56.75,53.56c0,0-0.39,0.4-0.51,1.02l1.14,1.19
		C57.32,55.03,57.13,54.28,56.75,53.56L56.75,53.56z M11.65,58.44c1.76-5.95-0.35-8.36-0.35-8.36c-2.1,2.95-0.47,7.25-0.47,7.25
		c-2.91-3.82-7.56-3.79-7.56-3.79C5.75,58.41,11.65,58.44,11.65,58.44L11.65,58.44z M11.35,18.98c6.17,0.7,8.17-1.8,8.17-1.8
		c-3.27-1.55-7.23,0.79-7.23,0.79c3.26-3.53,2.42-8.11,2.42-8.11C10.36,13.17,11.35,18.98,11.35,18.98L11.35,18.98z M24.27,62.62
		c0.29,3.61,4.3,5.86,4.3,5.86c-4.69-1.06-8.24,1.95-8.24,1.95c5.04,2.13,9.57-1.64,9.57-1.64C27.43,63.11,24.27,62.62,24.27,62.62
		L24.27,62.62z M8.54,54.08c2.77-5.55,1.11-8.29,1.11-8.29c-2.58,2.54-1.73,7.06-1.73,7.06c-2.2-4.27-6.79-5.05-6.79-5.05
		C2.75,53.03,8.54,54.08,8.54,54.08L8.54,54.08z M21,60.82l-0.77-0.01c-0.04,3.41,3.24,6.1,3.24,6.1c-4.43-1.85-8.44,0.49-8.44,0.49
		c4.59,2.97,9.71,0.05,9.71,0.05C23.73,63.3,21.99,61.52,21,60.82L21,60.82z M9.56,63.39c0,0,0.85-0.5,2.08-0.68l-1.37-0.32
		l-0.13,0.17c0.07-0.11,0.13-0.17,0.13-0.17l-6.03,6.35c0,0-0.69,0.99-0.04,1.64c0,0,0.61,0.49,1.45-0.08l5.87-5.13
		C10.93,64.85,9.63,63.77,9.56,63.39L9.56,63.39z M6.25,49.24c3.7-4.99,2.53-7.97,2.53-7.97c-2.98,2.06-2.93,6.66-2.93,6.66
		c-1.43-4.59-5.8-6.15-5.8-6.15C0.72,47.2,6.25,49.24,6.25,49.24L6.25,49.24z M9.34,13.51L2.21,6.37c0,0-2.99,2.14-0.67,7.14H9.34
		L9.34,13.51z M12.57,10.91l-4.2-4.24c-2.6-2.6-5.68-0.88-5.68-0.88l8.27,8.24C11.51,11.91,12.57,10.91,12.57,10.91L12.57,10.91z
		 M4.84,44.84c0,0.3,0.24,0.54,0.54,0.54s0.54-0.24,0.54-0.54S5.68,44.3,5.38,44.3S4.84,44.54,4.84,44.84L4.84,44.84z M4.82,44.09
		c4.51-4.28,3.87-7.41,3.87-7.41c-3.29,1.51-4.04,6.05-4.04,6.05C4.04,37.97,0,35.66,0,35.66C-0.26,41.12,4.82,44.09,4.82,44.09
		L4.82,44.09z M8.78,54.6c0,0.3,0.24,0.54,0.54,0.54s0.54-0.24,0.54-0.54s-0.24-0.54-0.54-0.54C9.02,54.06,8.78,54.3,8.78,54.6
		L8.78,54.6z M54.2,62.53c0.3,0,0.54-0.24,0.54-0.54s-0.24-0.54-0.54-0.54s-0.54,0.24-0.54,0.54C53.66,62.28,53.9,62.53,54.2,62.53
		L54.2,62.53z M57.08,61.82l-1.91-1.56c0.04,0.49,0.1,1,0.2,1.55C55.37,61.81,56.06,61.9,57.08,61.82L57.08,61.82z M62.42,52.21
		c0,0,0.75-4.54-1.89-7.02c0,0-1.61,2.77,1.29,8.26c0,0,5.77-1.19,7.26-6.45C69.09,47,64.53,47.89,62.42,52.21L62.42,52.21z
		 M26.22,67.36c0-0.3-0.24-0.54-0.54-0.54s-0.54,0.24-0.54,0.54s0.24,0.54,0.54,0.54S26.22,67.66,26.22,67.36L26.22,67.36z
		 M51.92,64.09c0,0,1.17-1.41,1.76-3.39l-2.21-0.04c-0.35,1.08-0.61,2.46-0.68,4.21c0,0,4.77,1.59,8.59-1.18L57.9,62.5
		C56.27,62.41,54.03,62.65,51.92,64.09L51.92,64.09z M53.52,55.29v2.89l12.95,10.74h2.59L55.88,55.29H53.52L53.52,55.29z
		 M34.55,67.78v1.35c-0.63-0.98-3.06-4.55-5.82-4.73c0,0,0.93,3.19,5.07,5.06c0,0-5.18,0.35-7.29,3.18c0,0,4.51,0.41,8.05-3.11v2.2
		h1.37v-2.36v-1.6h-1.38V67.78z M36.84,69.46c4.11-1.91,5.02-5.1,5.02-5.1c-3.2,0.23-5.94,5.03-5.94,5.03
		c3.58,3.66,8.22,3.2,8.22,3.2C42.02,69.76,36.84,69.46,36.84,69.46L36.84,69.46z M42.15,68.33c0,0,3.96-2.35,4.16-5.96
		c0,0-3.15,0.55-5.49,6.3c0,0,4.61,3.66,9.61,1.41C50.43,70.08,46.81,67.16,42.15,68.33L42.15,68.33z M47.22,66.63
		c0,0,3.07-2.64,3.1-5.93l-1.09,0.04c-1,0.87-2.45,2.72-3.25,6.46c0,0,5.18,2.8,9.71-0.27C55.67,66.93,51.6,64.67,47.22,66.63
		L47.22,66.63z M44.5,67.15c0,0.3,0.24,0.54,0.54,0.54s0.54-0.24,0.54-0.54s-0.24-0.54-0.54-0.54S44.5,66.85,44.5,67.15L44.5,67.15z
		 M63.68,27.57c0,0,2.8-5.18-0.28-9.7c0,0-2.25,4.07-0.29,8.46c0,0-3-3.49-6.59-3.07C56.52,23.26,57.61,26.27,63.68,27.57
		L63.68,27.57z M50.51,15.46l1.64-1.7c-1.4-0.32-4.03-0.79-6.15,0.79C46,14.55,47.09,15.79,50.51,15.46L50.51,15.46z M61.44,24.25
		c0.3,0,0.54-0.24,0.54-0.54c0-0.3-0.24-0.54-0.54-0.54s-0.54,0.25-0.54,0.54C60.9,24.01,61.14,24.25,61.44,24.25L61.44,24.25z
		 M65.15,32.72c0,0,3.66-4.62,1.41-9.61c0,0-2.92,3.62-1.76,8.28c0,0-2.34-3.96-5.96-4.16C58.84,27.23,59.4,30.38,65.15,32.72
		L65.15,32.72z M57.25,6.71c1.71,0.85,3.09-0.04,3.09-0.04c1.9-0.93,3.29,0.37,3.29,0.37c1.33,1.04,1.11,2.4,1.11,2.4
		c0,1.05-0.3,1.12-0.3,1.12c-0.64,0.44-0.48-0.3-0.48-0.3c0.02-0.01,0.14-0.52,0.14-0.52c0.25-2.37-1.87-2.7-1.87-2.7
		c-2.25-0.4-2.81,1.69-2.81,1.69c-0.14,0.57-0.15,1.08-0.09,1.53l-2.81-2.81l0.13,2.38l6.28,6.29h2.25l-2.28-2.28
		c1.21,0.38,2.26,0.42,2.26,0.42c3.21-0.2,3.54-3.27,3.54-3.27c0.85-3.21-2.19-5.79-2.19-5.79c-2.03-1.74-5.1-1.89-5.1-1.89
		C57.05,2.79,55.5,0,55.5,0c-0.51,1.27-0.38,3.15-0.38,3.15C55.41,6.04,57.25,6.71,57.25,6.71L57.25,6.71z M64.38,33.61
		c0,0.3,0.24,0.54,0.54,0.54s0.54-0.24,0.54-0.54s-0.24-0.54-0.54-0.54C64.62,33.07,64.38,33.31,64.38,33.61L64.38,33.61z
		 M52.48,13.34L53.8,12c-0.56-1.9-1.7-4.19-4.53-5.55C49.27,6.44,49.15,10.5,52.48,13.34L52.48,13.34z M55.8,50.87h-2.28v2.89h2.28
		V50.87L55.8,50.87z M57.58,22.2c1.01,0.29,2.25,0.5,3.76,0.56c0,0,0.69-2.05,0.38-4.54l-1.98,1.9c0.21,0.5,0.48,1.01,0.82,1.51
		c0,0-0.54-0.45-1.42-0.93L57.58,22.2L57.58,22.2z M14.17,16.02c0,0.3,0.24,0.54,0.54,0.54s0.54-0.24,0.54-0.54
		c0-0.3-0.25-0.54-0.54-0.54C14.42,15.48,14.17,15.72,14.17,16.02L14.17,16.02z M61.97,16.67l-5.86-5.86l-5.26,5.71l5.64,5.56
		L61.97,16.67L61.97,16.67z M49.52,16.87l-1.18,1.41l6.4,6.4l1.3-1.3L49.52,16.87L49.52,16.87z M55.69,36.71h-2.28v2.89h2.28V36.71
		L55.69,36.71z M28.31,9.07c0,0,1.8,1.19,4.96-0.99C33.27,8.08,29.36,6.48,28.31,9.07L28.31,9.07z M48.69,11.12
		c0,0-1.78-0.54-4.02,0.23l-0.01,2.04c1.37-0.02,2.75-0.35,5.26-1.68c0,0-1.19-5.77-6.45-7.25C43.48,4.46,44.37,9.02,48.69,11.12
		L48.69,11.12z M25.11,13.67l0.04-1.99c-2.21-0.65-4.45-0.23-4.45-0.23c4.27-2.2,5.05-6.79,5.05-6.79
		c-5.23,1.61-6.28,7.41-6.28,7.41C21.88,13.27,23.75,13.63,25.11,13.67L25.11,13.67z M23.46,14.82c-2.95-2.1-7.26-0.47-7.26-0.47
		c3.82-2.91,3.8-7.56,3.8-7.56c-4.87,2.5-4.89,8.38-4.89,8.38C21.06,16.93,23.46,14.82,23.46,14.82L23.46,14.82z M23.13,10.45
		c0,0.3,0.24,0.54,0.54,0.54c0.3,0,0.54-0.24,0.54-0.54s-0.24-0.54-0.54-0.54C23.37,9.91,23.13,10.15,23.13,10.45L23.13,10.45z
		 M24.44,9.88l4.1-0.06c-1.27-0.77-2.67-0.74-2.67-0.74c4.58-1.43,5.89-5.51,5.89-5.51c-5.43,0.68-7.47,6.2-7.47,6.2
		C24.37,9.82,24.37,9.82,24.44,9.88L24.44,9.88z M46.31,10.15c0-0.3-0.24-0.54-0.54-0.54s-0.54,0.24-0.54,0.54s0.24,0.54,0.54,0.54
		C46.07,10.7,46.31,10.45,46.31,10.15L46.31,10.15z M43.43,9.08c0,0-1.39-0.03-2.66,0.74l4.09,0.06c0.07-0.05,0.07-0.05,0.15-0.11
		c0,0-2.04-5.53-7.47-6.2C37.54,3.57,38.85,7.65,43.43,9.08L43.43,9.08z M34.63,8.45c0.4,0,0.73-0.33,0.73-0.73
		s-0.32-0.73-0.73-0.73c-0.4,0-0.73,0.33-0.73,0.73C33.9,8.13,34.23,8.45,34.63,8.45L34.63,8.45z M40.99,8.83
		C39.84,6.28,36,8.03,36,8.03C39.24,10.09,40.99,8.83,40.99,8.83"/>
</g>
</svg>
