<?xml version="1.0" encoding="utf-8"?>
<!-- Generator: Adobe Illustrator 26.0.2, SVG Export Plug-In . SVG Version: 6.00 Build 0)  -->
<svg version="1.1" id="레이어_1" xmlns="http://www.w3.org/2000/svg" xmlns:xlink="http://www.w3.org/1999/xlink" x="0px"
	 y="0px" viewBox="0 0 111.79 120.05" style="enable-background:new 0 0 111.79 120.05;" xml:space="preserve">
<style type="text/css">
	.st0{fill:#FFFFFF;}
</style>
<g id="원본">
	<path class="st0" d="M38.7,107.52c2.43,7.23,9.26,12.44,17.31,12.44c8.05,0,14.89-5.21,17.32-12.45"/>
	<path class="st0" d="M107.79,108.11H4.24c-2.21,0-4-1.79-4-4c0-9.68,4.53-18.63,12.22-24.37V43.56C12.46,19.54,32,0,56.01,0
		c24.02,0,43.56,19.54,43.56,43.56v36.18c7.69,5.74,12.21,14.69,12.21,24.37C111.79,106.31,110,108.11,107.79,108.11z M8.59,100.11
		h94.84c-1.09-6.09-4.67-11.49-10.01-14.9c-1.15-0.74-1.85-2.01-1.85-3.37V43.56C91.58,23.95,75.62,8,56.01,8
		C36.41,8,20.46,23.95,20.46,43.56v38.27c0,1.37-0.7,2.64-1.85,3.37C13.26,88.62,9.69,94.01,8.59,100.11z"/>
</g>
</svg>
