<?xml version="1.0" encoding="utf-8"?>
<!-- Generator: Adobe Illustrator 26.0.1, SVG Export Plug-In . SVG Version: 6.00 Build 0)  -->
<svg version="1.1" id="Layer_1" xmlns="http://www.w3.org/2000/svg" xmlns:xlink="http://www.w3.org/1999/xlink" x="0px" y="0px"
	 viewBox="0 0 30 30" style="enable-background:new 0 0 30 30;" xml:space="preserve">
<style type="text/css">
	.st0{fill:none;stroke:#FFFFFF;stroke-width:1.5;stroke-linecap:round;stroke-linejoin:round;}
</style>
<circle class="st0" cx="15" cy="15" r="3.82"/>
<path class="st0" d="M24.42,18.82c-0.35,0.79-0.18,1.7,0.42,2.32l0.08,0.08c0.99,0.99,1,2.61,0,3.6l0,0c-0.99,0.99-2.61,1-3.6,0l0,0
	l-0.08-0.08c-0.61-0.6-1.53-0.77-2.32-0.42c-0.77,0.33-1.27,1.08-1.27,1.92v0.22c0,1.41-1.14,2.55-2.55,2.55s-2.55-1.14-2.55-2.55
	v-0.11c-0.02-0.86-0.57-1.62-1.37-1.92c-0.79-0.35-1.7-0.18-2.32,0.42l-0.08,0.08c-0.99,0.99-2.61,1-3.6,0l0,0
	c-0.99-0.99-1-2.61,0-3.6l0,0l0.08-0.08c0.6-0.61,0.77-1.53,0.42-2.32c-0.33-0.77-1.08-1.27-1.92-1.27H3.55
	C2.14,17.65,1,16.51,1,15.1s1.14-2.55,2.55-2.55h0.11c0.86-0.02,1.62-0.57,1.92-1.37c0.35-0.79,0.18-1.7-0.42-2.32L5.09,8.79
	c-0.99-0.99-1-2.61,0-3.6l0,0c0.99-0.99,2.61-1,3.6,0l0,0l0.08,0.08c0.61,0.6,1.53,0.77,2.32,0.42h0.1
	c0.77-0.33,1.27-1.08,1.27-1.92V3.55C12.45,2.14,13.59,1,15,1s2.55,1.14,2.55,2.55v0.11c0,0.84,0.5,1.59,1.27,1.92
	c0.79,0.35,1.7,0.18,2.32-0.42l0.08-0.08c0.99-0.99,2.61-1,3.6,0l0,0c0.99,0.99,1,2.61,0,3.6l0,0l-0.08,0.08
	c-0.6,0.61-0.77,1.53-0.42,2.32v0.1c0.33,0.77,1.08,1.27,1.92,1.27h0.22c1.41,0,2.55,1.14,2.55,2.55s-1.14,2.55-2.55,2.55h-0.11
	C25.5,17.55,24.75,18.05,24.42,18.82z"/>
</svg>
