<svg id="레이어_1" data-name="레이어 1" xmlns="http://www.w3.org/2000/svg" xmlns:xlink="http://www.w3.org/1999/xlink" viewBox="0 0 166 49.7"><defs><style>.cls-1{fill:none;}.cls-2{clip-path:url(#clip-path);}.cls-3{fill:url(#무제_그라디언트);}.cls-4{clip-path:url(#clip-path-2);}.cls-5{fill:url(#무제_그라디언트_2);}.cls-6{clip-path:url(#clip-path-3);}.cls-7{fill:#9b9b9b;}</style><clipPath id="clip-path" transform="translate(0 0)"><path class="cls-1" d="M30.2,22.3c-2.2.1-4.6.8-4.6,2.4-.1,2.1,2.8,3,5.8,4.5A22.24,22.24,0,0,1,37.2,33c-.5-3.4-.8-6.7-1-9.8a18.37,18.37,0,0,0-5.48-.91H30.2"/></clipPath><linearGradient id="무제_그라디언트" y1="49.7" x2="1" y2="49.7" gradientTransform="translate(1594.38 0.77) rotate(90) scale(31.45)" gradientUnits="userSpaceOnUse"><stop offset="0" stop-color="#fff"/><stop offset="0.08" stop-color="#fff"/><stop offset="0.52" stop-color="#d0d1d3"/><stop offset="0.84" stop-color="#b1b3b6"/><stop offset="1" stop-color="#a6a8ab"/></linearGradient><clipPath id="clip-path-2" transform="translate(0 0)"><path class="cls-1" d="M3.8,0S9,25.6,0,49.7H41.4a77.94,77.94,0,0,1-3.1-10.9c-1.5,3.6-6.3,5.8-11.4,6.1a16.28,16.28,0,0,1-8.5-1.8l1.2-3.9a14.56,14.56,0,0,0,7.5,1.7c2.5-.1,4.8-1.2,4.8-3,.1-2.1-2.7-3.1-6-4.7-2.9-1.4-7-3.1-6.9-7.6.1-4,4.7-7.1,9.8-7.3A19,19,0,0,1,36,19,93.29,93.29,0,0,1,37.6,0Z"/></clipPath><linearGradient id="무제_그라디언트_2" y1="49.7" y2="49.7" gradientTransform="translate(1582.12 0.81) rotate(90) scale(31.42)" xlink:href="#무제_그라디언트"/><clipPath id="clip-path-3" transform="translate(0 0)"><rect class="cls-1" width="166" height="49.7"/></clipPath></defs><title>Vector Smart Object</title><g class="cls-2"><rect class="cls-3" x="25.5" y="22.29" width="11.7" height="10.71"/></g><g class="cls-4"><rect class="cls-5" width="41.4" height="49.7"/></g><g class="cls-6"><path class="cls-7" d="M58.7,36.8a7.15,7.15,0,0,0-2.2-.5c-.6,0-1.1.3-1.1.8,0,1.6,3.9,1.6,3.9,4.1,0,1.7-1.3,2.4-3,2.4a5.75,5.75,0,0,1-2.1-.4V41.8a4.65,4.65,0,0,0,2.4.9c.5,0,1.2-.2,1.2-1,0-1.8-3.7-1.8-3.7-4.3,0-1.3,1-2,2.7-2,.8,0,1.7.2,2,.2v1.2Z" transform="translate(0 0)"/><polygon class="cls-7" points="60.5 35.5 65.1 35.5 65.1 36.4 62 36.4 62 38.8 65 38.8 65 39.7 62 39.7 62 42.4 65.2 42.4 65.2 43.4 60.5 43.4 60.5 35.5"/><path class="cls-7" d="M66.2,39.4c0-2.4,1-4.1,3.3-4.1s3.3,1.7,3.3,4.1-1,4.1-3.3,4.1-3.3-1.6-3.3-4.1m3.3,3.4c1.2,0,1.7-1.3,1.7-3.3s-.5-3.3-1.7-3.3-1.7,1.3-1.7,3.3.5,3.3,1.7,3.3" transform="translate(0 0)"/><polygon class="cls-7" points="73.5 35.5 74.9 35.5 76 41.5 78.1 35.5 79 35.5 81.1 41.5 82.3 35.5 83.5 35.5 81.9 43.5 80.6 43.5 78.5 37.8 76.5 43.5 75.2 43.5 73.5 35.5"/><path class="cls-7" d="M84.2,39.4c0-2.4,1-4.1,3.3-4.1s3.3,1.7,3.3,4.1-1,4.1-3.3,4.1-3.3-1.6-3.3-4.1m3.3,3.4c1.2,0,1.7-1.3,1.7-3.3s-.5-3.3-1.7-3.3-1.7,1.3-1.7,3.3.5,3.3,1.7,3.3" transform="translate(0 0)"/><polygon class="cls-7" points="92.1 35.5 93.7 35.5 96.8 41.4 96.8 35.5 98 35.5 98 43.5 96.5 43.5 93.3 37.3 93.3 43.5 92.1 43.5 92.1 35.5"/><path class="cls-7" d="M109.6,40.7c0,1.4-.3,2.8-2.9,2.8s-2.8-1.4-2.8-2.8V35.5h1.5v5.2c0,1.2.2,2.1,1.3,2.1s1.4-.8,1.4-2.1V35.5h1.5Z" transform="translate(0 0)"/><polygon class="cls-7" points="111.5 35.5 113.1 35.5 116.2 41.4 116.2 35.5 117.4 35.5 117.4 43.5 115.9 43.5 112.7 37.3 112.7 43.5 111.5 43.5 111.5 35.5"/><rect class="cls-7" x="119.4" y="35.5" width="1.5" height="8"/><polygon class="cls-7" points="122.1 35.5 123.7 35.5 125.7 41.6 127.8 35.5 129.1 35.5 126.4 43.5 124.9 43.5 122.1 35.5"/><polygon class="cls-7" points="130.3 35.5 134.9 35.5 134.9 36.4 131.8 36.4 131.8 38.8 134.8 38.8 134.8 39.7 131.8 39.7 131.8 42.4 135 42.4 135 43.4 130.3 43.4 130.3 35.5"/><path class="cls-7" d="M136.7,35.5h1.8c1.8,0,3.3.3,3.3,2.1a1.76,1.76,0,0,1-1.6,1.8c1.2.2,1.3,1,1.5,1.9l.4,2.1h-1.5l-.3-1.5c-.3-1.5-.5-2-1.7-2h-.5v3.5h-1.5V35.5Zm1.5,3.6h.3c1.1,0,1.8-.3,1.8-1.4,0-1.3-.9-1.3-1.8-1.3h-.3Z" transform="translate(0 0)"/><path class="cls-7" d="M147.8,36.8a7.15,7.15,0,0,0-2.2-.5c-.6,0-1.1.3-1.1.8,0,1.6,3.9,1.6,3.9,4.1,0,1.7-1.3,2.4-3,2.4a5.75,5.75,0,0,1-2.1-.4V41.8a4.65,4.65,0,0,0,2.4.9c.5,0,1.2-.2,1.2-1,0-1.8-3.7-1.8-3.7-4.3,0-1.3,1-2,2.7-2,.8,0,1.7.2,2,.2v1.2Z" transform="translate(0 0)"/><rect class="cls-7" x="149.9" y="35.5" width="1.5" height="8"/><polygon class="cls-7" points="154.7 36.4 152.8 36.4 152.8 35.5 158.1 35.5 158.1 36.4 156.2 36.4 156.2 43.4 154.7 43.4 154.7 36.4"/><polygon class="cls-7" points="161 39.7 158.5 35.5 160.2 35.5 161.9 38.4 163.6 35.5 165 35.5 162.4 39.7 162.4 43.4 161 43.4 161 39.7"/><path class="cls-7" d="M164.4,25V10a2.1,2.1,0,0,0-.5-1.4,2.44,2.44,0,0,0-1.8-.6H147.3v2h13a1.14,1.14,0,0,1,.8.3.85.85,0,0,1,.2.6V25.1h-2.7V15.6h-3.2v9.5h-2.5V15.6h-3.2v9.5h-3.9v2H166v-2a7.59,7.59,0,0,0-1.6-.1" transform="translate(0 0)"/><polygon class="cls-7" points="68.5 7.6 68.5 13.4 63.7 13.4 63.7 15.5 68.5 15.5 68.5 29 71.7 29 71.7 7.6 68.5 7.6"/><path class="cls-7" d="M60.5,12.7V7.6H57.3v5.1a8.71,8.71,0,0,1-5.8,8.5l1,1.7a12.24,12.24,0,0,0,6.3-5,.35.35,0,0,0,.1-.2.35.35,0,0,0,.1.2,11.66,11.66,0,0,0,6.5,5c.1-.2.4-.8.9-1.6a8.93,8.93,0,0,1-5.9-8.6" transform="translate(0 0)"/><polygon class="cls-7" points="91.8 7.6 91.8 19.7 87.3 19.7 87.3 21.7 91.8 21.7 91.8 24.3 95 24.3 95 7.6 91.8 7.6"/><path class="cls-7" d="M81.5,21.7h3.2V17.8h5.4V16H85.8a4.92,4.92,0,0,0,2.9-4.3c0-2.6-2.6-4.8-5.6-4.8s-5.7,2.3-5.7,4.8A4.86,4.86,0,0,0,80.3,16H76v1.8h5.6c-.1.1-.1,3.9-.1,3.9m-1.1-9.9a2.62,2.62,0,1,1,5.2,0,2.62,2.62,0,1,1-5.2,0" transform="translate(0 0)"/><path class="cls-7" d="M82.7,26.7a1.69,1.69,0,0,1-.2-.5V22.9H79.4V27a2,2,0,0,0,.5,1.4,2.44,2.44,0,0,0,1.8.6H94.9V27H83.5c-.4,0-.7-.1-.8-.3" transform="translate(0 0)"/><polygon class="cls-7" points="141.2 7.6 141.2 7.6 138 7.6 138 19.9 141.2 19.9 141.2 15.5 144.1 15.5 144.1 13.5 141.2 13.5 141.2 7.6"/><path class="cls-7" d="M135,14.8a4.88,4.88,0,0,0-3.2-4.4h3.4V8.6h-4.7V6.2h-3V8.6h-4.7v1.9h3.4a5,5,0,0,0-3.2,4.4c0,2.7,2.7,5,5.9,5,3.4-.1,6.1-2.4,6.1-5.1m-8.8,0a2.86,2.86,0,1,1,5.7,0,2.93,2.93,0,0,1-2.9,3,2.85,2.85,0,0,1-2.8-3" transform="translate(0 0)"/><path class="cls-7" d="M138.8,21.5H124.9v2H137a1,1,0,0,1,.8.3.85.85,0,0,1,.2.6V29h3.2V23.6a2,2,0,0,0-.5-1.4,2.49,2.49,0,0,0-1.9-.7" transform="translate(0 0)"/><path class="cls-7" d="M115.1,7.6v6h-2v-6H110V20.5h-5.9a1,1,0,0,1-.8-.3.85.85,0,0,1-.2-.6V9.9H108V8H99.9V20.5a2,2,0,0,0,.5,1.4,2.44,2.44,0,0,0,1.8.6h7.7V29h3.2V15.8h2V29h3.2V7.6Z" transform="translate(0 0)"/></g></svg>