<?xml version="1.0" encoding="utf-8"?>
<!-- Generator: Adobe Illustrator 24.0.0, SVG Export Plug-In . SVG Version: 6.00 Build 0)  -->
<svg version="1.1" id="_x3C_Layer_x3E_" xmlns="http://www.w3.org/2000/svg" xmlns:xlink="http://www.w3.org/1999/xlink" x="0px"
	 y="0px" viewBox="0 0 252.7 75.6" style="enable-background:new 0 0 252.7 75.6;" xml:space="preserve">
<style type="text/css">
	.st0{fill:#BC3045;stroke:#BC3045;stroke-miterlimit:10;}
	.st1{fill:#0D1738;stroke:#0D1738;stroke-miterlimit:10;}
	.st2{fill:#A09F9F;}
	.st3{fill:#4A494A;}
	.st4{fill:#BC3045;}
</style>
<g>
	<g>
		<path class="st0" d="M28.9,38.1c0.4,0.2,0.8,0.7,1.1,1.3c0.3,0.7,0.5,1.3,0.5,1.8c0,1.6-1.1,3.2-3.2,4.7s-5.1,2.3-9.1,2.3
			c-5.7,0-10.1-1.6-13.2-4.9C2,40,0.5,36.1,0.5,31.6c0-5,1.7-9,5.1-12.1s7.6-4.7,12.7-4.7c3.9,0,7.3,1,10.2,3c2.8,2,4.2,4.6,4.2,7.7
			c0,3-1.3,5.6-4,7.6s-6.1,3.1-10.5,3.1c-1.3,0-2.7-0.2-4.3-0.6c-1.6-0.4-3.1-1-4.4-1.9c0,2,0.9,3.8,2.7,5.3s4.3,2.3,7.5,2.3
			c1.5,0,3.2-0.3,5-0.9C26.6,39.9,28,39.1,28.9,38.1z M18.3,22.2c-1.5,0-2.9,0.4-4.3,1.1s-2.5,1.9-3.2,3.5c1.1,0.9,2.2,1.7,3.6,2.1
			c1.3,0.5,2.6,0.7,3.9,0.7c1.6,0,3-0.4,4.1-1.1s1.6-1.6,1.6-2.8c0-1.2-0.6-2.1-1.7-2.7C21.1,22.5,19.8,22.2,18.3,22.2z"/>
		<path class="st1" d="M76.9,27.9c5.4,1.1,9.2,2.4,11.3,3.9c2.1,1.5,3.2,3.6,3.2,6.1c0,2.7-1.3,5.1-4,7.2c-2.7,2.1-6.4,3.1-11.3,3.1
			c-1.8,0-3.8-0.2-5.9-0.5s-4-0.9-5.7-1.6C62,45,61,43,61.7,40.1c0.5-1.4,2.1-1.8,4.7-0.9c2.3,0.7,4.3,1.2,5.7,1.4
			c1.5,0.2,2.8,0.3,3.9,0.3c1.6,0,3-0.2,4.3-0.5c1.3-0.4,2-1,2-2.1c0-1-0.6-1.7-1.9-2.1c-1.3-0.4-3.8-1-7.4-1.8
			c-3.4-0.9-5.9-2-7.7-3.5c-1.8-1.5-2.6-3.6-2.6-6.4c0-2.9,1.4-5.2,4.2-7c2.8-1.8,6.2-2.7,10.4-2.7c2.5,0,4.5,0.2,6,0.7
			s3.3,1.2,5.2,2.1c1.3,0.9,2,1.7,2.1,2.4c0.1,0.7-0.1,1.4-0.5,2.1c-0.6,1-1.5,1.6-2.7,1.9c-1.2,0.2-2.4,0.1-3.7-0.4
			c-0.8-0.4-1.8-0.7-3.2-1c-1.3-0.3-2.6-0.4-3.8-0.4c-1.8,0-3.1,0.2-3.9,0.7c-0.9,0.4-1.3,1-1.3,1.8c0,0.9,0.4,1.6,1.3,2.1
			C74,27.2,75.2,27.6,76.9,27.9z"/>
		<path class="st1" d="M123,38.1c0.4,0.2,0.7,0.7,1.1,1.3c0.3,0.6,0.5,1.3,0.5,2c0,1.6-1.1,3.1-3.3,4.5c-2.2,1.5-5.2,2.2-8.9,2.2
			c-5.4,0-9.7-1.5-12.9-4.4c-3.2-2.9-4.8-7-4.8-12.2c0-5.3,1.6-9.4,4.7-12.3c3.2-2.9,7.2-4.4,12.2-4.4c3.8,0,7.1,0.8,9.7,2.4
			s4,3.1,4,4.4c0,1-0.2,1.7-0.5,2.2s-0.8,1-1.3,1.3c-0.6,0.4-1.3,0.7-2.1,0.7c-0.8,0-1.5-0.2-2.3-0.8c-1.1-0.9-2.3-1.6-3.4-2.1
			s-2.5-0.8-4.1-0.8c-2.2,0-4.1,0.8-5.8,2.3c-1.7,1.6-2.5,3.9-2.5,7c0,2.9,0.9,5.2,2.6,7.1c1.7,1.9,4.4,2.8,7.9,2.8
			c1.5,0,3.1-0.2,4.6-0.7C120,40.3,121.5,39.4,123,38.1z"/>
		<path class="st1" d="M129.7,44.9V3.4c0-0.6,0.4-1.2,1.1-1.9c0.7-0.7,1.8-1,3.3-1s2.6,0.3,3.3,1s1.1,1.3,1.1,1.9v14.7
			c0.8-0.7,1.9-1.5,3.5-2.2c1.5-0.7,3.6-1.1,6.1-1.1c3.7,0,6.6,1.1,8.8,3.4c2.1,2.3,3.2,5.7,3.2,10.3V45c0,0.6-0.4,1.2-1.1,1.8
			c-0.7,0.6-1.8,0.9-3.3,0.9c-1.6,0-2.7-0.3-3.4-0.9c-0.7-0.6-1-1.2-1-1.8V28.2c0-2-0.4-3.5-1.3-4.5c-0.9-1-2-1.5-3.4-1.5
			c-2.7,0-4.7,0.9-6,2.8c-1.4,1.8-2.1,4.6-2.1,8.4v11.5c0,0.6-0.4,1.2-1.1,1.8c-0.7,0.6-1.8,0.9-3.2,0.9s-2.5-0.3-3.3-0.9
			C130,46.2,129.7,45.5,129.7,44.9z"/>
		<path class="st1" d="M181.4,14.8c5,0,9.1,1.5,12.3,4.5s4.8,7.1,4.8,12.3c0,4.9-1.5,8.9-4.6,12s-7.2,4.6-12.5,4.6
			s-9.4-1.6-12.4-4.7c-3-3.1-4.5-7.1-4.5-11.9c0-5.2,1.6-9.3,4.8-12.3C172.4,16.3,176.5,14.8,181.4,14.8z M181.4,40.8
			c2.4,0,4.4-0.8,6-2.4c1.6-1.6,2.3-3.9,2.3-6.8s-0.8-5.2-2.3-6.9c-1.6-1.6-3.6-2.5-6-2.5s-4.3,0.8-5.9,2.5
			c-1.5,1.6-2.3,3.9-2.3,6.9s0.8,5.2,2.3,6.8C177.1,40,179,40.8,181.4,40.8z"/>
		<path class="st1" d="M208.1,0.6c1.5,0,2.6,0.3,3.3,1s1.1,1.3,1.1,1.9V45c0,0.6-0.4,1.3-1.1,1.9c-0.8,0.6-1.8,0.9-3.3,0.9
			c-1.4,0-2.5-0.3-3.3-0.9c-0.7-0.6-1.1-1.3-1.1-1.9V3.4c0-0.6,0.4-1.2,1.1-1.9C205.5,0.9,206.6,0.6,208.1,0.6z"/>
		<path class="st1" d="M249.1,34.6c0,1.1,0.2,2.4,0.7,3.8c0.4,1.4,1.1,2.6,1.8,3.7c0.2,0.4,0.4,0.8,0.5,1.2s0.1,1,0,1.6
			c-0.2,0.9-0.8,1.6-1.8,2.1c-1,0.4-1.8,0.7-2.4,0.7c-1.1,0-1.8-0.3-2.4-0.9c-0.5-0.6-1.2-1.6-2.1-2.9c-1,1.1-2.5,2.1-4.4,3
			s-4.2,1.3-6.9,1.3c-4.5,0-8-1.5-10.5-4.6c-2.6-3.1-3.9-6.9-3.9-11.5c0-5,1.6-9.1,4.9-12.3c3.2-3.2,7.2-4.8,11.8-4.8
			c4.2,0,7.7,1.4,10.6,4.2c2.9,2.8,4.3,6.6,4.3,11.3v4.1H249.1z M240.3,31.2c0.2-2.6-0.2-4.8-1.3-6.5s-2.6-2.5-4.5-2.5
			c-2.1,0-3.9,0.7-5.3,2.2c-1.4,1.5-2.4,3.6-2.9,6.5c-0.4,2.5-0.1,4.8,1.1,6.8c1.2,2,2.8,3,4.8,3c2.5,0,4.4-0.9,5.7-2.6
			C239.3,36.3,240.1,34,240.3,31.2z"/>
	</g>
	<g>
		<g>
			<path class="st2" d="M53.9,34.7H41.6c-1.7,0-3.1-1.4-3.1-3.1l0,0c0-1.7,1.4-3.1,3.1-3.1h12.3c1.7,0,3.1,1.4,3.1,3.1l0,0
				C57,33.3,55.6,34.7,53.9,34.7z"/>
		</g>
		<g>
			<path class="st2" d="M53.9,35.2H41.6c-2,0-3.6-1.6-3.6-3.6s1.6-3.6,3.6-3.6h12.3c2,0,3.6,1.6,3.6,3.6
				C57.5,33.6,55.9,35.2,53.9,35.2z M41.6,29c-1.4,0-2.6,1.2-2.6,2.6s1.2,2.6,2.6,2.6h12.3c1.4,0,2.6-1.2,2.6-2.6S55.3,29,53.9,29
				H41.6z"/>
		</g>
	</g>
</g>
<g>
	<path class="st3" d="M1.5,75H0.2C0.1,75,0,75,0,74.9V64.4c0-0.1,0.1-0.2,0.2-0.2h1.3c0.1,0,0.2,0.1,0.2,0.2v10.5
		C1.7,75,1.6,75,1.5,75z"/>
	<path class="st3" d="M10.2,75c-0.1,0-0.1,0-0.2,0c0,0-0.1-0.1-0.1-0.2L5.3,67v7.8c0,0.1,0,0.2,0,0.2c0,0-0.1,0-0.2,0H3.9
		c-0.1,0-0.1,0-0.2,0c0,0-0.1-0.1-0.1-0.2V64.4c0-0.1,0-0.2,0.1-0.2c0,0,0.1-0.1,0.2-0.1h1.3c0.1,0,0.1,0,0.2,0c0,0,0.1,0.1,0.1,0.2
		l4.5,7.8v-7.8c0-0.1,0-0.2,0-0.2c0,0,0.1,0,0.2,0h1.2c0.1,0,0.2,0,0.2,0c0,0,0,0.1,0,0.2v10.4c0,0.1,0,0.2-0.1,0.2
		c0,0-0.1,0.1-0.2,0.1H10.2z"/>
	<path class="st3" d="M21.7,74.9c-0.3,0.1-0.6,0.1-1,0.2c-0.4,0.1-0.9,0.1-1.4,0.1c-0.8,0-1.6-0.1-2.2-0.4c-0.7-0.3-1.2-0.7-1.7-1.1
		c-0.5-0.5-0.8-1.1-1.1-1.8c-0.3-0.7-0.4-1.5-0.4-2.3c0-0.8,0.1-1.6,0.4-2.3c0.3-0.7,0.6-1.3,1.1-1.8c0.5-0.5,1-0.9,1.7-1.2
		c0.7-0.3,1.4-0.4,2.2-0.4c0.4,0,0.9,0,1.3,0.1c0.4,0,0.8,0.1,1.1,0.2c0.1,0,0.2,0.1,0.2,0.1c0,0,0,0.1,0,0.2l0,1.1
		c0,0.2,0,0.2-0.1,0.2c0,0-0.1,0-0.2-0.1c-0.7-0.2-1.5-0.3-2.2-0.3c-0.6,0-1.1,0.1-1.6,0.3c-0.5,0.2-0.9,0.5-1.2,0.8
		c-0.3,0.4-0.6,0.8-0.7,1.3c-0.2,0.5-0.3,1.1-0.3,1.7c0,0.6,0.1,1.1,0.3,1.7c0.2,0.5,0.4,0.9,0.8,1.3c0.3,0.4,0.7,0.7,1.2,0.9
		c0.5,0.2,1,0.3,1.5,0.3c0.5,0,0.9,0,1.3-0.1c0.4,0,0.7-0.1,1-0.2c0.1,0,0.2-0.1,0.2,0c0,0,0.1,0.1,0.1,0.1l0.1,1c0,0.1,0,0.2,0,0.2
		S21.8,74.9,21.7,74.9z"/>
	<path class="st3" d="M24.2,75c0,0-0.1,0-0.1-0.1c0,0-0.1-0.1-0.1-0.1V64.4c0,0,0-0.1,0.1-0.1c0,0,0.1-0.1,0.1-0.1h1.3
		c0,0,0.1,0,0.1,0.1c0,0,0.1,0.1,0.1,0.1v4.3h4.5v-4.3c0,0,0-0.1,0.1-0.1c0,0,0.1-0.1,0.1-0.1h1.3c0,0,0.1,0,0.1,0.1
		c0,0,0.1,0.1,0.1,0.1v10.5c0,0,0,0.1-0.1,0.1c0,0-0.1,0.1-0.1,0.1h-1.3c-0.1,0-0.2-0.1-0.2-0.2v-4.7h-4.5v4.7
		c0,0.1-0.1,0.2-0.2,0.2H24.2z"/>
	<path class="st3" d="M34.9,75.1c-0.2,0-0.3,0-0.3-0.1c0,0-0.1-0.2-0.1-0.4V64.6c0-0.2,0-0.3,0.1-0.3c0,0,0.1-0.1,0.3-0.1H40
		c0.1,0,0.2,0,0.2,0.1c0,0,0,0.1,0,0.2v1.1c0,0.1,0,0.2,0,0.2c0,0-0.1,0.1-0.2,0.1h-3.9v2.9h3.7c0.1,0,0.2,0.1,0.2,0.2V70
		c0,0.2-0.1,0.2-0.2,0.2h-3.7v3.3h4.1c0.1,0,0.2,0.1,0.2,0.2v1.1c0,0.2-0.1,0.2-0.2,0.2H34.9z"/>
	<path class="st3" d="M50.7,73.7c-0.4,0.5-1,1-1.6,1.2c-0.6,0.3-1.3,0.4-2.1,0.4c-0.8,0-1.6-0.2-2.2-0.5c-0.6-0.3-1.1-0.7-1.5-1.2
		c-0.4-0.5-0.7-1.1-0.9-1.8c-0.2-0.7-0.3-1.4-0.3-2.2c0-0.7,0.1-1.5,0.3-2.2c0.2-0.7,0.5-1.3,0.9-1.8c0.4-0.5,0.9-0.9,1.5-1.2
		s1.3-0.5,2.2-0.5c0.8,0,1.5,0.2,2.1,0.5c0.6,0.3,1.1,0.7,1.5,1.2c0.4,0.5,0.7,1.1,0.9,1.8c0.2,0.7,0.3,1.4,0.3,2.1
		c0,0.8-0.1,1.6-0.3,2.3C51.4,72.6,51.1,73.2,50.7,73.7z M47.1,65.5c-0.6,0-1,0.1-1.4,0.4c-0.4,0.2-0.7,0.6-1,1
		c-0.3,0.4-0.4,0.8-0.6,1.3c-0.1,0.5-0.2,1-0.2,1.5c0,0.5,0.1,1,0.2,1.5c0.1,0.5,0.3,0.9,0.6,1.3c0.3,0.4,0.6,0.7,1,1
		c0.4,0.2,0.9,0.4,1.4,0.4s1-0.1,1.4-0.4c0.4-0.2,0.7-0.6,1-1c0.2-0.4,0.4-0.8,0.6-1.3c0.1-0.5,0.2-1,0.2-1.5c0-0.5-0.1-1-0.2-1.5
		c-0.1-0.5-0.3-0.9-0.6-1.3c-0.3-0.4-0.6-0.7-1-1C48.2,65.6,47.7,65.5,47.1,65.5z"/>
	<path class="st3" d="M60.5,75c-0.1,0-0.1,0-0.2,0c0,0-0.1-0.1-0.1-0.2L55.6,67v7.8c0,0.1,0,0.2,0,0.2c0,0-0.1,0-0.2,0h-1.2
		c-0.1,0-0.1,0-0.2,0c0,0-0.1-0.1-0.1-0.2V64.4c0-0.1,0-0.2,0.1-0.2c0,0,0.1-0.1,0.2-0.1h1.3c0.1,0,0.1,0,0.2,0c0,0,0.1,0.1,0.1,0.2
		l4.5,7.8v-7.8c0-0.1,0-0.2,0-0.2c0,0,0.1,0,0.2,0h1.2c0.1,0,0.2,0,0.2,0c0,0,0,0.1,0,0.2v10.4c0,0.1,0,0.2-0.1,0.2
		c0,0-0.1,0.1-0.2,0.1H60.5z"/>
	<path class="st3" d="M76,74.9c-0.3,0.1-0.6,0.1-1,0.2c-0.4,0.1-0.9,0.1-1.4,0.1c-0.8,0-1.6-0.1-2.2-0.4c-0.7-0.3-1.2-0.7-1.7-1.1
		c-0.5-0.5-0.8-1.1-1.1-1.8c-0.3-0.7-0.4-1.5-0.4-2.3c0-0.8,0.1-1.6,0.4-2.3c0.3-0.7,0.6-1.3,1.1-1.8c0.5-0.5,1-0.9,1.7-1.2
		c0.7-0.3,1.4-0.4,2.2-0.4c0.4,0,0.9,0,1.3,0.1c0.4,0,0.8,0.1,1.1,0.2c0.1,0,0.2,0.1,0.2,0.1c0,0,0,0.1,0,0.2l0,1.1
		c0,0.2,0,0.2-0.1,0.2c0,0-0.1,0-0.2-0.1c-0.7-0.2-1.5-0.3-2.2-0.3c-0.6,0-1.1,0.1-1.6,0.3c-0.5,0.2-0.9,0.5-1.2,0.8
		c-0.3,0.4-0.6,0.8-0.7,1.3c-0.2,0.5-0.3,1.1-0.3,1.7c0,0.6,0.1,1.1,0.3,1.7c0.2,0.5,0.4,0.9,0.8,1.3c0.3,0.4,0.7,0.7,1.2,0.9
		c0.5,0.2,1,0.3,1.5,0.3c0.5,0,0.9,0,1.3-0.1c0.4,0,0.7-0.1,1-0.2c0.1,0,0.2-0.1,0.2,0c0,0,0.1,0.1,0.1,0.1l0.1,1c0,0.1,0,0.2,0,0.2
		C76.2,74.9,76.1,74.9,76,74.9z"/>
	<path class="st3" d="M85.8,75c-0.1,0-0.1,0-0.1,0c0,0-0.1-0.1-0.1-0.1l-1-2.6h-4.7l-1,2.6c0,0.1,0,0.1-0.1,0.1c0,0-0.1,0-0.1,0
		h-1.3c-0.2,0-0.2-0.1-0.2-0.2l4.2-10.5c0-0.1,0.1-0.1,0.1-0.1c0,0,0.1,0,0.2,0h1.3c0.1,0,0.1,0,0.2,0c0,0,0,0.1,0.1,0.1l4.2,10.5
		c0,0.1,0,0.2-0.2,0.2H85.8z M80.5,70.8H84l-1.7-4.4L80.5,70.8z"/>
	<path class="st3" d="M91.4,65.7v9.2c0,0.1-0.1,0.2-0.2,0.2H90c-0.1,0-0.2-0.1-0.2-0.2v-9.2H87c0,0-0.1,0-0.1-0.1
		c0,0-0.1-0.1-0.1-0.1v-1.2c0,0,0-0.1,0.1-0.1c0,0,0.1-0.1,0.1-0.1h7.2c0,0,0.1,0,0.1,0.1c0,0,0.1,0.1,0.1,0.1v1.2
		c0,0.1-0.1,0.2-0.2,0.2H91.4z"/>
	<path class="st3" d="M96.1,75c0,0-0.1,0-0.1-0.1c0,0-0.1-0.1-0.1-0.1V64.4c0,0,0-0.1,0.1-0.1c0,0,0.1-0.1,0.1-0.1h1.3
		c0,0,0.1,0,0.1,0.1c0,0,0.1,0.1,0.1,0.1v4.3h4.5v-4.3c0,0,0-0.1,0.1-0.1c0,0,0.1-0.1,0.1-0.1h1.3c0,0,0.1,0,0.1,0.1
		c0,0,0.1,0.1,0.1,0.1v10.5c0,0,0,0.1-0.1,0.1c0,0-0.1,0.1-0.1,0.1h-1.3c-0.1,0-0.2-0.1-0.2-0.2v-4.7h-4.5v4.7
		c0,0.1-0.1,0.2-0.2,0.2H96.1z"/>
	<path class="st3" d="M114.3,73.7c-0.4,0.5-1,1-1.6,1.2c-0.6,0.3-1.3,0.4-2.1,0.4c-0.8,0-1.6-0.2-2.2-0.5c-0.6-0.3-1.1-0.7-1.5-1.2
		c-0.4-0.5-0.7-1.1-0.9-1.8c-0.2-0.7-0.3-1.4-0.3-2.2c0-0.7,0.1-1.5,0.3-2.2c0.2-0.7,0.5-1.3,0.9-1.8c0.4-0.5,0.9-0.9,1.5-1.2
		s1.3-0.5,2.2-0.5c0.8,0,1.5,0.2,2.1,0.5c0.6,0.3,1.1,0.7,1.5,1.2c0.4,0.5,0.7,1.1,0.9,1.8c0.2,0.7,0.3,1.4,0.3,2.1
		c0,0.8-0.1,1.6-0.3,2.3C115,72.6,114.7,73.2,114.3,73.7z M110.7,65.5c-0.6,0-1,0.1-1.4,0.4c-0.4,0.2-0.7,0.6-1,1
		c-0.3,0.4-0.4,0.8-0.6,1.3c-0.1,0.5-0.2,1-0.2,1.5c0,0.5,0.1,1,0.2,1.5c0.1,0.5,0.3,0.9,0.6,1.3c0.3,0.4,0.6,0.7,1,1
		c0.4,0.2,0.9,0.4,1.4,0.4s1-0.1,1.4-0.4c0.4-0.2,0.7-0.6,1-1c0.2-0.4,0.4-0.8,0.6-1.3c0.1-0.5,0.2-1,0.2-1.5c0-0.5-0.1-1-0.2-1.5
		c-0.1-0.5-0.3-0.9-0.6-1.3c-0.3-0.4-0.6-0.7-1-1S111.2,65.5,110.7,65.5z"/>
	<path class="st3" d="M117.7,75c0,0-0.1,0-0.1-0.1c0,0-0.1-0.1-0.1-0.1V64.4c0,0,0-0.1,0.1-0.1c0,0,0.1-0.1,0.1-0.1h1.3
		c0,0,0.1,0,0.1,0.1c0,0,0.1,0.1,0.1,0.1v9.2h3.7c0.1,0,0.2,0.1,0.2,0.2v1.2c0,0,0,0.1-0.1,0.1c0,0-0.1,0.1-0.1,0.1H117.7z"/>
	<path class="st3" d="M125.8,75h-1.3c-0.1,0-0.2-0.1-0.2-0.2V64.4c0-0.1,0.1-0.2,0.2-0.2h1.3c0.1,0,0.2,0.1,0.2,0.2v10.5
		C126,75,125.9,75,125.8,75z"/>
	<path class="st3" d="M135.5,74.9c-0.3,0.1-0.6,0.1-1,0.2c-0.4,0.1-0.9,0.1-1.4,0.1c-0.8,0-1.6-0.1-2.2-0.4
		c-0.7-0.3-1.2-0.7-1.7-1.1c-0.5-0.5-0.8-1.1-1.1-1.8c-0.3-0.7-0.4-1.5-0.4-2.3c0-0.8,0.1-1.6,0.4-2.3c0.3-0.7,0.6-1.3,1.1-1.8
		c0.5-0.5,1-0.9,1.7-1.2c0.7-0.3,1.4-0.4,2.2-0.4c0.4,0,0.9,0,1.3,0.1c0.4,0,0.8,0.1,1.1,0.2c0.1,0,0.2,0.1,0.2,0.1c0,0,0,0.1,0,0.2
		l0,1.1c0,0.2,0,0.2-0.1,0.2s-0.1,0-0.2-0.1c-0.7-0.2-1.5-0.3-2.2-0.3c-0.6,0-1.1,0.1-1.6,0.3c-0.5,0.2-0.9,0.5-1.2,0.8
		c-0.3,0.4-0.6,0.8-0.7,1.3c-0.2,0.5-0.3,1.1-0.3,1.7c0,0.6,0.1,1.1,0.3,1.7c0.2,0.5,0.4,0.9,0.8,1.3c0.3,0.4,0.7,0.7,1.2,0.9
		c0.5,0.2,1,0.3,1.5,0.3c0.5,0,0.9,0,1.3-0.1c0.4,0,0.7-0.1,1-0.2c0.1,0,0.2-0.1,0.2,0c0,0,0.1,0.1,0.1,0.1l0.1,1c0,0.1,0,0.2,0,0.2
		C135.7,74.9,135.6,74.9,135.5,74.9z"/>
	<path class="st3" d="M148.4,74.5c-0.4,0.3-0.8,0.5-1.2,0.6c-0.4,0.1-0.9,0.2-1.4,0.2c-1,0-1.9-0.3-2.6-0.8c-0.5-0.4-0.8-0.8-1-1.4
		c-0.2-0.6-0.3-1.2-0.3-1.9v-6.8c0,0,0-0.1,0.1-0.1c0,0,0.1-0.1,0.1-0.1h1.3c0,0,0.1,0,0.1,0.1c0,0,0.1,0.1,0.1,0.1v6.8
		c0,0.7,0.2,1.4,0.6,1.8c0.4,0.5,1,0.7,1.7,0.7c0.8,0,1.4-0.2,1.8-0.7c0.4-0.5,0.6-1.1,0.6-1.9v-6.8c0,0,0-0.1,0.1-0.1
		c0,0,0.1-0.1,0.1-0.1h1.3c0,0,0.1,0,0.1,0.1c0,0,0.1,0.1,0.1,0.1v6.8c0,0.7-0.1,1.3-0.3,1.9C149.2,73.6,148.8,74.1,148.4,74.5z"/>
	<path class="st3" d="M158.7,75c-0.1,0-0.1,0-0.2,0c0,0-0.1-0.1-0.1-0.2l-4.5-7.8v7.8c0,0.1,0,0.2,0,0.2c0,0-0.1,0-0.2,0h-1.2
		c-0.1,0-0.1,0-0.2,0c0,0-0.1-0.1-0.1-0.2V64.4c0-0.1,0-0.2,0.1-0.2c0,0,0.1-0.1,0.2-0.1h1.3c0.1,0,0.1,0,0.2,0c0,0,0.1,0.1,0.1,0.2
		l4.5,7.8v-7.8c0-0.1,0-0.2,0-0.2c0,0,0.1,0,0.2,0h1.2c0.1,0,0.2,0,0.2,0c0,0,0,0.1,0,0.2v10.4c0,0.1,0,0.2-0.1,0.2
		c0,0-0.1,0.1-0.2,0.1H158.7z"/>
	<path class="st3" d="M164,75h-1.3c-0.1,0-0.2-0.1-0.2-0.2V64.4c0-0.1,0.1-0.2,0.2-0.2h1.3c0.1,0,0.2,0.1,0.2,0.2v10.5
		C164.2,75,164.1,75,164,75z"/>
	<path class="st3" d="M170.6,75c0,0-0.1,0-0.1,0h-1.3c-0.1,0-0.1,0-0.1,0c0,0-0.1-0.1-0.1-0.1L165,64.4c0-0.1,0-0.1,0-0.2
		c0,0,0.1-0.1,0.2-0.1h1.2c0.1,0,0.1,0,0.2,0c0,0,0.1,0.1,0.1,0.1l3.1,8.4l3.1-8.4c0-0.1,0.1-0.1,0.1-0.1c0,0,0.1,0,0.2,0h1.2
		c0.1,0,0.2,0,0.2,0.1c0,0,0,0.1,0,0.2l-3.9,10.5C170.6,75,170.6,75,170.6,75z"/>
	<path class="st3" d="M176.3,75.1c-0.2,0-0.3,0-0.3-0.1c0,0-0.1-0.2-0.1-0.4V64.6c0-0.2,0-0.3,0.1-0.3c0,0,0.1-0.1,0.3-0.1h5.1
		c0.1,0,0.2,0,0.2,0.1c0,0,0,0.1,0,0.2v1.1c0,0.1,0,0.2,0,0.2c0,0-0.1,0.1-0.2,0.1h-3.9v2.9h3.7c0.1,0,0.2,0.1,0.2,0.2V70
		c0,0.2-0.1,0.2-0.2,0.2h-3.7v3.3h4.1c0.1,0,0.2,0.1,0.2,0.2v1.1c0,0.2-0.1,0.2-0.2,0.2H176.3z"/>
	<path class="st3" d="M190.1,75c-0.1,0-0.2,0-0.2,0s-0.1-0.1-0.1-0.1l-2.2-4.3h-1.6v4.2c0,0.1-0.1,0.2-0.2,0.2h-1.3
		c-0.1,0-0.2-0.1-0.2-0.2V64.4c0,0,0-0.1,0.1-0.1c0,0,0.1-0.1,0.1-0.1h2.9c1.1,0,1.9,0.3,2.5,0.8c0.6,0.5,0.9,1.3,0.9,2.4
		c0,0.7-0.2,1.3-0.5,1.8c-0.3,0.5-0.7,0.9-1.3,1.1l2.4,4.6c0.1,0.1,0,0.2-0.2,0.2H190.1z M185.8,65.7v3.4h1.2c0.6,0,1.1-0.1,1.5-0.4
		c0.4-0.3,0.6-0.7,0.6-1.4c0-0.5-0.1-1-0.4-1.2c-0.3-0.3-0.7-0.4-1.2-0.4H185.8z"/>
	<path class="st3" d="M198.1,74.3c-0.2,0.3-0.6,0.5-1,0.7c-0.4,0.2-0.8,0.3-1.2,0.3c-0.2,0-0.5,0-0.8,0c-0.3,0-0.6-0.1-0.8-0.1
		c-0.3,0-0.5-0.1-0.7-0.1c-0.2-0.1-0.4-0.1-0.5-0.2c-0.1-0.1-0.2-0.1-0.3-0.2c0,0,0-0.1,0-0.2l0.1-1.1c0-0.1,0-0.1,0.1-0.1
		c0,0,0.1,0,0.2,0c0.1,0,0.3,0.1,0.5,0.2c0.2,0.1,0.4,0.1,0.7,0.2c0.3,0,0.5,0.1,0.8,0.1c0.3,0,0.5,0,0.7-0.1
		c0.3-0.1,0.5-0.2,0.7-0.3c0.2-0.1,0.3-0.2,0.4-0.4s0.2-0.3,0.2-0.5c0-0.2,0.1-0.4,0.1-0.6c0-0.2-0.1-0.4-0.4-0.7
		c-0.2-0.3-0.6-0.6-1-0.9c-0.5-0.3-1-0.6-1.4-0.9c-0.4-0.3-0.7-0.5-1-0.8c-0.3-0.3-0.4-0.5-0.6-0.8c-0.1-0.3-0.2-0.6-0.2-1
		c0-0.4,0.1-0.8,0.3-1.1c0.2-0.4,0.4-0.7,0.7-0.9c0.3-0.3,0.6-0.5,1.1-0.6s0.9-0.2,1.3-0.2c0.5,0,0.9,0,1.2,0.1
		c0.3,0.1,0.6,0.1,0.8,0.2c0.1,0,0.2,0.1,0.2,0.1c0,0,0,0.1,0,0.2l-0.2,0.9c0,0.1-0.1,0.2-0.1,0.2s-0.1,0-0.2,0
		c-0.1,0-0.3-0.1-0.5-0.1c-0.2,0-0.4-0.1-0.5-0.1c-0.2,0-0.4,0-0.5-0.1c-0.2,0-0.3,0-0.5,0c-0.5,0.1-0.9,0.3-1.1,0.5
		c-0.2,0.3-0.3,0.6-0.3,1c0,0.2,0.1,0.5,0.4,0.8c0.2,0.3,0.6,0.6,1.1,0.9c0.6,0.4,1.1,0.7,1.5,1c0.4,0.3,0.7,0.6,0.9,0.8
		c0.2,0.3,0.4,0.5,0.5,0.8c0.1,0.3,0.1,0.6,0.1,0.9C198.9,73,198.6,73.7,198.1,74.3z"/>
	<path class="st3" d="M202.2,75h-1.3c-0.1,0-0.2-0.1-0.2-0.2V64.4c0-0.1,0.1-0.2,0.2-0.2h1.3c0.1,0,0.2,0.1,0.2,0.2v10.5
		C202.4,75,202.3,75,202.2,75z"/>
	<path class="st3" d="M208,65.7v9.2c0,0.1-0.1,0.2-0.2,0.2h-1.3c-0.1,0-0.2-0.1-0.2-0.2v-9.2h-2.8c0,0-0.1,0-0.1-0.1
		c0,0-0.1-0.1-0.1-0.1v-1.2c0,0,0-0.1,0.1-0.1c0,0,0.1-0.1,0.1-0.1h7.2c0,0,0.1,0,0.1,0.1c0,0,0.1,0.1,0.1,0.1v1.2
		c0,0.1-0.1,0.2-0.2,0.2H208z"/>
	<path class="st3" d="M216.7,74.9c0,0.1-0.1,0.2-0.2,0.2h-1.3c-0.1,0-0.2-0.1-0.2-0.2v-4.4l-3.8-6.2c-0.1-0.1,0-0.2,0.1-0.2h1.5
		c0.1,0,0.2,0,0.2,0.1l2.9,4.6l2.9-4.6c0-0.1,0.1-0.1,0.2-0.1h1.5c0.2,0,0.2,0.1,0.1,0.2l-3.8,6.2V74.9z"/>
	<path class="st4" d="M226.1,75c0,0-0.1,0-0.1-0.1c0,0-0.1-0.1-0.1-0.1V64.4c0,0,0-0.1,0.1-0.1c0,0,0.1-0.1,0.1-0.1h1.3
		c0,0,0.1,0,0.1,0.1c0,0,0.1,0.1,0.1,0.1v9.2h3.7c0.1,0,0.2,0.1,0.2,0.2v1.2c0,0,0,0.1-0.1,0.1c0,0-0.1,0.1-0.1,0.1H226.1z"/>
	<path class="st4" d="M242.7,75c-0.1,0-0.1,0-0.1,0c0,0,0-0.1,0-0.1v-7.8l-3.1,7.8c0,0,0,0.1-0.1,0.1c0,0-0.1,0-0.2,0H238
		c-0.1,0-0.2,0-0.2,0c0,0,0,0-0.1-0.1l-3.1-7.8v7.8c0,0.1,0,0.1,0,0.1c0,0-0.1,0-0.1,0h-1.3c-0.1,0-0.2-0.1-0.2-0.2V64.5
		c0-0.1,0-0.2,0-0.3c0,0,0.1-0.1,0.3-0.1h1.7c0.1,0,0.1,0,0.1,0c0,0,0,0.1,0.1,0.1l3.4,8.5l3.4-8.5c0-0.1,0.1-0.1,0.1-0.1
		c0,0,0.1,0,0.1,0h1.7c0.2,0,0.2,0,0.3,0.1c0,0,0,0.1,0,0.3v10.4c0,0.1-0.1,0.2-0.2,0.2H242.7z"/>
	<path class="st4" d="M251.8,74.3c-0.2,0.3-0.6,0.5-1,0.7c-0.4,0.2-0.8,0.3-1.2,0.3c-0.2,0-0.5,0-0.8,0c-0.3,0-0.6-0.1-0.8-0.1
		c-0.3,0-0.5-0.1-0.7-0.1c-0.2-0.1-0.4-0.1-0.5-0.2c-0.1-0.1-0.2-0.1-0.3-0.2c0,0,0-0.1,0-0.2l0.1-1.1c0-0.1,0-0.1,0.1-0.1
		c0,0,0.1,0,0.2,0c0.1,0,0.3,0.1,0.5,0.2c0.2,0.1,0.4,0.1,0.7,0.2c0.3,0,0.5,0.1,0.8,0.1c0.3,0,0.5,0,0.7-0.1
		c0.3-0.1,0.5-0.2,0.7-0.3c0.2-0.1,0.3-0.2,0.4-0.4s0.2-0.3,0.2-0.5c0-0.2,0.1-0.4,0.1-0.6c0-0.2-0.1-0.4-0.4-0.7
		c-0.2-0.3-0.6-0.6-1-0.9c-0.5-0.3-1-0.6-1.4-0.9c-0.4-0.3-0.7-0.5-1-0.8c-0.3-0.3-0.4-0.5-0.6-0.8c-0.1-0.3-0.2-0.6-0.2-1
		c0-0.4,0.1-0.8,0.3-1.1c0.2-0.4,0.4-0.7,0.7-0.9c0.3-0.3,0.6-0.5,1.1-0.6s0.9-0.2,1.3-0.2c0.5,0,0.9,0,1.2,0.1
		c0.3,0.1,0.6,0.1,0.8,0.2c0.1,0,0.2,0.1,0.2,0.1c0,0,0,0.1,0,0.2l-0.2,0.9c0,0.1-0.1,0.2-0.1,0.2s-0.1,0-0.2,0
		c-0.1,0-0.3-0.1-0.5-0.1c-0.2,0-0.4-0.1-0.5-0.1c-0.2,0-0.4,0-0.5-0.1c-0.2,0-0.3,0-0.5,0c-0.5,0.1-0.9,0.3-1.1,0.5
		c-0.2,0.3-0.3,0.6-0.3,1c0,0.2,0.1,0.5,0.4,0.8s0.6,0.6,1.1,0.9c0.6,0.4,1.1,0.7,1.5,1c0.4,0.3,0.7,0.6,0.9,0.8
		c0.2,0.3,0.4,0.5,0.5,0.8c0.1,0.3,0.1,0.6,0.1,0.9C252.7,73,252.4,73.7,251.8,74.3z"/>
</g>
</svg>
