<?xml version="1.0" encoding="utf-8"?>
<!-- Generator: Adobe Illustrator 24.1.2, SVG Export Plug-In . SVG Version: 6.00 Build 0)  -->
<svg version="1.1" id="레이어_1" xmlns="http://www.w3.org/2000/svg" xmlns:xlink="http://www.w3.org/1999/xlink" x="0px"
	 y="0px" viewBox="0 0 24 24" style="enable-background:new 0 0 24 24;" xml:space="preserve">
<style type="text/css">
	.st0{fill:none;}
	.st1{fill:#0C45A1;}
</style>
<path class="st0" d="M0,0h24v24H0V0z"/>
<path class="st1" d="M14.1,9L15,9.9L5.9,19H5v-0.9L14.1,9 M17.7,3c-0.3,0-0.5,0.1-0.7,0.3l-1.8,1.8l3.8,3.8L20.7,7
	c0.4-0.4,0.4-1,0-1.4l-2.3-2.3C18.2,3.1,17.9,3,17.7,3z M14.1,6.2L3,17.3V21h3.8L17.8,9.9C17.8,9.9,14.1,6.2,14.1,6.2z"/>
</svg>
