<svg id="Layer_1" data-name="Layer 1" xmlns="http://www.w3.org/2000/svg" viewBox="0 0 264.7 38.46"><defs><style>.cls-1{fill:#3f3f3f;}.cls-2{fill:#626262;}</style></defs><title>footer_logo</title><path class="cls-1" d="M179.42,8.88h-7l-1.26,4.7h14.06c4.7,0,7.49-3.32,8.47-7S192.9,0,188.23,0H160.12l-5,18.48a2.72,2.72,0,0,0,2.68,3.66h27.87l1.26-4.7H167a.44.44,0,0,1-.43-.59L169.85,4.7h11.41a1.42,1.42,0,0,1,1.4,1.91A3.05,3.05,0,0,1,179.42,8.88Z"/><path class="cls-1" d="M207.19,5.29a.85.85,0,0,1,.74-.59h19.46L228.65,0h-31L192.7,18.33a2.88,2.88,0,0,0,2.93,3.81h27.08l1.27-4.7H204.92a.72.72,0,0,1-.73-1Z"/><polygon class="cls-1" points="253.7 0 251.56 8.01 240.66 8.01 242.81 0 231.82 0 225.88 22.14 236.88 22.14 239.41 12.72 250.3 12.72 247.77 22.14 258.77 22.14 264.7 0 253.7 0"/><path class="cls-1" d="M41.26,1.12A7.07,7.07,0,0,0,37,0H9.19L3.24,22.13h11L18.92,4.7H29.41c2,0,2.54,1.3,2.12,2.9a4.06,4.06,0,0,1-3.68,2.89H20.74l-1.26,4.7h13.4A10,10,0,0,0,42.52,7.6C43.25,4.85,43.06,2.45,41.26,1.12Z"/><path class="cls-1" d="M77.2,0H52.87a7.13,7.13,0,0,0-7.44,5.57L42.58,16.26c-.87,3.27,1.08,5.94,4.35,5.94H71.25c4.37,0,6.65-2.67,7.53-5.94L81.55,5.93C82.42,2.67,81.55,0,77.2,0ZM70.35,6.68,68,15.52a2.78,2.78,0,0,1-2.5,2H55.22a1.46,1.46,0,0,1-1.44-2l2.36-8.84a2.77,2.77,0,0,1,2.51-2H68.9C70.39,4.7,70.64,5.59,70.35,6.68Z"/><polygon class="cls-1" points="157.49 0 121.52 0 120.26 4.7 132.97 4.7 128.29 22.2 139.46 22.2 144.14 4.7 156.23 4.7 157.49 0"/><path class="cls-1" d="M84,6.61c-1,3.65,1.19,6.61,4.84,6.61h15a1.58,1.58,0,0,1,1.56,2.14,2.68,2.68,0,0,1-2.7,2.13H82.31L81.05,22.2h26.66c5,0,7.66-3.06,8.67-6.84s0-6.84-5-6.84h-15A1.41,1.41,0,0,1,95,6.61l.51-1.91h22.31L119.05,0H85.74Z"/><path class="cls-2" d="M3.06,29.91H5.6c1.87,0,3,.64,2.29,2.54a4.15,4.15,0,0,1-4.14,2.68H2.48L1.32,38.31H0ZM4,34.07a2.43,2.43,0,0,0,2.58-1.62C7,31.34,6.43,31,5.09,31H4l-1.12,3.1Z"/><path class="cls-2" d="M8.69,34.08c1-2.71,3.07-4.33,5.23-4.33S17,31.37,16,34.08s-3.1,4.38-5.26,4.38S7.71,36.78,8.69,34.08Zm6,0c.72-2,.24-3.18-1.15-3.18s-2.73,1.2-3.45,3.18-.27,3.23,1.12,3.23S13.93,36.05,14.65,34.08Z"/><path class="cls-2" d="M16.24,37.23l1.11-.92a2.16,2.16,0,0,0,1.87,1,2,2,0,0,0,2-1.19c.28-.76-.2-1-.86-1.35l-1-.5a1.62,1.62,0,0,1-.91-2.2,3.89,3.89,0,0,1,3.61-2.32,2.45,2.45,0,0,1,2.16,1.06l-1,.85a1.82,1.82,0,0,0-1.57-.76A1.83,1.83,0,0,0,19.87,32c-.26.72.31,1,.9,1.27l1,.49A1.6,1.6,0,0,1,22.63,36a4.06,4.06,0,0,1-3.85,2.44A2.87,2.87,0,0,1,16.24,37.23Z"/><path class="cls-2" d="M27.72,31H25.25l.4-1.11h6.27L31.52,31H29l-2.65,7.29H25.06Z"/><path class="cls-2" d="M33.59,29.91h5L38.16,31H34.51l-.85,2.34h3.09l-.41,1.12H33.26l-1,2.71H36l-.4,1.12H30.54Z"/><path class="cls-2" d="M38.67,34.13c1-2.73,3.27-4.38,5.39-4.38a2.16,2.16,0,0,1,2,1.06l-1,.85a1.48,1.48,0,0,0-1.37-.76c-1.45,0-2.89,1.21-3.61,3.19s-.24,3.22,1.25,3.22a3.63,3.63,0,0,0,2.18-.89l.4.83a4.76,4.76,0,0,1-3.05,1.21C38.72,38.46,37.67,36.88,38.67,34.13Z"/><path class="cls-2" d="M48.26,29.91h1.33l-1.25,3.43h3.6l1.24-3.43h1.33l-3.06,8.4H50.13l1.39-3.82h-3.6l-1.39,3.82H45.21Z"/><path class="cls-2" d="M56.93,29.91h1.33l-3.06,8.4H53.88Z"/><path class="cls-2" d="M62.38,35.92H59.46l-1.59,2.39H56.52l5.85-8.4h1.52l-.27,8.4h-1.4Zm.06-1,.08-1.13c0-.92.14-1.85.22-2.8h-.05c-.58,1-1.18,1.88-1.79,2.8l-.75,1.13Z"/><path class="cls-2" d="M68,29.91h1.36l1,4.93.23,1.78h.06c.24-.87.51-1.88.84-2.79l1.43-3.92h1.25l-3,8.4H69.76l-1-5-.24-1.76h-.06c-.25.87-.5,1.84-.83,2.75l-1.44,4H65Z"/><path class="cls-2" d="M81.1,35.92H78.18l-1.59,2.39H75.24l5.84-8.4h1.53l-.27,8.4h-1.4Zm.06-1,.08-1.13c.05-.92.14-1.85.22-2.8h0c-.58,1-1.18,1.88-1.79,2.8l-.75,1.13Z"/><path class="cls-2" d="M84.61,34.13c1-2.73,3.26-4.38,5.39-4.38a2.14,2.14,0,0,1,2,1.06l-1,.85a1.49,1.49,0,0,0-1.37-.76c-1.45,0-2.89,1.21-3.61,3.19s-.24,3.22,1.24,3.22a3.63,3.63,0,0,0,2.19-.89l.4.83a4.78,4.78,0,0,1-3,1.21C84.66,38.46,83.61,36.88,84.61,34.13Z"/><path class="cls-2" d="M95.31,31H92.84l.4-1.11h6.27L99.11,31H96.63L94,38.31H92.65Z"/><path class="cls-2" d="M101.18,29.91h1.33l-3.06,8.4H98.13Z"/><path class="cls-2" d="M103.81,29.91h1.4l-.34,4.35c-.06,1-.18,1.78-.24,2.75h.06c.64-1,1.15-1.79,1.77-2.75l2.83-4.35h1.34L105,38.31h-1.57Z"/><path class="cls-2" d="M111.94,29.91h1.32l-3.05,8.4h-1.33Z"/><path class="cls-2" d="M117,31h-2.46l.4-1.11h6.27L120.8,31h-2.47l-2.66,7.29h-1.32Z"/><path class="cls-2" d="M122.17,35.13l-.63-5.22H123l.16,2.23c0,.62.06,1.21.11,1.85h0c.51-.64,1-1.23,1.47-1.85l1.79-2.23h1.38l-4.43,5.22-1.16,3.18H121Z"/><path class="cls-2" d="M132,29.91h1.52v4.25c0,.56,0,1.13-.06,1.7h.06c.4-.57.77-1.14,1.17-1.7l3.06-4.25h1.53l-3.06,8.4H135l1.51-4.15c.27-.76.77-1.84,1.12-2.6h0L136.2,33.5l-2.92,4h-.82v-4l0-1.94h0c-.22.76-.52,1.84-.79,2.6l-1.51,4.15H129Z"/><path class="cls-2" d="M143.41,35.92h-2.92l-1.6,2.39h-1.34l5.84-8.4h1.53l-.27,8.4h-1.41Zm.06-1,.08-1.13c0-.92.13-1.85.22-2.8h-.05c-.59,1-1.19,1.88-1.79,2.8l-.76,1.13Z"/><path class="cls-2" d="M149,29.91h1.35l1,4.93.23,1.78h0c.25-.87.52-1.88.85-2.79L154,29.91h1.25l-3.06,8.4h-1.35l-1-5-.24-1.76h-.05c-.25.87-.5,1.84-.83,2.75l-1.45,4H146Z"/><path class="cls-2" d="M159.33,35.92h-2.92l-1.59,2.39h-1.35l5.85-8.4h1.53l-.28,8.4h-1.4Zm.06-1,.08-1.13c.05-.92.14-1.85.22-2.8h-.05c-.58,1-1.18,1.88-1.79,2.8l-.75,1.13Z"/><path class="cls-2" d="M162.84,34.13a6.22,6.22,0,0,1,5.51-4.38,2.28,2.28,0,0,1,2.12,1.06l-1,.85A1.54,1.54,0,0,0,168,30.9c-1.56,0-3,1.21-3.76,3.19s-.25,3.22,1.49,3.22a2.8,2.8,0,0,0,1.47-.41l.72-2h-1.67l.4-1.08h2.86l-1.32,3.64a5.28,5.28,0,0,1-3,1C162.9,38.46,161.84,36.88,162.84,34.13Z"/><path class="cls-2" d="M173.06,29.91h5L177.62,31H174l-.85,2.34h3.08l-.4,1.12h-3.09l-1,2.71h3.77l-.41,1.12H170Z"/><path class="cls-2" d="M180.13,29.91h1.52v4.25c0,.56-.05,1.13-.06,1.7h0c.41-.57.77-1.14,1.17-1.7l3.07-4.25h1.52l-3.05,8.4h-1.24l1.52-4.15c.27-.76.77-1.84,1.12-2.6h-.05l-1.38,1.94-2.92,4h-.82l0-4,.05-1.94h-.05c-.22.76-.51,1.84-.78,2.6l-1.52,4.15h-1.18Z"/><path class="cls-2" d="M189.83,29.91h5l-.4,1.11h-3.64l-.85,2.34H193l-.41,1.12h-3.08l-1,2.71h3.77l-.41,1.12h-5.09Z"/><path class="cls-2" d="M196.9,29.91h1.36l1,4.93.23,1.78h.06c.25-.87.51-1.88.84-2.79l1.43-3.92h1.26L200,38.31h-1.36l-1-5-.24-1.76h-.06c-.24.87-.5,1.84-.83,2.75l-1.44,4h-1.25Z"/><path class="cls-2" d="M206.81,31h-2.46l.4-1.11H211L210.61,31h-2.47l-2.66,7.29h-1.32Z"/><path class="cls-2" d="M212.23,37.23l1.11-.92a2.16,2.16,0,0,0,1.87,1,2,2,0,0,0,2-1.19c.28-.76-.2-1-.85-1.35l-1-.5a1.62,1.62,0,0,1-.91-2.2,3.89,3.89,0,0,1,3.61-2.32,2.45,2.45,0,0,1,2.16,1.06l-1,.85a2,2,0,0,0-3.38.33c-.26.72.31,1,.9,1.27l1,.49a1.6,1.6,0,0,1,.89,2.27,4.05,4.05,0,0,1-3.85,2.44A2.87,2.87,0,0,1,212.23,37.23Z"/><path class="cls-2" d="M221.94,35.13l-.63-5.22h1.42l.16,2.23c0,.62.06,1.21.11,1.85h.05c.51-.64,1-1.23,1.47-1.85l1.79-2.23h1.38l-4.43,5.22-1.16,3.18h-1.32Z"/><path class="cls-2" d="M225.52,37.23l1.11-.92a2.16,2.16,0,0,0,1.87,1,2,2,0,0,0,2-1.19c.28-.76-.2-1-.86-1.35l-1-.5a1.62,1.62,0,0,1-.91-2.2,3.88,3.88,0,0,1,3.61-2.32,2.46,2.46,0,0,1,2.16,1.06l-1,.85a2,2,0,0,0-3.38.33c-.26.72.31,1,.9,1.27l1,.49a1.6,1.6,0,0,1,.89,2.27,4.06,4.06,0,0,1-3.85,2.44A2.87,2.87,0,0,1,225.52,37.23Z"/><path class="cls-2" d="M237,31h-2.47l.4-1.11h6.27L240.8,31h-2.48l-2.65,7.29h-1.33Z"/><path class="cls-2" d="M242.88,29.91h5l-.4,1.11h-3.65l-.85,2.34H246l-.41,1.12h-3.08l-1,2.71h3.76l-.4,1.12h-5.09Z"/><path class="cls-2" d="M250,29.91h1.51v4.25c0,.56-.05,1.13-.06,1.7h.06c.4-.57.77-1.14,1.16-1.7l3.07-4.25h1.53l-3.06,8.4h-1.23l1.51-4.15c.27-.76.77-1.84,1.12-2.6h-.05l-1.38,1.94-2.92,4h-.82v-4l0-1.94h0c-.23.76-.52,1.84-.79,2.6l-1.51,4.15h-1.19Z"/></svg>