<?xml version="1.0" encoding="utf-8"?>
<!-- Generator: Adobe Illustrator 16.0.0, SVG Export Plug-In . SVG Version: 6.00 Build 0)  -->
<!DOCTYPE svg PUBLIC "-//W3C//DTD SVG 1.1//EN" "http://www.w3.org/Graphics/SVG/1.1/DTD/svg11.dtd">
<svg version="1.1" xmlns="http://www.w3.org/2000/svg" xmlns:xlink="http://www.w3.org/1999/xlink" x="0px" y="0px" width="215px"
	 height="65px" viewBox="0 0 215 65" enable-background="new 0 0 215 65" xml:space="preserve">
<g id="레이어_1">
	<path fill="#F58345" d="M106.57,1.941c-0.007,0.129,0.017,0.269-0.025,0.384c-0.155,0.425-0.029,1.027-0.664,1.166
		c-0.289,0.063-0.603,0.038-0.808-0.208c-0.392-0.473-0.066-0.906,0.119-1.341H106.57z"/>
	<path fill="#F58345" d="M70.967,1.941c-0.006,0.128,0.019,0.269-0.024,0.384c-0.153,0.426-0.029,1.025-0.66,1.164
		c-0.288,0.063-0.603,0.04-0.807-0.206c-0.392-0.471-0.064-0.906,0.113-1.342H70.967z"/>
	<path fill="#C61065" d="M141.483,18.661c3.538,0,7.079,0,10.617,0.002c0.36,0,0.723-0.008,1.08,0.023
		c2.98,0.26,4.428,2.252,3.765,5.171c-0.839,3.696-3.495,5.903-7.267,5.949c-3.439,0.042-6.882-0.014-10.321,0.027
		c-0.842,0.011-0.933-0.28-0.703-0.974c0.308-0.933,0.291-2.171,0.908-2.742c0.634-0.586,1.879-0.152,2.854-0.181
		c0.982-0.028,1.968,0.016,2.949-0.016c1.25-0.041,2.197-0.731,2.474-1.743c0.254-0.937-0.166-1.607-1.132-1.619
		c-2.915-0.034-5.833-0.01-8.749-0.021c-0.438-0.001-0.629,0.198-0.738,0.612c-0.792,3.008-1.597,6.012-2.418,9.012
		c-0.22,0.808,0.292,0.796,0.811,0.797c3.015,0.004,6.03,0.002,9.045,0.004c1.966,0,3.933,0.02,5.899-0.01
		c0.665-0.01,0.896,0.177,0.654,0.843c-0.34,0.951-0.217,2.239-0.938,2.826c-0.692,0.561-1.895,0.169-2.872,0.171
		c-6.457,0.013-12.912,0.006-19.368,0.006c-0.691,0-1.381,0.006-1.965-0.459c-0.788-0.628-0.995-1.481-0.757-2.389
		c1.288-4.91,2.623-9.805,3.915-14.713c0.166-0.628,0.584-0.582,1.049-0.58C134.011,18.663,137.748,18.661,141.483,18.661"/>
	<path fill="#C61065" d="M82.111,18.661c4.228,0,8.457,0.017,12.684-0.014c0.745-0.005,1.016,0.138,0.737,0.915
		c-0.243,0.676-0.434,1.378-0.563,2.084c-0.132,0.73-0.514,0.911-1.218,0.908c-5.409-0.026-10.816-0.015-16.225-0.014
		c-1.137,0.001-1.481,0.418-1.538,1.83c-0.034,0.846,0.408,1.238,1.491,1.242c3.736,0.011,7.473,0,11.209,0.008
		c0.95,0.002,1.904,0.018,2.823,0.308c1.432,0.454,2.21,1.462,2.301,2.966c0.261,4.316-2.745,7.837-7.05,7.909
		c-7.11,0.118-14.224,0.046-21.336,0.065c-0.598,0.001-0.854-0.138-0.627-0.798c0.245-0.711,0.46-1.44,0.58-2.181
		c0.124-0.76,0.526-0.9,1.218-0.896c5.113,0.023,10.227,0.008,15.34,0.017c0.936,0.001,1.76-0.2,2.285-1.059
		c0.339-0.558,0.509-1.161,0.204-1.773c-0.305-0.618-0.903-0.688-1.518-0.686c-3.835,0.003-7.669,0.004-11.504-0.001
		c-3.535-0.004-5.219-2.169-4.356-5.61c0.366-1.461,0.807-2.904,1.151-4.37c0.154-0.659,0.44-0.874,1.13-0.868
		C73.59,18.679,77.85,18.661,82.111,18.661"/>
	<path fill="#C61065" d="M192.691,18.661c1.212,0,2.427,0.034,3.638-0.013c0.694-0.026,0.845,0.189,0.657,0.843
		c-0.469,1.636-0.864,3.294-1.342,4.929c-0.187,0.634-0.022,0.801,0.605,0.795c2.459-0.022,4.917-0.022,7.376,0
		c0.571,0.005,0.799-0.228,0.933-0.76c0.421-1.684,0.914-3.349,1.332-5.033c0.143-0.58,0.401-0.783,1.004-0.775
		c2.459,0.032,4.917,0.033,7.375,0c0.672-0.008,0.846,0.16,0.662,0.827c-1.504,5.53-2.993,11.064-4.46,16.604
		c-0.146,0.552-0.405,0.732-0.953,0.729c-2.49-0.02-4.982-0.027-7.473,0.003c-0.688,0.01-0.757-0.247-0.595-0.823
		c0.563-2.018,1.086-4.047,1.651-6.064c0.175-0.621,0.076-0.863-0.643-0.852c-2.425,0.038-4.852,0.033-7.277,0.001
		c-0.607-0.008-0.856,0.205-1.003,0.783c-0.521,2.064-1.111,4.109-1.63,6.174c-0.146,0.588-0.418,0.787-1.016,0.781
		c-2.457-0.026-4.917-0.032-7.374,0.001c-0.732,0.013-0.802-0.265-0.637-0.872c1.489-5.5,2.974-11,4.432-16.508
		c0.154-0.579,0.39-0.805,1-0.784C190.199,18.692,191.445,18.661,192.691,18.661"/>
	<path fill="#C61065" d="M17.796,18.661c3.539,0,7.078-0.007,10.617,0.002c4.068,0.011,5.657,2.084,4.647,6.042
		c-1.002,3.926-4.099,6.37-8.131,6.389c-3.276,0.015-6.554-0.021-9.83,0.02c-0.813,0.01-0.961-0.245-0.724-0.963
		c0.226-0.683,0.416-1.382,0.557-2.085c0.128-0.639,0.463-0.822,1.093-0.805c1.571,0.041,3.145,0.032,4.718,0.004
		c1.694-0.027,3.012-1.105,3.32-2.661c0.229-1.16-0.332-2.002-1.508-2.025c-2.752-0.056-5.505-0.016-8.257-0.044
		c-0.641-0.007-0.723,0.407-0.846,0.865c-1.092,4.08-2.219,8.149-3.266,12.24c-0.23,0.899-0.598,1.195-1.53,1.165
		c-2.259-0.07-4.521-0.036-6.782-0.004c-0.759,0.012-1.047-0.109-0.807-0.983c1.502-5.46,2.959-10.934,4.409-16.409
		c0.152-0.576,0.42-0.762,1.014-0.759C10.259,18.674,14.028,18.661,17.796,18.661"/>
	<path fill="#C61065" d="M169.171,36.8c-3.41,0-6.818,0.01-10.228-0.002c-2.397-0.009-3.337-1.24-2.72-3.551
		c1.216-4.556,2.455-9.106,3.652-13.667c0.177-0.67,0.438-0.941,1.183-0.938c7.869,0.031,15.736,0.026,23.604,0.007
		c0.703-0.001,0.909,0.129,0.713,0.879c-0.789,3.004-0.767,3.011-3.829,3.011c-4.099,0-8.195,0.02-12.294-0.016
		c-0.837-0.007-1.231,0.274-1.438,1.092c-0.66,2.635-1.39,5.255-2.086,7.881c-0.338,1.272-0.203,1.462,1.089,1.463
		c4.591,0.007,9.179,0.002,13.77,0.005c1.167,0,1.167,0.006,0.876,1.108c-0.72,2.727-0.72,2.727-3.54,2.727
		C175.006,36.8,172.088,36.8,169.171,36.8"/>
	<path fill="#C61065" d="M112.487,18.661c4.59,0,9.178,0.015,13.767-0.013c0.764-0.004,1.091,0.125,0.77,0.957
		c-0.352,0.913-0.211,2.164-0.916,2.738c-0.708,0.58-1.889,0.173-2.862,0.188c-1.998,0.03-3.999,0.041-5.997-0.006
		c-0.733-0.017-1.021,0.251-1.201,0.939c-1.08,4.151-2.227,8.285-3.295,12.44c-0.194,0.751-0.511,0.992-1.269,0.978
		c-2.359-0.044-4.72-0.042-7.08-0.003c-0.836,0.015-1.079-0.157-0.829-1.053c1.136-4.068,2.184-8.162,3.307-12.233
		c0.225-0.814,0.122-1.087-0.791-1.071c-2.786,0.051-5.573-0.01-8.357,0.035c-0.867,0.015-1.004-0.273-0.752-1.019
		c0.229-0.683,0.421-1.382,0.559-2.087c0.125-0.639,0.453-0.807,1.084-0.803C103.245,18.673,107.866,18.661,112.487,18.661"/>
	<path fill="#F58345" d="M91.641,10.167c-0.609-0.025-1.394,0.036-2.178-0.095c-0.912-0.151-1.406-0.656-1.198-1.555
		c0.458-1.976,1-3.933,1.524-5.893c0.169-0.635,0.72-0.492,1.144-0.437c0.623,0.081,0.309,0.553,0.233,0.845
		c-0.395,1.555-0.84,3.098-1.237,4.653C89.646,8.791,89.844,9.052,91,9.041c2.511-0.023,1.951,0.357,2.626-2.009
		c0.396-1.385,0.769-2.777,1.13-4.172c0.125-0.486,0.372-0.714,0.893-0.707c0.58,0.008,0.761,0.227,0.606,0.792
		c-0.597,2.18-1.185,4.362-1.758,6.547c-0.129,0.497-0.407,0.699-0.912,0.679C92.995,10.148,92.405,10.167,91.641,10.167"/>
	<path fill="#F58345" d="M6.744,8.259c1.132-1.766,2.241-3.496,3.353-5.225c0.142-0.219,0.266-0.46,0.447-0.643
		c0.374-0.377,0.938-0.36,1.278-0.154c0.449,0.271-0.055,0.615-0.218,0.868C10.237,5.222,8.824,7.31,7.476,9.438
		c-0.396,0.627-0.872,0.807-1.556,0.708c-0.727-0.105-0.711-0.689-0.773-1.188C4.907,7.044,4.681,5.128,4.491,3.208
		c-0.038-0.374-0.386-0.95,0.424-1.051c0.78-0.098,1.048,0.275,1.106,0.986c0.126,1.532,0.286,3.061,0.434,4.591
		C6.47,7.889,6.439,8.065,6.744,8.259"/>
	<path fill="#F58345" d="M40.638,10.173c-0.685-0.025-1.343,0.053-1.986-0.136c-1.028-0.302-1.468-0.97-1.218-2
		c0.309-1.272,0.667-2.533,1.02-3.795c0.248-0.889,0.848-1.462,1.702-1.769c1.366-0.491,2.786-0.288,4.19-0.296
		c0.204-0.001,0.398,0.074,0.415,0.322c0.019,0.298-0.15,0.493-0.404,0.614c-0.496,0.237-1.029,0.167-1.549,0.169
		c-2.579,0.009-2.58,0.006-3.263,2.504c-0.191,0.694-0.383,1.39-0.552,2.09c-0.18,0.741,0.129,1.145,0.892,1.161
		c0.819,0.018,1.639-0.003,2.457,0.019c0.261,0.007,0.66-0.139,0.699,0.312c0.032,0.376-0.237,0.593-0.577,0.698
		C41.854,10.254,41.225,10.132,40.638,10.173"/>
	<path fill="#F58345" d="M23.353,10.196c-0.522-0.032-1.05-0.027-1.565-0.104c-1.204-0.182-1.592-0.71-1.328-1.907
		c0.247-1.118,0.609-2.209,0.882-3.322c0.17-0.693,0.686-0.636,1.161-0.556c0.693,0.121,0.281,0.629,0.215,0.934
		c-0.186,0.863-0.473,1.704-0.667,2.565c-0.101,0.45-0.332,1.098,0.406,1.177c0.629,0.067,1.49,0.468,1.771-0.624
		c0.287-1.109,0.63-2.204,0.887-3.32c0.169-0.736,0.642-0.894,1.237-0.714c0.655,0.197,0.259,0.708,0.172,1.066
		c-0.288,1.176-0.686,2.329-0.914,3.515c-0.191,0.997-0.658,1.431-1.667,1.268c-0.191-0.031-0.392-0.005-0.589-0.005
		C23.354,10.177,23.354,10.187,23.353,10.196"/>
	<path fill="#F58345" d="M74.216,4.274c2.982,0.003,3.13,0.199,2.339,3.1c-0.198,0.725-0.405,1.448-0.578,2.179
		c-0.143,0.601-0.541,0.688-1.041,0.558c-0.543-0.141-0.46-0.564-0.36-0.953c0.218-0.855,0.483-1.699,0.679-2.559
		c0.104-0.456,0.501-1.046-0.342-1.271c-0.998-0.265-1.658-0.003-1.881,0.778c-0.296,1.037-0.587,2.076-0.842,3.124
		c-0.146,0.601-0.334,1.095-1.094,0.888c-0.756-0.207-0.445-0.751-0.33-1.196c0.301-1.171,0.697-2.323,0.925-3.507
		c0.18-0.938,0.636-1.274,1.544-1.147C73.557,4.312,73.889,4.274,74.216,4.274"/>
	<path fill="#F58345" d="M99.669,4.292c0.458,0,0.917-0.022,1.373,0.004c1.226,0.069,1.63,0.515,1.386,1.688
		c-0.253,1.214-0.63,2.403-0.937,3.606c-0.14,0.55-0.515,0.632-0.979,0.526c-0.544-0.125-0.495-0.552-0.399-0.94
		c0.218-0.889,0.488-1.766,0.702-2.656c0.107-0.451,0.367-0.989-0.381-1.192c-0.936-0.253-1.646-0.008-1.844,0.688
		c-0.314,1.1-0.614,2.206-0.886,3.317c-0.146,0.594-0.402,0.975-1.078,0.788c-0.68-0.188-0.451-0.682-0.337-1.117
		c0.306-1.17,0.679-2.327,0.916-3.511c0.187-0.934,0.605-1.38,1.583-1.225c0.288,0.046,0.587,0.007,0.883,0.007V4.292z"/>
	<path fill="#F58345" d="M140.301,8.279c0.805-1.288,1.439-2.315,2.084-3.336c0.172-0.271,0.305-0.605,0.69-0.64
		c0.291-0.027,0.651-0.136,0.843,0.1c0.19,0.232-0.088,0.482-0.223,0.693c-1.406,2.212-2.821,4.42-4.232,6.63
		c-0.216,0.339-0.431,0.65-0.908,0.633c-0.563-0.021-0.929-0.275-0.485-0.76c1.2-1.307,0.933-2.744,0.573-4.236
		c-0.175-0.731-0.294-1.478-0.398-2.224c-0.043-0.312-0.287-0.771,0.315-0.84c0.5-0.058,0.98-0.089,1.093,0.631
		C139.813,5.958,140.045,6.974,140.301,8.279"/>
	<path fill="#F58345" d="M127.657,4.277c0.39,0,0.687-0.022,0.978,0.007c0.26,0.026,0.663-0.113,0.658,0.354
		c-0.003,0.332-0.255,0.558-0.562,0.592c-0.552,0.061-1.109,0.048-1.665,0.076c-0.443,0.023-0.903,0.107-0.972,0.63
		c-0.07,0.543,0.458,0.542,0.794,0.697c0.059,0.026,0.127,0.033,0.188,0.055c0.73,0.263,1.59,0.384,1.562,1.458
		c-0.023,0.88-0.672,1.565-1.752,1.855c-0.9,0.241-1.818,0.163-2.732,0.157c-0.246-0.002-0.574,0.043-0.596-0.337
		c-0.017-0.289,0.178-0.479,0.423-0.608c0.396-0.21,0.829-0.146,1.251-0.166c0.423-0.019,0.851-0.015,1.268-0.082
		c0.301-0.049,0.541-0.253,0.585-0.585c0.054-0.388-0.236-0.493-0.524-0.59c-0.372-0.125-0.754-0.228-1.114-0.381
		c-1.141-0.485-1.306-1.546-0.362-2.401C125.841,4.318,126.784,4.232,127.657,4.277"/>
	<path fill="#F58345" d="M108.81,8.286c0.788-1.113,1.601-2.209,2.353-3.345c0.434-0.654,0.953-0.804,1.81-0.51
		c-1.367,1.878-2.67,3.705-4.022,5.496c-0.31,0.41-0.847,0.273-1.29,0.157c-0.376-0.099-0.458-0.433-0.476-0.776
		c-0.074-1.405-0.141-2.81-0.216-4.214c-0.027-0.493,0.083-0.815,0.682-0.819c0.577-0.004,0.722,0.295,0.745,0.791
		c0.051,1.04,0.127,2.079,0.192,3.118C108.661,8.217,108.735,8.251,108.81,8.286"/>
	<path fill="#F58345" d="M64.6,10.155c-1.669,0.009-2.048-0.477-1.615-2.097c0.396-1.483,0.837-2.956,1.209-4.445
		c0.154-0.62,0.515-0.76,1.072-0.71c0.345,0.032,0.587,0.122,0.465,0.536c-0.244,0.83,0.291,0.83,0.862,0.846
		c0.259,0.007,0.682-0.139,0.711,0.286c0.027,0.407-0.302,0.604-0.69,0.702c-0.48,0.121-1.182-0.252-1.417,0.363
		c-0.358,0.94-0.602,1.935-0.786,2.927c-0.097,0.522,0.434,0.421,0.769,0.493c0.329,0.07,0.918-0.253,0.917,0.367
		c-0.001,0.545-0.526,0.683-1.006,0.73C64.928,10.168,64.764,10.155,64.6,10.155"/>
	<path fill="#F58345" d="M134.825,10.161c-1.606-0.014-2.002-0.518-1.594-2.074c0.393-1.488,0.835-2.963,1.209-4.455
		c0.153-0.612,0.503-0.763,1.068-0.731c0.659,0.038,0.47,0.433,0.43,0.828c-0.071,0.74,0.527,0.47,0.892,0.545
		c0.264,0.056,0.683-0.11,0.726,0.296c0.041,0.415-0.305,0.599-0.688,0.701c-0.477,0.127-1.18-0.255-1.412,0.374
		c-0.353,0.945-0.584,1.942-0.784,2.933c-0.093,0.468,0.365,0.409,0.681,0.478c0.357,0.078,1.016-0.289,0.996,0.392
		c-0.016,0.58-0.614,0.683-1.129,0.712C135.089,10.167,134.957,10.161,134.825,10.161"/>
	<path fill="#F58345" d="M17.1,9.133c0.394-1.458,0.853-3.161,1.313-4.863c0.128-0.473,0.298-0.939,0.38-1.419
		c0.135-0.792,0.695-0.812,1.254-0.675c0.652,0.161,0.235,0.656,0.157,0.963c-0.543,2.12-1.135,4.228-1.691,6.345
		c-0.13,0.493-0.383,0.735-0.903,0.661C17.16,10.08,17.001,9.814,17.1,9.133"/>
	<path fill="#F58345" d="M47.84,4.274c0.44,0,0.704-0.021,0.962,0.007c0.268,0.028,0.685-0.142,0.745,0.25
		c0.064,0.421-0.314,0.602-0.673,0.712c-0.093,0.029-0.194,0.029-0.291,0.04c-1.84,0.212-1.841,0.212-2.321,1.964
		c-0.208,0.756-0.429,1.508-0.612,2.269c-0.125,0.517-0.429,0.705-0.929,0.619c-0.605-0.105-0.583-0.549-0.473-0.979
		c0.301-1.17,0.589-2.346,0.958-3.496C45.655,4.271,46.833,4.236,47.84,4.274"/>
	<path fill="#F58345" d="M122.789,4.274c0.261,0.001,0.524-0.021,0.783,0.007c0.265,0.029,0.675-0.142,0.732,0.268
		c0.049,0.369-0.281,0.558-0.604,0.672c-0.092,0.032-0.198,0.07-0.287,0.051c-1.805-0.381-2.21,0.791-2.469,2.179
		c-0.124,0.672-0.366,1.321-0.521,1.989c-0.125,0.537-0.405,0.811-0.97,0.691c-0.675-0.142-0.543-0.644-0.431-1.085
		c0.266-1.044,0.543-2.087,0.855-3.118C120.295,4.56,120.813,4.28,122.789,4.274"/>
	<path fill="#F58345" d="M105.828,4.934c-0.145,0.534-0.351,1.292-0.556,2.051c-0.238,0.885-0.473,1.771-0.715,2.655
		c-0.151,0.55-0.566,0.58-1.016,0.471c-0.473-0.112-0.485-0.449-0.377-0.845c0.405-1.484,0.808-2.968,1.196-4.458
		c0.167-0.639,0.656-0.525,1.104-0.517C105.718,4.296,105.916,4.386,105.828,4.934"/>
	<path fill="#F58345" d="M132.313,4.884c-0.428,1.58-0.86,3.158-1.278,4.739c-0.149,0.565-0.545,0.589-0.995,0.496
		c-0.48-0.1-0.509-0.465-0.409-0.841c0.391-1.488,0.8-2.97,1.197-4.456c0.181-0.678,0.719-0.553,1.196-0.524
		C132.425,4.322,132.354,4.621,132.313,4.884"/>
	<path fill="#F58345" d="M69.586,4.288c0.57-0.063,0.793,0.125,0.623,0.727c-0.419,1.48-0.815,2.967-1.194,4.457
		c-0.14,0.553-0.451,0.77-0.996,0.663c-0.611-0.12-0.548-0.535-0.426-0.984c0.379-1.389,0.762-2.777,1.121-4.171
		C68.836,4.5,69.058,4.208,69.586,4.288"/>
	<path fill="#C61065" d="M65.263,21.744c-0.042-1.56-0.787-2.507-2.286-2.907c-0.578-0.154-1.163-0.177-1.753-0.177
		c-3.242,0.002-6.484,0-9.726,0c-3.374,0.001-6.746-0.014-10.119,0.006c-3.068,0.02-5.158,1.604-5.978,4.559
		c-0.795,2.87-1.557,5.748-2.292,8.632c-0.752,2.951,0.742,4.971,3.772,4.989c6.549,0.039,13.1,0.044,19.648-0.015
		c3.343-0.028,5.297-1.603,6.197-4.813c0.786-2.803,1.528-5.619,2.273-8.434C65.16,22.986,65.281,22.376,65.263,21.744
		 M55.814,24.053c-0.613,2.476-1.271,4.944-1.982,7.395c-0.293,1.013-1.104,1.54-2.16,1.548c-2.686,0.022-5.371,0.027-8.057-0.003
		c-1.1-0.011-1.595-0.617-1.331-1.67c0.606-2.411,1.254-4.813,1.941-7.202c0.291-1.016,1.051-1.562,2.127-1.573
		c1.408-0.015,2.817-0.003,4.225-0.002c1.343,0.002,2.686-0.022,4.028,0.009C55.69,22.579,56.073,23.006,55.814,24.053"/>
	<path fill="#F58345" d="M83.432,4.275c-0.916,0.022-1.836-0.031-2.745,0.047c-1.074,0.094-1.96,0.565-2.326,1.666
		c-0.257,0.774-0.482,1.563-0.651,2.361c-0.189,0.893,0.175,1.45,1.084,1.665c0.502,0.119,1.035,0.106,1.553,0.163
		c0.244,0.027,0.575-0.04,0.581,0.352c0.004,0.284-0.163,0.526-0.425,0.602c-0.309,0.087-0.642,0.092-0.966,0.121
		c-0.551,0.05-1.109,0.066-1.656,0.144c-0.318,0.044-0.542,0.288-0.539,0.611c0.005,0.463,0.405,0.327,0.666,0.347
		c0.357,0.027,0.719,0.006,1.079,0.006c0-0.011,0-0.022,0-0.034c0.457,0,0.921,0.049,1.37-0.01c0.943-0.125,1.677-0.586,1.947-1.551
		c0.539-1.919,1.039-3.849,1.573-5.77C84.122,4.475,83.97,4.262,83.432,4.275 M82.222,5.919C82,6.769,81.764,7.614,81.551,8.464
		c-0.166,0.663-0.682,0.582-1.167,0.582c-1.108-0.01-1.282-0.223-1.024-1.275c0.107-0.442,0.218-0.884,0.357-1.317
		C80.028,5.481,81,5.012,81.969,5.313C82.344,5.43,82.289,5.661,82.222,5.919"/>
	<path fill="#F58345" d="M114.723,7.783c0.75-0.009,1.506,0.011,2.252-0.057c1.023-0.094,1.541-0.782,1.582-1.998
		c0.033-0.944-0.574-1.318-1.366-1.519c-2.146-0.542-3.744,0.462-4.38,2.747c-0.747,2.682-0.347,3.21,2.504,3.212
		c0.452-0.029,0.98,0.071,1.489-0.109c0.303-0.108,0.524-0.321,0.512-0.645c-0.02-0.443-0.402-0.348-0.674-0.358
		c-0.652-0.023-1.306-0.006-1.959-0.027c-0.406-0.013-0.695-0.195-0.686-0.654C114.008,7.904,114.313,7.788,114.723,7.783
		 M114.561,6.246c0.035-0.785,0.726-1.012,1.437-1.008c0.467,0.002,0.985,0.032,0.984,0.674c-0.002,1.027-0.825,0.659-1.396,0.785
		C115.264,6.491,114.527,6.983,114.561,6.246"/>
	<path fill="#F58345" d="M29.35,7.784c0.751-0.009,1.506,0.011,2.252-0.057c1.026-0.093,1.542-0.774,1.588-1.992
		c0.036-0.944-0.569-1.321-1.361-1.524c-2.142-0.546-3.75,0.461-4.385,2.74c-0.748,2.686-0.347,3.217,2.546,3.219
		c0.402-0.039,0.931,0.073,1.439-0.107c0.304-0.107,0.527-0.317,0.519-0.641c-0.011-0.445-0.395-0.355-0.666-0.365
		c-0.653-0.022-1.307-0.006-1.96-0.027c-0.404-0.012-0.699-0.187-0.691-0.648C28.638,7.912,28.939,7.788,29.35,7.784 M29.192,6.252
		c0.03-0.782,0.718-1.017,1.432-1.014c0.511,0.001,1.046,0.061,0.989,0.766c-0.077,0.944-0.853,0.552-1.381,0.7
		C29.901,6.489,29.165,6.986,29.192,6.252"/>
	<path fill="#F58345" d="M54.473,4.326c-1.994-0.793-4.086,0.211-4.669,2.25c-0.099,0.345-0.187,0.695-0.276,1.042
		c-0.468,1.806,0.046,2.486,1.93,2.546c0.229,0.008,0.458,0.001,0.687,0.001c0.001,0.011,0.001,0.021,0.002,0.033
		c0.488-0.037,0.98-0.042,1.462-0.119c0.344-0.054,0.622-0.281,0.589-0.668c-0.036-0.426-0.414-0.346-0.688-0.355
		c-0.622-0.021-1.244-0.006-1.865-0.024c-0.392-0.011-0.717-0.139-0.734-0.609c-0.021-0.547,0.349-0.627,0.779-0.642
		c0.817-0.028,1.639-0.012,2.448-0.108c1.058-0.127,1.162-1.019,1.29-1.831C55.543,5.083,55.167,4.602,54.473,4.326 M52.51,6.683
		c-0.317-0.177-1.026,0.289-1.049-0.383c-0.025-0.793,0.657-1.049,1.369-1.061c0.497-0.008,1.051,0.01,1.034,0.714
		C53.841,6.895,53.089,6.6,52.51,6.683"/>
	<path fill="#F58345" d="M15.421,4.35c-0.943-0.089-1.898-0.054-2.848-0.056c-0.342-0.001-0.571,0.18-0.55,0.544
		c0.019,0.33,0.282,0.424,0.558,0.437c0.49,0.023,0.982,0.012,1.473,0.03c0.357,0.014,0.814-0.015,0.821,0.479
		c0.008,0.577-0.479,0.391-0.812,0.394c-0.327,0.002-0.657-0.046-0.98-0.018c-1.596,0.14-2.259,0.758-2.601,2.322
		c-0.183,0.843,0.15,1.319,0.946,1.541c0.643,0.18,1.299,0.14,1.954,0.139c0.426,0,0.852-0.005,1.278,0.001
		c0.405,0.006,0.698-0.131,0.809-0.554c0.332-1.268,0.699-2.527,0.993-3.803C16.653,4.984,16.243,4.428,15.421,4.35 M14.431,7.83
		c-0.083,0.755-0.315,1.447-1.356,1.207c-0.408-0.073-1.048,0.191-1.05-0.605c-0.001-0.782,0.506-1.202,1.455-1.161
		C13.865,7.287,14.517,7.053,14.431,7.83"/>
	<path fill="#F58345" d="M60.849,4.349c-0.943-0.087-1.897-0.05-2.848-0.055c-0.293-0.001-0.514,0.145-0.54,0.458
		c-0.032,0.394,0.25,0.506,0.566,0.523c0.458,0.024,0.917,0.006,1.376,0.029c0.377,0.019,0.912-0.066,0.903,0.49
		c-0.01,0.638-0.564,0.353-0.912,0.371c-0.293,0.015-0.591-0.032-0.883-0.005c-1.594,0.146-2.258,0.765-2.593,2.332
		c-0.181,0.846,0.162,1.315,0.956,1.534c0.644,0.178,1.3,0.136,1.955,0.136c0.426,0,0.853-0.004,1.279,0.002
		c0.408,0.006,0.692-0.142,0.802-0.563c0.331-1.268,0.699-2.527,0.991-3.803C62.091,4.971,61.669,4.424,60.849,4.349 M58.502,9.049
		c-0.353-0.088-0.988,0.192-1.04-0.575c-0.053-0.763,0.491-1.238,1.413-1.203c0.384,0.015,0.997-0.236,1.008,0.517
		C59.897,8.668,59.485,9.049,58.502,9.049"/>
	<path fill="#F58345" d="M71.137,2.53c0,0.556-0.451,1.006-1.006,1.006c-0.555,0-1.005-0.451-1.005-1.006s0.45-1.006,1.005-1.006
		C70.686,1.524,71.137,1.974,71.137,2.53"/>
	<path fill="#F58345" d="M106.736,2.53c0,0.556-0.451,1.006-1.006,1.006c-0.556,0-1.006-0.451-1.006-1.006s0.45-1.006,1.006-1.006
		C106.286,1.524,106.736,1.974,106.736,2.53"/>
	<path fill="#F58345" d="M133.203,2.53c0,0.556-0.448,1.006-1.006,1.006c-0.556,0-1.005-0.451-1.005-1.006s0.449-1.006,1.005-1.006
		C132.755,1.524,133.203,1.974,133.203,2.53"/>
</g>
<g id="레이어_2">
	<g>
		<g>
			<path fill="#666666" d="M14.053,54.282l-0.343,1.559l-12.98,0.005l0.343-1.559l5.433-0.002l0.532-2.413l-4.343,0.001l0.34-1.544
				h1.867l0.846-3.838H3.802l0.34-1.545l10.896-0.003l-0.34,1.545h-1.946l-0.846,3.838h1.899l-0.34,1.544L9.09,51.871l-0.532,2.413
				L14.053,54.282z M6.94,50.328l2.927-0.001l0.846-3.838L7.787,46.49L6.94,50.328z"/>
			<path fill="#666666" d="M28.35,54.145l-0.347,1.574l-12.98,0.005l0.347-1.574L28.35,54.145z M27.539,51.821
				c-2.387-0.469-3.934-1.778-4.473-3.498c-1.298,1.721-3.41,3.046-6.001,3.501l-0.516-1.616c3.338-0.53,5.602-2.679,6.03-4.62
				l0.214-0.971l2.194-0.001l-0.214,0.971c-0.438,1.985,0.873,4.089,3.994,4.616L27.539,51.821z"/>
			<path fill="#666666" d="M32.295,52.82c1.497-0.015,2.63-0.074,3.964-0.267l-0.169,1.545c-1.673,0.25-3.05,0.28-5.104,0.28
				l-0.98,0.001l2-9.075l5.307-0.002l-0.34,1.545l-3.361,0.001l-0.463,2.104l2.816-0.001l-0.331,1.5l-2.816,0.001L32.295,52.82z
				 M39.251,44.067h1.914L38.367,56.76h-1.914l1.42-6.442l-1.557,0.001l0.347-1.573l1.557-0.001L39.251,44.067z M44.227,43.801
				l-2.985,13.546h-1.945l2.985-13.546H44.227z"/>
			<path fill="#666666" d="M53.661,45.106c-0.92,4.177-2.9,7.722-8.831,10.268l-0.751-1.529c2.578-1.103,4.332-2.354,5.502-3.854
				l-4.346,0.369l0.095-1.632l5.245-0.281c0.263-0.559,0.502-1.147,0.706-1.795l-4.763,0.002l0.34-1.544L53.661,45.106z
				 M58.121,43.796l-2.985,13.546h-2.069l2.985-13.546H58.121z"/>
			<path fill="#666666" d="M62.739,51.56c-2.194,0-3.57-1.455-3.132-3.44c0.44-2,2.454-3.441,4.648-3.441
				c2.179-0.001,3.559,1.438,3.118,3.438C66.936,50.102,64.918,51.559,62.739,51.56z M61.948,55.574l7.704-0.002l-0.341,1.545
				l-9.759,0.003l0.986-4.472l2.055-0.001L61.948,55.574z M63.108,49.884c1.059-0.001,2.03-0.663,2.273-1.767
				c0.243-1.103-0.437-1.765-1.495-1.764c-1.073,0-2.029,0.662-2.271,1.765C61.372,49.222,62.035,49.884,63.108,49.884z
				 M72.774,47.688l-0.35,1.588l-1.898,0.001L69.56,53.66l-2.055,0.001l2.171-9.854l2.055-0.001l-0.855,3.883L72.774,47.688z"/>
			<path fill="#666666" d="M86.235,51.125c-3.114,0.501-6.436,0.532-8.911,0.532l0.09-1.324c1.027,0,2.179,0,3.415-0.03l0.136-0.618
				c-1.501-0.175-2.3-0.792-2.095-1.719c0.243-1.104,1.759-1.766,3.891-1.767c2.133-0.001,3.341,0.661,3.098,1.765
				c-0.205,0.927-1.274,1.544-2.838,1.721l-0.12,0.545c1.165-0.061,2.336-0.147,3.451-0.267L86.235,51.125z M80.126,55.966
				l8.078-0.003l-0.282,1.279l-10.117,0.004l0.687-3.118l7.596-0.003l0.13-0.588l-7.611,0.003l0.282-1.28l9.635-0.004l-0.674,3.06
				l-7.58,0.003L80.126,55.966z M86.882,45.935l-8.14,0.002l0.282-1.28l3.05-0.001l0.21-0.956h2.055l-0.21,0.956l3.035-0.001
				L86.882,45.935z M82.239,48.567c0.98,0,1.586-0.206,1.674-0.604c0.084-0.383-0.435-0.572-1.415-0.572s-1.599,0.19-1.683,0.573
				C80.728,48.362,81.259,48.567,82.239,48.567z M91.488,46.991l-0.35,1.588h-1.805l-0.704,3.191l-2.055,0.001l1.757-7.971
				l2.055-0.001l-0.703,3.191H91.488z"/>
			<path fill="#666666" d="M104.869,50.162l-0.34,1.545l-12.965,0.004l0.34-1.545l5.447-0.001l0.246-1.117l-3.875,0.001l1.031-4.677
				l9.836-0.004l-0.341,1.544l-7.797,0.003l-0.35,1.589l7.875-0.003l-0.341,1.544l-3.984,0.002l-0.246,1.117L104.869,50.162z
				 M102.275,54.869c-0.351,1.589-2.431,2.487-5.528,2.488c-3.097,0.001-4.768-0.896-4.417-2.484
				c0.353-1.604,2.419-2.501,5.516-2.502C100.943,52.37,102.628,53.266,102.275,54.869z M100.19,54.87
				c0.155-0.706-0.754-1.028-2.669-1.028c-1.914,0.001-2.966,0.324-3.121,1.03c-0.156,0.706,0.756,1.016,2.67,1.015
				C98.986,55.887,100.035,55.576,100.19,54.87z"/>
			<path fill="#666666" d="M123.279,50.773l-0.334,1.516l-12.965,0.005l0.334-1.516l5.447-0.002l0.186-0.838l-3.828,0.001
				l1.277-5.795l9.867-0.003l-0.324,1.471l-7.828,0.003l-0.156,0.706l7.502-0.003l-0.311,1.412l-7.502,0.003l-0.162,0.735
				l7.938-0.003l-0.324,1.471l-4.094,0.001l-0.186,0.838L123.279,50.773z M120.798,55.114c-0.317,1.44-2.31,2.221-5.47,2.222
				c-3.144,0.001-4.793-0.778-4.476-2.219c0.321-1.457,2.312-2.222,5.454-2.223C119.467,52.894,121.119,53.657,120.798,55.114z
				 M118.729,55.115c0.123-0.56-0.744-0.795-2.736-0.794c-1.977,0-2.946,0.236-3.069,0.796c-0.123,0.559,0.74,0.808,2.717,0.808
				C117.632,55.924,118.605,55.674,118.729,55.115z"/>
			<path fill="#666666" d="M133.522,52.227l2.039-0.001l-1.093,4.957l-9.323,0.003l1.093-4.957h2.039l-0.227,1.029l5.245-0.002
				L133.522,52.227z M133.977,46.49l-8.451,0.003l0.334-1.514l3.191-0.001l0.285-1.295l2.069-0.001l-0.285,1.295l3.206-0.001
				L133.977,46.49z M128.621,51.655c-2.068,0-3.303-0.97-2.988-2.396c0.318-1.441,1.976-2.398,4.045-2.398
				c2.07-0.001,3.308,0.954,2.989,2.396C132.353,50.683,130.691,51.654,128.621,51.655z M132.971,54.728l-5.244,0.002l-0.208,0.941
				l5.245-0.002L132.971,54.728z M128.933,50.243c0.919-0.001,1.631-0.339,1.773-0.986c0.144-0.647-0.42-0.985-1.339-0.984
				c-0.918,0-1.631,0.338-1.773,0.985S128.015,50.243,128.933,50.243z M138.254,48.622l-1.898,0.001l-0.681,3.088l-2.055,0.001
				l1.747-7.927l2.055-0.001l-0.716,3.25l1.898-0.001L138.254,48.622z"/>
			<path fill="#666666" d="M151.741,51.515c-3.07,0.515-6.413,0.576-8.877,0.592l0.154-1.545c0.794-0.001,1.681-0.001,2.618-0.015
				l0.58-2.634l2.008-0.001l-0.563,2.56c1.429-0.06,2.883-0.163,4.261-0.339L151.741,51.515z M146.061,55.546l7.953-0.003
				l-0.341,1.545l-10.008,0.004l0.898-4.074l2.055-0.001L146.061,55.546z M149.134,49.369c0.512-1.266,0.791-2.251,0.984-3.061
				l-5.338,0.002l0.341-1.544l7.361-0.002l-0.185,0.838c-0.208,0.941-0.503,2.279-1.205,3.985L149.134,49.369z M156.959,47.896
				l-0.354,1.603l-1.712,0.001l-0.973,4.412h-2.054l2.237-10.148h2.054l-0.911,4.134L156.959,47.896z"/>
			<path fill="#666666" d="M159.902,52.601c2.182-0.017,4.01-0.12,6.104-0.444l-0.129,1.573c-2.419,0.384-4.539,0.474-7.139,0.475
				h-1.292l1.229-5.574l4.654-0.001l0.477-2.162l-4.67,0.001l0.34-1.544l6.771-0.002l-1.153,5.235l-4.653,0.002L159.902,52.601z
				 M170.908,43.757l-2.996,13.59l-2.053,0.001l2.995-13.59L170.908,43.757z"/>
			<path fill="#666666" d="M178.143,46.785c-0.555,2.515,0.037,4.984,2.248,5.97l-1.515,1.574c-1.494-0.706-2.305-2.043-2.575-3.705
				c-1.037,1.809-2.525,3.266-4.406,4.03l-0.876-1.602c2.729-1.016,4.489-3.635,5.069-6.268l0.434-1.971h2.055L178.143,46.785z
				 M185.13,43.752l-2.995,13.59l-2.055,0.001l2.995-13.59L185.13,43.752z"/>
			<path fill="#666666" d="M198.223,54.087l-0.347,1.574l-12.98,0.005l0.347-1.574L198.223,54.087z M197.412,51.763
				c-2.387-0.469-3.935-1.777-4.473-3.498c-1.299,1.722-3.411,3.046-6.002,3.502l-0.515-1.617c3.338-0.53,5.602-2.678,6.029-4.619
				l0.214-0.971l2.194-0.001l-0.214,0.971c-0.438,1.985,0.873,4.088,3.994,4.616L197.412,51.763z"/>
			<path fill="#666666" d="M206.814,51.024c-1.681,0.281-3.04,0.311-5.157,0.312h-0.98l1.491-6.766l5.385-0.001l-0.338,1.529
				l-3.408,0.001l-0.236,1.074l2.91-0.001l-0.324,1.471l-2.91,0.001l-0.256,1.161c1.513-0.015,2.65-0.088,3.99-0.311L206.814,51.024
				z M202.392,52.38l9.712-0.004l-1.051,4.766l-9.711,0.004L202.392,52.38z M203.699,55.629l5.68-0.002l0.383-1.735l-5.681,0.002
				L203.699,55.629z M208.181,48.569h-1.4l0.344-1.56h1.4l0.671-3.044l1.915-0.001l-1.715,7.78l-1.915,0.001L208.181,48.569z
				 M214,43.772l-1.779,8.074l-1.945,0.001l1.779-8.074L214,43.772z"/>
		</g>
	</g>
</g>
</svg>
