<?xml version="1.0" encoding="utf-8"?>
<!-- Generator: Adobe Illustrator 24.0.0, SVG Export Plug-In . SVG Version: 6.00 Build 0)  -->
<svg version="1.1" id="Layer_1" xmlns="http://www.w3.org/2000/svg" xmlns:xlink="http://www.w3.org/1999/xlink" x="0px" y="0px"
	 viewBox="0 0 166.1 49.7" style="enable-background:new 0 0 166.1 49.7;" xml:space="preserve">
<style type="text/css">
	.st0{fill:url(#SVGID_1_);}
	.st1{fill:url(#SVGID_2_);}
	.st2{fill:#2E3132;}
</style>
<g>
	<g>
		<g>
			<g>
				<g>
					<g>
						<g>
							<linearGradient id="SVGID_1_" gradientUnits="userSpaceOnUse" x1="31.3804" y1="0.7714" x2="31.3804" y2="32.2198">
								<stop  offset="0" style="stop-color:#5AC1DA"/>
								<stop  offset="7.736003e-02" style="stop-color:#53B3D3"/>
								<stop  offset="0.5223" style="stop-color:#2F69AF"/>
								<stop  offset="0.8409" style="stop-color:#183B98"/>
								<stop  offset="1" style="stop-color:#0F298F"/>
							</linearGradient>
							<path class="st0" d="M30.2,22.3c-2.2,0.1-4.6,0.8-4.6,2.4c-0.1,2.1,2.8,3,5.8,4.5c1.7,0.9,4.2,2.1,5.8,3.8
								c-0.5-3.4-0.8-6.7-1-9.8C35.1,22.8,32.5,22.2,30.2,22.3z"/>
							<linearGradient id="SVGID_2_" gradientUnits="userSpaceOnUse" x1="20.6909" y1="0.8056" x2="20.6909" y2="32.2225">
								<stop  offset="0" style="stop-color:#5AC1DA"/>
								<stop  offset="7.736003e-02" style="stop-color:#53B3D3"/>
								<stop  offset="0.5223" style="stop-color:#2F69AF"/>
								<stop  offset="0.8409" style="stop-color:#183B98"/>
								<stop  offset="1" style="stop-color:#0F298F"/>
							</linearGradient>
							<path class="st1" d="M38.3,38.8c-1.5,3.6-6.3,5.8-11.4,6.1c-4.5,0.2-7.3-1.2-8.5-1.8l1.2-3.9c1.1,0.4,3.3,1.9,7.5,1.7
								c2.5-0.1,4.8-1.2,4.8-3c0.1-2.1-2.7-3.1-6-4.7c-2.9-1.4-7-3.1-6.9-7.6c0.1-4,4.7-7.1,9.8-7.3c3.5-0.2,5.7,0.2,7.2,0.7
								C35.9,7.7,37.6,0,37.6,0H21.3H3.8C3.8,0,9,25.6,0,49.7h21.3h20.1C40.1,46,39,42.4,38.3,38.8z"/>
						</g>
					</g>
				</g>
			</g>
		</g>
		<g>
			<g>
				<path class="st2" d="M58.7,36.8c-0.3-0.1-1.3-0.5-2.2-0.5c-0.6,0-1.1,0.3-1.1,0.8c0,1.6,3.9,1.6,3.9,4.1c0,1.7-1.3,2.4-3,2.4
					c-1,0-1.9-0.3-2.1-0.4v-1.4c0.6,0.4,1.5,0.9,2.4,0.9c0.5,0,1.2-0.2,1.2-1c0-1.8-3.7-1.8-3.7-4.3c0-1.3,1-2,2.7-2
					c0.8,0,1.7,0.2,2,0.2V36.8z"/>
				<path class="st2" d="M60.5,35.5h4.6v0.9H62v2.4h3v0.9h-3v2.7h3.2v1h-4.7V35.5z"/>
				<path class="st2" d="M66.2,39.4c0-2.4,1-4.1,3.3-4.1c2.3,0,3.3,1.7,3.3,4.1c0,2.4-1,4.1-3.3,4.1C67.2,43.5,66.2,41.9,66.2,39.4z
					 M69.5,42.8c1.2,0,1.7-1.3,1.7-3.3c0-2-0.5-3.3-1.7-3.3c-1.2,0-1.7,1.3-1.7,3.3C67.8,41.4,68.3,42.8,69.5,42.8z"/>
				<path class="st2" d="M73.5,35.5h1.4l1.1,6h0l2.1-6H79l2.1,6h0l1.2-6h1.2l-1.6,8h-1.3l-2.1-5.7h0l-2,5.7h-1.3L73.5,35.5z"/>
				<path class="st2" d="M84.2,39.4c0-2.4,1-4.1,3.3-4.1c2.3,0,3.3,1.7,3.3,4.1c0,2.4-1,4.1-3.3,4.1C85.2,43.5,84.2,41.9,84.2,39.4z
					 M87.5,42.8c1.2,0,1.7-1.3,1.7-3.3c0-2-0.5-3.3-1.7-3.3c-1.2,0-1.7,1.3-1.7,3.3C85.8,41.4,86.3,42.8,87.5,42.8z"/>
				<path class="st2" d="M92.1,35.5h1.6l3.1,5.9h0v-5.9H98v8h-1.5l-3.2-6.2h0v6.2h-1.2V35.5z"/>
				<path class="st2" d="M109.6,40.7c0,1.4-0.3,2.8-2.9,2.8c-2.5,0-2.8-1.4-2.8-2.8v-5.2h1.5v5.2c0,1.2,0.2,2.1,1.3,2.1
					c1.2,0,1.4-0.8,1.4-2.1v-5.2h1.5V40.7z"/>
				<path class="st2" d="M111.5,35.5h1.6l3.1,5.9h0v-5.9h1.2v8h-1.5l-3.2-6.2h0v6.2h-1.2V35.5z"/>
				<path class="st2" d="M119.4,35.5h1.5v8h-1.5V35.5z"/>
				<path class="st2" d="M122.1,35.5h1.6l2,6.1h0l2.1-6.1h1.3l-2.7,8h-1.5L122.1,35.5z"/>
				<path class="st2" d="M130.3,35.5h4.6v0.9h-3.1v2.4h3v0.9h-3v2.7h3.2v1h-4.7V35.5z"/>
				<path class="st2" d="M136.7,35.5h1.8c1.8,0,3.3,0.3,3.3,2.1c0,1.2-0.9,1.7-1.6,1.8v0c1.2,0.2,1.3,1,1.5,1.9l0.4,2.1h-1.5
					l-0.3-1.5c-0.3-1.5-0.5-2-1.7-2h-0.5v3.5h-1.5V35.5z M138.2,39.1h0.3c1.1,0,1.8-0.3,1.8-1.4c0-1.3-0.9-1.3-1.8-1.3h-0.3V39.1z"
					/>
				<path class="st2" d="M147.8,36.8c-0.3-0.1-1.3-0.5-2.2-0.5c-0.6,0-1.1,0.3-1.1,0.8c0,1.6,3.9,1.6,3.9,4.1c0,1.7-1.3,2.4-3,2.4
					c-1,0-1.9-0.3-2.1-0.4v-1.4c0.6,0.4,1.5,0.9,2.4,0.9c0.5,0,1.2-0.2,1.2-1c0-1.8-3.7-1.8-3.7-4.3c0-1.3,1-2,2.7-2
					c0.8,0,1.7,0.2,2,0.2V36.8z"/>
				<path class="st2" d="M149.9,35.5h1.5v8h-1.5V35.5z"/>
				<path class="st2" d="M154.7,36.4h-1.9v-0.9h5.3v0.9h-1.9v7h-1.5V36.4z"/>
				<path class="st2" d="M161,39.7l-2.5-4.2h1.7l1.7,2.9l1.7-2.9h1.4l-2.6,4.2v3.7H161V39.7z"/>
			</g>
		</g>
	</g>
	<g>
		<path class="st2" d="M164.4,25c0-0.1,0-14.9,0-15c0-0.1,0-0.9-0.5-1.4c-0.4-0.4-1-0.6-1.8-0.6h-14.8v2h13c0.3,0,0.6,0.1,0.8,0.3
			c0.2,0.2,0.2,0.5,0.2,0.6c0,0,0,0.1,0,0.1s0,13.7,0,14.1c-0.1,0-2.6,0-2.7,0c0-0.1,0-9.5,0-9.5h-3.2c0,0,0,9.5,0,9.5
			c-0.1,0-2.4,0-2.5,0c0-0.1,0-9.5,0-9.5h-3.2c0,0,0,9.5,0,9.5c-0.1,0-3.9,0-3.9,0v2h20.2v-2C166.1,25,164.5,25,164.4,25z"/>
		<path class="st2" d="M68.5,7.6c0,0,0,5.7,0,5.8c-0.1,0-4.8,0-4.8,0v2.1c0,0,4.7,0,4.8,0c0,0.1,0,13.5,0,13.5h3.2V7.6h0H68.5z"/>
		<path class="st2" d="M60.5,12.7V7.6h0h-3.2v5.1c0,6.2-4.8,8.1-5.8,8.5l0,0l1,1.7l0,0c1.4-0.4,4.3-1.9,6.3-5c0,0,0.1-0.1,0.1-0.2
			c0,0.1,0.1,0.2,0.1,0.2c2,3.2,5,4.6,6.5,5l0,0l0,0c0.1-0.2,0.4-0.8,0.9-1.6l0,0l0,0C65.4,20.9,60.5,18.9,60.5,12.7z"/>
		<path class="st2" d="M91.8,7.6c0,0,0,12,0,12.1c-0.1,0-4.5,0-4.5,0v2c0,0,4.4,0,4.5,0c0,0.1,0,2.6,0,2.6h3.2V7.6h0H91.8z"/>
		<path class="st2" d="M81.5,21.7h3.2c0,0,0-3.8,0-3.9c0.1,0,5.4,0,5.4,0V16c0,0-4.1,0-4.3,0c1.7-0.8,2.9-2.5,2.9-4.3
			c0-2.6-2.6-4.8-5.6-4.8c-3,0-5.7,2.3-5.7,4.8c0,1.8,1.1,3.4,2.9,4.3c-0.2,0-4.3,0-4.3,0v1.8c0,0,5.5,0,5.6,0
			C81.5,17.9,81.5,21.7,81.5,21.7z M80.4,11.8c0-1.4,0.8-2.9,2.6-2.9c1.5,0,2.6,1.2,2.6,2.9c0,1.7-1.1,2.9-2.6,2.9
			C81.5,14.7,80.4,13.5,80.4,11.8z"/>
		<path class="st2" d="M82.7,26.7c-0.1-0.2-0.2-0.4-0.2-0.5l0-0.1l0-3.2h0h-3.1v4.1c0,0.2,0,0.9,0.5,1.4c0.4,0.4,1,0.6,1.8,0.6h13.2
			v-2H83.5C83.1,27,82.8,26.9,82.7,26.7z"/>
		<path class="st2" d="M141.2,7.6L141.2,7.6H138v12.3h3.2c0,0,0-4.4,0-4.4c0.1,0,2.9,0,2.9,0v-2c0,0-2.8,0-2.9,0
			C141.2,13.4,141.2,7.6,141.2,7.6z"/>
		<path class="st2" d="M135,14.8c0-1.8-1.2-3.6-3.2-4.4c0.2,0,3.4,0,3.4,0V8.6c0,0-4.6,0-4.7,0c0-0.1,0-2.4,0-2.4h0h-3
			c0,0,0,2.3,0,2.4c-0.1,0-4.7,0-4.7,0v1.9c0,0,3.2,0,3.4,0c-1.9,0.8-3.2,2.6-3.2,4.4c0,2.7,2.7,5,5.9,5
			C132.3,19.8,135,17.5,135,14.8z M126.2,14.8c0-1.7,1.3-3.1,2.8-3.1c1.6,0,2.9,1.4,2.9,3.1c0,1.7-1.3,3-2.9,3
			C127.5,17.9,126.2,16.5,126.2,14.8z"/>
		<path class="st2" d="M138.8,21.5h-13.9v2H137c0.4,0,0.6,0.1,0.8,0.3c0.2,0.2,0.2,0.5,0.2,0.6l0,0.1V29h3.2v-5.4
			c0-0.2,0-0.9-0.5-1.4C140.2,21.7,139.6,21.5,138.8,21.5z"/>
		<path class="st2" d="M115.1,7.6c0,0,0,5.9,0,6c-0.1,0-1.9,0-2,0c0-0.1,0-6,0-6H110v12.9h-5.7h-0.2c-0.4,0-0.6-0.1-0.8-0.3
			c-0.2-0.2-0.2-0.5-0.2-0.6v-0.1c0,0,0-9.6,0-9.6c0.1,0,4.9,0,4.9,0V8h-8.1v11.1v1.4c0,0.2,0,0.9,0.5,1.4c0.4,0.4,1,0.6,1.8,0.6
			h7.7c0,0.4,0,6.5,0,6.5h3.2c0,0,0-13.1,0-13.2c0.1,0,1.9,0,2,0c0,0.1,0,13.2,0,13.2h3.2V7.6h0H115.1z"/>
	</g>
</g>
</svg>
