<?xml version="1.0" encoding="utf-8"?>
<!-- Generator: Adobe Illustrator 23.0.3, SVG Export Plug-In . SVG Version: 6.00 Build 0)  -->
<svg version="1.1" id="레이어_1" xmlns="http://www.w3.org/2000/svg" xmlns:xlink="http://www.w3.org/1999/xlink" x="0px"
	 y="0px" viewBox="0 0 446.1 59.4" style="enable-background:new 0 0 446.1 59.4;" xml:space="preserve">
<style type="text/css">
	.st0{fill:#164A82;}
	.st1{fill:#008DCB;}
	.st2{fill:#00AEE6;}
	.st3{fill:#0065A5;}
	.st4{fill:url(#SVGID_1_);}
	.st5{fill:url(#SVGID_2_);}
</style>
<g>
	<path class="st0" d="M6.9,44.1c-1.4-0.6-2.5-1.4-3.6-2.4c-1-1-1.8-2.2-2.4-3.6C0.3,36.8,0,35.3,0,33.8c0-1.6,0.3-3,0.9-4.4
		c0.6-1.4,1.4-2.5,2.4-3.6c1-1,2.2-1.8,3.6-2.4c1.4-0.6,2.8-0.9,4.4-0.9h51.4c1.1,0,2.1,0.4,2.9,1.2c0.8,0.8,1.2,1.7,1.2,2.9
		c0,1.1-0.4,2.1-1.2,2.9c-0.8,0.8-1.7,1.2-2.9,1.2H11.1c-0.8,0-1.6,0.3-2.2,0.9c-0.6,0.6-1,1.3-1,2.2c0,0.8,0.3,1.6,1,2.2
		c0.6,0.6,1.4,0.9,2.2,0.9h46.8c1.6,0,3.1,0.3,4.4,0.9c1.4,0.6,2.6,1.4,3.6,2.4c1,1,1.8,2.2,2.4,3.6c0.6,1.4,0.9,2.9,0.9,4.4
		c0,1.6-0.3,3-0.9,4.4c-0.6,1.4-1.4,2.5-2.4,3.6c-1,1-2.2,1.8-3.6,2.4c-1.4,0.6-2.9,0.8-4.4,0.8H6.6c-1.1,0-2.1-0.4-2.9-1.2
		c-0.8-0.8-1.2-1.7-1.2-2.9c0-1.1,0.4-2.1,1.2-2.9c0.8-0.8,1.7-1.2,2.9-1.2h51.6c0.8,0,1.6-0.3,2.2-0.9c0.6-0.6,0.9-1.3,0.9-2.2
		c0-0.9-0.3-1.7-0.9-2.3c-0.6-0.6-1.4-0.9-2.2-0.9h-47C9.7,45,8.2,44.7,6.9,44.1z"/>
	<path class="st1" d="M216.5,58.2c-0.8,0.8-1.7,1.2-2.9,1.2c-1.1,0-2.1-0.4-2.9-1.2c-0.8-0.8-1.2-1.7-1.2-2.9V26.6
		c0-1.1,0.4-2.1,1.2-2.9c0.8-0.8,1.7-1.2,2.9-1.2c0.6,0,1.1,0.1,1.5,0.3c0.5,0.2,0.9,0.5,1.4,0.8c3.6,3.2,6.7,5.6,9.3,7.4
		c2.6,1.8,5,3.2,7.2,4.1c2.2,0.9,4.2,1.5,6.1,1.7c1.9,0.2,4,0.3,6.2,0.3c2.2,0,4.2-0.1,6.1-0.3c1.9-0.2,3.9-0.7,6-1.7
		c2.1-0.9,4.5-2.3,7.1-4.1c2.6-1.8,5.8-4.3,9.4-7.5c1-0.8,1.9-1.2,2.9-1.2c1.1,0,2.1,0.4,2.9,1.2c0.8,0.8,1.2,1.7,1.2,2.9v28.8
		c0,1.1-0.4,2.1-1.2,2.9c-0.8,0.8-1.8,1.2-2.9,1.2c-1.1,0-2.1-0.4-2.9-1.2c-0.8-0.8-1.2-1.7-1.2-2.9V35.3c-2.5,2-5,3.7-7.3,5.1
		c-2.3,1.4-4.6,2.4-6.9,3.3c-2.2,0.8-4.4,1.4-6.6,1.7c-2.2,0.3-4.4,0.5-6.7,0.5c-2.4,0-4.8-0.2-7-0.5c-2.2-0.3-4.5-0.9-6.7-1.7
		c-2.2-0.8-4.5-1.9-6.8-3.3c-2.3-1.4-4.7-3-7.2-5.1v20.1C217.7,56.5,217.3,57.4,216.5,58.2z"/>
	<path class="st2" d="M322.9,44.1c-1.4-0.6-2.5-1.4-3.6-2.4c-1-1-1.8-2.2-2.4-3.6c-0.6-1.4-0.9-2.8-0.9-4.4c0-1.6,0.3-3,0.9-4.4
		c0.6-1.4,1.4-2.5,2.4-3.6c1-1,2.2-1.8,3.6-2.4c1.4-0.6,2.8-0.9,4.4-0.9h51.4c1.1,0,2.1,0.4,2.9,1.2c0.8,0.8,1.2,1.7,1.2,2.9
		c0,1.1-0.4,2.1-1.2,2.9c-0.8,0.8-1.7,1.2-2.9,1.2h-51.5c-0.8,0-1.6,0.3-2.2,0.9c-0.6,0.6-1,1.3-1,2.2c0,0.8,0.3,1.6,1,2.2
		c0.6,0.6,1.4,0.9,2.2,0.9h46.8c1.6,0,3.1,0.3,4.4,0.9c1.4,0.6,2.6,1.4,3.6,2.4c1,1,1.8,2.2,2.4,3.6c0.6,1.4,0.9,2.9,0.9,4.4
		c0,1.6-0.3,3-0.9,4.4c-0.6,1.4-1.4,2.5-2.4,3.6c-1,1-2.2,1.8-3.6,2.4c-1.4,0.6-2.9,0.8-4.4,0.8h-51.3c-1.1,0-2.1-0.4-2.9-1.2
		c-0.8-0.8-1.2-1.7-1.2-2.9c0-1.1,0.4-2.1,1.2-2.9c0.8-0.8,1.7-1.2,2.9-1.2h51.6c0.8,0,1.6-0.3,2.2-0.9c0.6-0.6,0.9-1.3,0.9-2.2
		c0-0.9-0.3-1.7-0.9-2.3c-0.6-0.6-1.4-0.9-2.2-0.9h-47C325.7,45,324.3,44.7,322.9,44.1z"/>
	<g>
		<path class="st3" d="M123.3,30.6c-2,0-3.6,0.4-4.8,1.1c-1.2,0.7-2.2,1.6-2.9,2.6c-0.7,1-1.2,2.1-1.4,3.3c-0.3,1.2-0.4,2.3-0.4,3.3
			c0,1,0.1,2.1,0.4,3.3c0.3,1.2,0.7,2.3,1.4,3.3c0.7,1,1.7,1.9,2.9,2.6c1.2,0.7,2.8,1.1,4.8,1.1h46.6c1.1,0,2.1,0.4,2.9,1.2
			c0.8,0.8,1.2,1.7,1.2,2.9c0,1.1-0.4,2.1-1.2,2.9c-0.8,0.8-1.7,1.2-2.9,1.2h-49.3c-2.3,0-4.4-0.6-6.2-1.7c-1.8-1.1-3.3-2.6-4.6-4.4
			c-1.3-1.8-2.2-3.8-2.9-6c-0.7-2.2-1-4.3-1-6.4c0-2.1,0.4-4.3,1.1-6.5c0.7-2.2,1.7-4.1,3.1-5.9c1.4-1.8,3-3.2,4.9-4.4
			c1.9-1.1,4.1-1.7,6.5-1.7h48.5c1.1,0,2.1,0.4,2.9,1.2c0.8,0.8,1.2,1.7,1.2,2.9c0,1.1-0.4,2.1-1.2,2.9c-0.8,0.8-1.7,1.2-2.9,1.2
			H123.3z"/>
		<path class="st3" d="M169.3,38.1c0.8,0.8,1.2,1.7,1.2,2.9c0,1.1-0.4,2.1-1.2,2.9c-0.8,0.8-1.7,1.2-2.9,1.2h-42.1
			c-1.1,0-2.1-0.4-2.9-1.2c-0.8-0.8-1.2-1.7-1.2-2.9c0-1.1,0.4-2.1,1.2-2.9c0.8-0.8,1.7-1.2,2.9-1.2h42.1
			C167.5,36.9,168.5,37.3,169.3,38.1z"/>
	</g>
	<path class="st2" d="M90.6,41c0,2.6-2.1,4.7-4.7,4.7c-2.6,0-4.7-2.1-4.7-4.7c0-2.6,2.1-4.7,4.7-4.7C88.5,36.3,90.6,38.4,90.6,41z"
		/>
	<path class="st2" d="M195.1,41c0,2.6-2.1,4.7-4.7,4.7c-2.6,0-4.7-2.1-4.7-4.7c0-2.6,2.1-4.7,4.7-4.7C193,36.3,195.1,38.4,195.1,41z
		"/>
	<path class="st2" d="M305.1,41c0,2.6-2.1,4.7-4.7,4.7c-2.6,0-4.7-2.1-4.7-4.7c0-2.6,2.1-4.7,4.7-4.7C303,36.3,305.1,38.4,305.1,41z
		"/>
</g>
<linearGradient id="SVGID_1_" gradientUnits="userSpaceOnUse" x1="399.9627" y1="18.4252" x2="446.1027" y2="18.4252">
	<stop  offset="0" style="stop-color:#1E4074"/>
	<stop  offset="1" style="stop-color:#0059A9"/>
</linearGradient>
<path class="st4" d="M442,22.5h-38c-2.2,0-4.1-1.8-4.1-4.1v0c0-2.2,1.8-4.1,4.1-4.1h38c2.2,0,4.1,1.8,4.1,4.1v0
	C446.1,20.7,444.3,22.5,442,22.5z"/>
<linearGradient id="SVGID_2_" gradientUnits="userSpaceOnUse" x1="-5.2895" y1="539.0711" x2="-5.2895" y2="531.4418" gradientTransform="matrix(0 1 -1 0 958.3299 23.7147)">
	<stop  offset="0" style="stop-color:#1E4074"/>
	<stop  offset="1" style="stop-color:#0059A9"/>
</linearGradient>
<path class="st5" d="M419,32.8V4.1c0-2.2,1.8-4.1,4.1-4.1h0c2.2,0,4.1,1.8,4.1,4.1v28.7c0,2.2-1.8,4.1-4.1,4.1h0
	C420.8,36.9,419,35,419,32.8z"/>
</svg>
